fit.ufo
<glyph name="exclamation" format="2">
  <advance width="248.2"/>
  <unicode hex="0021"/>
  <outline>
    <contour>
      <point x="209.1" y="73.75" type="curve" smooth="yes"/>
      <point x="209.1" y="120.66278"/>
      <point x="171.01278" y="158.75"/>
      <point x="124.1" y="158.75" type="curve" smooth="yes"/>
      <point x="77.18722" y="158.75"/>
      <point x="39.1" y="120.66278"/>
      <point x="39.1" y="73.75" type="curve" smooth="yes"/>
      <point x="39.1" y="26.83722"/>
      <point x="77.18722" y="-11.25"/>
      <point x="124.1" y="-11.25" type="curve" smooth="yes"/>
      <point x="171.01278" y="-11.25"/>
      <point x="209.1" y="26.83722"/>
    </contour>
    <contour>
      <point x="44.1" y="204.16667" type="line"/>
      <point x="204.1" y="204.16667" type="line"/>
      <point x="204.1" y="400.0" type="line"/>
      <point x="44.1" y="400.0" type="line"/>
    </contour>
    <contour>
      <point x="44.1" y="400" type="line"/>
      <point x="204.1" y="400" type="line"/>
      <point x="204.1" y="600" type="line"/>
      <point x="44.1" y="600" type="line"/>
    </contour>
    <contour>
      <point x="44.1" y="600" type="line"/>
      <point x="204.1" y="600" type="line"/>
      <point x="204.1" y="800" type="line"/>
      <point x="44.1" y="800" type="line"/>
    </contour>
  </outline>
</glyph>
<glyph name="quotedouble" format="2">
  <advance width="453.2"/>
  <unicode hex="0022"/>
  <outline>
    <contour>
      <point x="44.1" y="700.0" type="line"/>
      <point x="132.4064" y="700.0"/>
      <point x="204.1" y="771.6936"/>
      <point x="204.1" y="860.0" type="curve"/>
      <point x="44.1" y="860.0" type="line"/>
    </contour>
    <contour>
      <point x="44.1" y="860.0" type="line"/>
      <point x="204.1" y="860.0" type="line"/>
      <point x="204.1" y="900.0" type="line"/>
      <point x="44.1" y="900.0" type="line"/>
    </contour>
    <contour>
      <point x="249.1" y="700.0" type="line"/>
      <point x="337.4064" y="700.0"/>
      <point x="409.1" y="771.6936"/>
      <point x="409.1" y="860.0" type="curve"/>
      <point x="249.1" y="860.0" type="line"/>
    </contour>
    <contour>
      <point x="249.1" y="860.0" type="line"/>
      <point x="409.1" y="860.0" type="line"/>
      <point x="409.1" y="900.0" type="line"/>
      <point x="249.1" y="900.0" type="line"/>
    </contour>
  </outline>
</glyph>
<glyph name="numbersign" format="2">
  <advance width="825.9499605415225"/>
  <unicode hex="0023"/>
  <outline>
    <contour>
      <point x="240.9985393187904" y="330.0" type="line"/>
      <point x="152.6921393187904" y="330.0"/>
      <point x="64.4648573281302" y="258.3064"/>
      <point x="44.1" y="170.0" type="curve"/>
      <point x="204.10000000000002" y="170.0" type="line"/>
    </contour>
    <contour>
      <point x="310.1833005415225" y="630.0" type="line"/>
      <point x="221.8769005415224" y="630.0"/>
      <point x="133.64961855086221" y="558.3064"/>
      <point x="113.28476122273199" y="470.0" type="curve"/>
      <point x="273.284761222732" y="470.0" type="line"/>
    </contour>
    <contour>
      <point x="137.07555262007298" y="-5.0" type="line"/>
      <point x="225.38195262007298" y="-5.0"/>
      <point x="313.6092346107332" y="66.6936"/>
      <point x="333.97409193886347" y="155.0" type="curve"/>
      <point x="173.97409193886338" y="155.0" type="line"/>
    </contour>
    <contour>
      <point x="173.97409193886338" y="155.0" type="line"/>
      <point x="333.97409193886347" y="155.0" type="line"/>
      <point x="344.3518061222733" y="200.0" type="line"/>
      <point x="184.3518061222732" y="200.0" type="line"/>
    </contour>
    <contour>
      <point x="184.3518061222732" y="200" type="line"/>
      <point x="344.3518061222733" y="200" type="line"/>
      <point x="390.4749802707612" y="400" type="line"/>
      <point x="230.4749802707612" y="400" type="line"/>
    </contour>
    <contour>
      <point x="230.4749802707612" y="400" type="line"/>
      <point x="390.4749802707612" y="400" type="line"/>
      <point x="436.5981544192492" y="600" type="line"/>
      <point x="276.59815441924917" y="600" type="line"/>
    </contour>
    <contour>
      <point x="483.87440792144946" y="805.0" type="line"/>
      <point x="395.5680079214494" y="805.0"/>
      <point x="307.3407259307893" y="733.3064"/>
      <point x="286.975868602659" y="645.0" type="curve"/>
      <point x="446.97586860265903" y="645.0" type="line"/>
    </contour>
    <contour>
      <point x="276.59815441924917" y="600" type="line"/>
      <point x="436.5981544192492" y="600" type="line"/>
      <point x="446.97586860265903" y="645.0" type="line"/>
      <point x="286.975868602659" y="645.0" type="line"/>
    </contour>
    <contour>
      <point x="257.43333" y="170.0" type="line"/>
      <point x="417.43333000000007" y="170.0" type="line"/>
      <point x="454.3318693187905" y="330.0" type="line"/>
      <point x="294.3318693187904" y="330.0" type="line"/>
    </contour>
    <contour>
      <point x="342.07555262007304" y="-5.0" type="line"/>
      <point x="430.381952620073" y="-5.0"/>
      <point x="518.6092346107332" y="66.6936"/>
      <point x="538.9740919388635" y="155.0" type="curve"/>
      <point x="378.97409193886347" y="155.0" type="line"/>
    </contour>
    <contour>
      <point x="378.97409193886347" y="155.0" type="line"/>
      <point x="538.9740919388635" y="155.0" type="line"/>
      <point x="549.3518061222733" y="200.0" type="line"/>
      <point x="389.3518061222733" y="200.0" type="line"/>
    </contour>
    <contour>
      <point x="389.3518061222733" y="200" type="line"/>
      <point x="549.3518061222733" y="200" type="line"/>
      <point x="595.4749802707613" y="400" type="line"/>
      <point x="435.4749802707612" y="400" type="line"/>
    </contour>
    <contour>
      <point x="435.4749802707612" y="400" type="line"/>
      <point x="595.4749802707613" y="400" type="line"/>
      <point x="641.5981544192492" y="600" type="line"/>
      <point x="481.5981544192492" y="600" type="line"/>
    </contour>
    <contour>
      <point x="688.8744079214495" y="805.0" type="line"/>
      <point x="600.5680079214494" y="805.0"/>
      <point x="512.3407259307893" y="733.3064"/>
      <point x="491.97586860265903" y="645.0" type="curve"/>
      <point x="651.975868602659" y="645.0" type="line"/>
    </contour>
    <contour>
      <point x="481.5981544192492" y="600" type="line"/>
      <point x="641.5981544192492" y="600" type="line"/>
      <point x="651.975868602659" y="645.0" type="line"/>
      <point x="491.97586860265903" y="645.0" type="line"/>
    </contour>
    <contour>
      <point x="371.618091222732" y="470.0" type="line"/>
      <point x="531.618091222732" y="470.0" type="line"/>
      <point x="568.5166305415224" y="630.0" type="line"/>
      <point x="408.51663054152243" y="630.0" type="line"/>
    </contour>
    <contour>
      <point x="515.7666600000001" y="170.0" type="line"/>
      <point x="604.07306" y="170.0"/>
      <point x="692.3003419906603" y="241.6936"/>
      <point x="712.6651993187905" y="330.0" type="curve"/>
      <point x="552.6651993187905" y="330.0" type="line"/>
    </contour>
    <contour>
      <point x="584.951421222732" y="470.0" type="line"/>
      <point x="673.257821222732" y="470.0"/>
      <point x="761.4851032133923" y="541.6936"/>
      <point x="781.8499605415225" y="630.0" type="curve"/>
      <point x="621.8499605415225" y="630.0" type="line"/>
    </contour>
  </outline>
</glyph>
<glyph name="dollar" format="2">
  <advance width="453.2"/>
  <unicode hex="0024"/>
  <outline>
    <contour>
      <point x="124.1" y="0" type="line"/>
      <point x="204.1" y="0" type="line"/>
      <point x="204.1" y="100.0" type="line"/>
      <point x="124.1" y="100.0" type="line"/>
    </contour>
    <contour>
      <point x="204.1" y="100.0" type="line"/>
      <point x="204.1" y="188.3064"/>
      <point x="132.4064" y="260.0"/>
      <point x="44.1" y="260.0" type="curve"/>
      <point x="44.1" y="100.0" type="line"/>
    </contour>
    <contour>
      <point x="44.1" y="480.0" type="line"/>
      <point x="44.1" y="391.6936"/>
      <point x="115.7936" y="320.0"/>
      <point x="204.1" y="320.0" type="curve"/>
      <point x="204.1" y="480.0" type="line"/>
    </contour>
    <contour>
      <point x="44.1" y="480.0" type="line"/>
      <point x="204.1" y="480.0" type="line"/>
      <point x="204.1" y="500.0" type="line"/>
      <point x="44.1" y="500.0" type="line"/>
    </contour>
    <contour>
      <point x="204.1" y="700.0" type="line"/>
      <point x="115.7936" y="700.0"/>
      <point x="44.1" y="628.3064"/>
      <point x="44.1" y="540.0" type="curve"/>
      <point x="204.1" y="540.0" type="line"/>
    </contour>
    <contour>
      <point x="44.1" y="500.0" type="line"/>
      <point x="204.1" y="500.0" type="line"/>
      <point x="204.1" y="540.0" type="line"/>
      <point x="44.1" y="540.0" type="line"/>
    </contour>
    <contour>
      <point x="124.1" y="600" type="line"/>
      <point x="204.1" y="600" type="line"/>
      <point x="204.1" y="700.0" type="line"/>
      <point x="124.1" y="700.0" type="line"/>
    </contour>
    <contour>
      <point x="124.1" y="700.0" type="line"/>
      <point x="204.1" y="700.0" type="line"/>
      <point x="204.1" y="800.0" type="line"/>
      <point x="124.1" y="800.0" type="line"/>
    </contour>
    <contour>
      <point x="249.1" y="0" type="line"/>
      <point x="329.1" y="0" type="line"/>
      <point x="329.1" y="100.0" type="line"/>
      <point x="249.1" y="100.0" type="line"/>
    </contour>
    <contour>
      <point x="249.1" y="100.0" type="line"/>
      <point x="329.1" y="100.0" type="line"/>
      <point x="329.1" y="200.0" type="line"/>
      <point x="249.1" y="200.0" type="line"/>
    </contour>
    <contour>
      <point x="249.1" y="100.0" type="line"/>
      <point x="337.4064" y="100.0"/>
      <point x="409.1" y="171.6936"/>
      <point x="409.1" y="260.0" type="curve"/>
      <point x="249.1" y="260.0" type="line"/>
    </contour>
    <contour>
      <point x="249.1" y="260.0" type="line"/>
      <point x="409.1" y="260.0" type="line"/>
      <point x="409.1" y="300.0" type="line"/>
      <point x="249.1" y="300.0" type="line"/>
    </contour>
    <contour>
      <point x="409.1" y="320.0" type="line"/>
      <point x="409.1" y="408.3064"/>
      <point x="337.4064" y="480.0"/>
      <point x="249.1" y="480.0" type="curve"/>
      <point x="249.1" y="320.0" type="line"/>
    </contour>
    <contour>
      <point x="249.1" y="300.0" type="line"/>
      <point x="409.1" y="300.0" type="line"/>
      <point x="409.1" y="320.0" type="line"/>
      <point x="249.1" y="320.0" type="line"/>
    </contour>
    <contour>
      <point x="244.1" y="700.0" type="line"/>
      <point x="244.1" y="611.6936"/>
      <point x="315.7936" y="540.0"/>
      <point x="404.1" y="540.0" type="curve"/>
      <point x="404.1" y="700.0" type="line"/>
    </contour>
    <contour>
      <point x="244.1" y="700.0" type="line"/>
      <point x="324.1" y="700.0" type="line"/>
      <point x="324.1" y="800.0" type="line"/>
      <point x="244.1" y="800.0" type="line"/>
    </contour>
  </outline>
</glyph>
<glyph name="percent" format="2">
  <advance width="758.2"/>
  <unicode hex="0025"/>
  <outline>
    <contour>
      <point x="129.1" y="805.0" type="line"/>
      <point x="82.18722" y="805.0"/>
      <point x="44.1" y="766.91278"/>
      <point x="44.1" y="720.0" type="curve" smooth="yes"/>
      <point x="44.1" y="673.08722"/>
      <point x="82.18722" y="635.0"/>
      <point x="129.1" y="635.0" type="curve"/>
    </contour>
    <contour>
      <point x="174.1" y="635.0" type="line"/>
      <point x="221.01278" y="635.0"/>
      <point x="259.1" y="673.08722"/>
      <point x="259.1" y="720.0" type="curve" smooth="yes"/>
      <point x="259.1" y="766.91278"/>
      <point x="221.01278" y="805.0"/>
      <point x="174.1" y="805.0" type="curve"/>
    </contour>
    <contour>
      <point x="299.1" y="0.0" type="line"/>
      <point x="387.4064" y="0.0"/>
      <point x="459.1" y="71.6936"/>
      <point x="459.1" y="160.0" type="curve"/>
      <point x="299.1" y="160.0" type="line"/>
    </contour>
    <contour>
      <point x="299.1" y="160.0" type="line"/>
      <point x="459.1" y="160.0" type="line"/>
      <point x="459.1" y="200.0" type="line"/>
      <point x="299.1" y="200.0" type="line"/>
    </contour>
    <contour>
      <point x="299.1" y="200" type="line"/>
      <point x="459.1" y="200" type="line"/>
      <point x="459.1" y="400" type="line"/>
      <point x="299.1" y="400" type="line"/>
    </contour>
    <contour>
      <point x="299.1" y="400" type="line"/>
      <point x="459.1" y="400" type="line"/>
      <point x="459.1" y="600" type="line"/>
      <point x="299.1" y="600" type="line"/>
    </contour>
    <contour>
      <point x="459.1" y="800.0" type="line"/>
      <point x="370.7936" y="800.0"/>
      <point x="299.1" y="728.3064"/>
      <point x="299.1" y="640.0" type="curve"/>
      <point x="459.1" y="640.0" type="line"/>
    </contour>
    <contour>
      <point x="299.1" y="600" type="line"/>
      <point x="459.1" y="600" type="line"/>
      <point x="459.1" y="640.0" type="line"/>
      <point x="299.1" y="640.0" type="line"/>
    </contour>
    <contour>
      <point x="584.1" y="165.0" type="line"/>
      <point x="537.18722" y="165.0"/>
      <point x="499.1" y="126.91278"/>
      <point x="499.1" y="80.0" type="curve" smooth="yes"/>
      <point x="499.1" y="33.08722"/>
      <point x="537.18722" y="-5.0"/>
      <point x="584.1" y="-5.0" type="curve"/>
    </contour>
    <contour>
      <point x="629.1" y="-5.0" type="line"/>
      <point x="676.01278" y="-5.0"/>
      <point x="714.1" y="33.08722"/>
      <point x="714.1" y="80.0" type="curve" smooth="yes"/>
      <point x="714.1" y="126.91278"/>
      <point x="676.01278" y="165.0"/>
      <point x="629.1" y="165.0" type="curve"/>
    </contour>
  </outline>
</glyph>
<glyph name="ampersand" format="2">
  <advance width="613.2"/>
  <unicode hex="0026"/>
  <outline>
    <contour>
      <point x="44.1" y="155.0" type="line"/>
      <point x="44.1" y="66.6936"/>
      <point x="115.7936" y="-5.0"/>
      <point x="204.1" y="-5.0" type="curve"/>
      <point x="204.1" y="155.0" type="line"/>
    </contour>
    <contour>
      <point x="44.1" y="155.0" type="line"/>
      <point x="204.1" y="155.0" type="line"/>
      <point x="204.1" y="200.0" type="line"/>
      <point x="44.1" y="200.0" type="line"/>
    </contour>
    <contour>
      <point x="204.1" y="400.0" type="line"/>
      <point x="115.7936" y="400.0"/>
      <point x="44.1" y="328.3064"/>
      <point x="44.1" y="240.0" type="curve"/>
      <point x="204.1" y="240.0" type="line"/>
    </contour>
    <contour>
      <point x="44.1" y="200" type="line"/>
      <point x="204.1" y="200" type="line"/>
      <point x="204.1" y="240.0" type="line"/>
      <point x="44.1" y="240.0" type="line"/>
    </contour>
    <contour>
      <point x="44.1" y="560.0" type="line"/>
      <point x="44.1" y="471.6936"/>
      <point x="115.7936" y="400.0"/>
      <point x="204.1" y="400.0" type="curve"/>
      <point x="204.1" y="560.0" type="line"/>
    </contour>
    <contour>
      <point x="44.1" y="560.0" type="line"/>
      <point x="204.1" y="560.0" type="line"/>
      <point x="204.1" y="600.0" type="line"/>
      <point x="44.1" y="600.0" type="line"/>
    </contour>
    <contour>
      <point x="204.1" y="800.0" type="line"/>
      <point x="115.7936" y="800.0"/>
      <point x="44.1" y="728.3064"/>
      <point x="44.1" y="640.0" type="curve"/>
      <point x="204.1" y="640.0" type="line"/>
    </contour>
    <contour>
      <point x="44.1" y="600" type="line"/>
      <point x="204.1" y="600" type="line"/>
      <point x="204.1" y="640.0" type="line"/>
      <point x="44.1" y="640.0" type="line"/>
    </contour>
    <contour>
      <point x="249.1" y="-5.0" type="line"/>
      <point x="337.4064" y="-5.0"/>
      <point x="409.1" y="66.6936"/>
      <point x="409.1" y="155.0" type="curve"/>
      <point x="249.1" y="155.0" type="line"/>
    </contour>
    <contour>
      <point x="249.1" y="155.0" type="line"/>
      <point x="409.1" y="155.0" type="line"/>
      <point x="409.1" y="200.0" type="line"/>
      <point x="249.1" y="200.0" type="line"/>
    </contour>
    <contour>
      <point x="249.1" y="200" type="line"/>
      <point x="409.1" y="200" type="line"/>
      <point x="409.1" y="300.0" type="line"/>
      <point x="249.1" y="300.0" type="line"/>
    </contour>
    <contour>
      <point x="409.1" y="500.0" type="line"/>
      <point x="320.7936" y="500.0"/>
      <point x="249.1" y="428.3064"/>
      <point x="249.1" y="340.0" type="curve"/>
      <point x="409.1" y="340.0" type="line"/>
    </contour>
    <contour>
      <point x="249.1" y="300.0" type="line"/>
      <point x="409.1" y="300.0" type="line"/>
      <point x="409.1" y="340.0" type="line"/>
      <point x="249.1" y="340.0" type="line"/>
    </contour>
    <contour>
      <point x="239.1" y="800.0" type="line"/>
      <point x="239.1" y="711.6936"/>
      <point x="310.7936" y="640.0"/>
      <point x="399.1" y="640.0" type="curve"/>
      <point x="399.1" y="800.0" type="line"/>
    </contour>
    <contour>
      <point x="409.1" y="340.0" type="line"/>
      <point x="497.4064" y="340.0"/>
      <point x="569.1" y="411.6936"/>
      <point x="569.1" y="500.0" type="curve"/>
      <point x="409.1" y="500.0" type="line"/>
    </contour>
  </outline>
</glyph>
<glyph name="parenleft" format="2">
  <advance width="248.2"/>
  <unicode hex="0028"/>
  <outline>
    <contour>
      <point x="44.1" y="60.0" type="line"/>
      <point x="44.1" y="-28.3064"/>
      <point x="115.7936" y="-100.0"/>
      <point x="204.1" y="-100.0" type="curve"/>
      <point x="204.1" y="60.0" type="line"/>
    </contour>
    <contour>
      <point x="44.1" y="60.0" type="line"/>
      <point x="204.1" y="60.0" type="line"/>
      <point x="204.1" y="100.0" type="line"/>
      <point x="44.1" y="100.0" type="line"/>
    </contour>
    <contour>
      <point x="44.1" y="100.0" type="line"/>
      <point x="204.1" y="100.0" type="line"/>
      <point x="204.1" y="300.0" type="line"/>
      <point x="44.1" y="300.0" type="line"/>
    </contour>
    <contour>
      <point x="44.1" y="300.0" type="line"/>
      <point x="204.1" y="300.0" type="line"/>
      <point x="204.1" y="500.0" type="line"/>
      <point x="44.1" y="500.0" type="line"/>
    </contour>
    <contour>
      <point x="44.1" y="500.0" type="line"/>
      <point x="204.1" y="500.0" type="line"/>
      <point x="204.1" y="700.0" type="line"/>
      <point x="44.1" y="700.0" type="line"/>
    </contour>
    <contour>
      <point x="204.1" y="900.0" type="line"/>
      <point x="115.7936" y="900.0"/>
      <point x="44.1" y="828.3064"/>
      <point x="44.1" y="740.0" type="curve"/>
      <point x="204.1" y="740.0" type="line"/>
    </contour>
    <contour>
      <point x="44.1" y="700.0" type="line"/>
      <point x="204.1" y="700.0" type="line"/>
      <point x="204.1" y="740.0" type="line"/>
      <point x="44.1" y="740.0" type="line"/>
    </contour>
  </outline>
</glyph>
<glyph name="asterisk" format="2">
  <advance width="511.0375056146938"/>
  <unicode hex="002A"/>
  <outline>
    <contour>
      <point x="466.93750561469386" y="647.1453117981632" type="line"/>
      <point x="413.60417228136055" y="739.5213548685034" type="line"/>
      <point x="44.1" y="526.1880215351703" type="line"/>
      <point x="97.43333333333337" y="433.8119784648301" type="line"/>
    </contour>
    <contour>
      <point x="413.60417228136055" y="433.81197846483" type="line"/>
      <point x="466.93750561469386" y="526.18802153517" type="line"/>
      <point x="97.4333333333334" y="739.5213548685035" type="line"/>
      <point x="44.10000000000006" y="647.1453117981634" type="line"/>
    </contour>
    <contour>
      <point x="202.18541947401363" y="373.3333333333334" type="line"/>
      <point x="308.8520861406803" y="373.3333333333334" type="line"/>
      <point x="308.8520861406803" y="800.0" type="line"/>
      <point x="202.18541947401363" y="800.0" type="line"/>
    </contour>
  </outline>
</glyph>
<glyph name="plus" format="2">
  <advance width="658.2"/>
  <unicode hex="002B"/>
  <outline>
    <contour>
      <point x="89.1" y="320.0" type="line"/>
      <point x="249.1" y="320.0" type="line"/>
      <point x="249.1" y="480.0" type="line"/>
      <point x="89.1" y="480.0" type="line"/>
    </contour>
    <contour>
      <point x="249.1" y="140.0" type="line"/>
      <point x="409.1" y="140.0" type="line"/>
      <point x="409.1" y="300.0" type="line"/>
      <point x="249.1" y="300.0" type="line"/>
    </contour>
    <contour>
      <point x="249.1" y="300.0" type="line"/>
      <point x="409.1" y="300.0" type="line"/>
      <point x="409.1" y="500.0" type="line"/>
      <point x="249.1" y="500.0" type="line"/>
    </contour>
    <contour>
      <point x="249.1" y="500.0" type="line"/>
      <point x="409.1" y="500.0" type="line"/>
      <point x="409.1" y="660.0" type="line"/>
      <point x="249.1" y="660.0" type="line"/>
    </contour>
    <contour>
      <point x="409.1" y="320.0" type="line"/>
      <point x="569.1" y="320.0" type="line"/>
      <point x="569.1" y="480.0" type="line"/>
      <point x="409.1" y="480.0" type="line"/>
    </contour>
  </outline>
</glyph>
<glyph name="comma" format="2">
  <advance width="248.2"/>
  <unicode hex="002C"/>
  <outline>
    <contour>
      <point x="44.1" y="-100.0" type="line"/>
      <point x="132.4064" y="-100.0"/>
      <point x="204.1" y="-28.3064"/>
      <point x="204.1" y="60.0" type="curve"/>
      <point x="44.1" y="60.0" type="line"/>
    </contour>
    <contour>
      <point x="44.1" y="60.0" type="line"/>
      <point x="204.1" y="60.0" type="line"/>
      <point x="204.1" y="100.0" type="line"/>
      <point x="44.1" y="100.0" type="line"/>
    </contour>
  </outline>
</glyph>
<glyph name="hyphen" format="2">
  <advance width="453.2"/>
  <unicode hex="002D"/>
  <outline>
    <contour>
      <point x="44.1" y="320.0" type="line"/>
      <point x="204.1" y="320.0" type="line"/>
      <point x="204.1" y="480.0" type="line"/>
      <point x="44.1" y="480.0" type="line"/>
    </contour>
    <contour>
      <point x="204.1" y="320.0" type="line"/>
      <point x="249.1" y="320.0" type="line"/>
      <point x="249.1" y="480.0" type="line"/>
      <point x="204.1" y="480.0" type="line"/>
    </contour>
    <contour>
      <point x="249.1" y="320.0" type="line"/>
      <point x="409.1" y="320.0" type="line"/>
      <point x="409.1" y="480.0" type="line"/>
      <point x="249.1" y="480.0" type="line"/>
    </contour>
  </outline>
</glyph>
<glyph name="zero" format="2">
  <advance width="453.2"/>
  <unicode hex="0030"/>
  <outline>
    <contour>
      <point x="44.1" y="155.0" type="line"/>
      <point x="44.1" y="66.6936"/>
      <point x="115.7936" y="-5.0"/>
      <point x="204.1" y="-5.0" type="curve"/>
      <point x="204.1" y="155.0" type="line"/>
    </contour>
    <contour>
      <point x="44.1" y="155.0" type="line"/>
      <point x="204.1" y="155.0" type="line"/>
      <point x="204.1" y="200.0" type="line"/>
      <point x="44.1" y="200.0" type="line"/>
    </contour>
    <contour>
      <point x="44.1" y="200" type="line"/>
      <point x="204.1" y="200" type="line"/>
      <point x="204.1" y="400" type="line"/>
      <point x="44.1" y="400" type="line"/>
    </contour>
    <contour>
      <point x="44.1" y="400" type="line"/>
      <point x="204.1" y="400" type="line"/>
      <point x="204.1" y="600" type="line"/>
      <point x="44.1" y="600" type="line"/>
    </contour>
    <contour>
      <point x="204.1" y="805.0" type="line"/>
      <point x="115.7936" y="805.0"/>
      <point x="44.1" y="733.3064"/>
      <point x="44.1" y="645.0" type="curve"/>
      <point x="204.1" y="645.0" type="line"/>
    </contour>
    <contour>
      <point x="44.1" y="600" type="line"/>
      <point x="204.1" y="600" type="line"/>
      <point x="204.1" y="645.0" type="line"/>
      <point x="44.1" y="645.0" type="line"/>
    </contour>
    <contour>
      <point x="249.1" y="-5.0" type="line"/>
      <point x="337.4064" y="-5.0"/>
      <point x="409.1" y="66.6936"/>
      <point x="409.1" y="155.0" type="curve"/>
      <point x="249.1" y="155.0" type="line"/>
    </contour>
    <contour>
      <point x="249.1" y="155.0" type="line"/>
      <point x="409.1" y="155.0" type="line"/>
      <point x="409.1" y="200.0" type="line"/>
      <point x="249.1" y="200.0" type="line"/>
    </contour>
    <contour>
      <point x="249.1" y="200" type="line"/>
      <point x="409.1" y="200" type="line"/>
      <point x="409.1" y="400" type="line"/>
      <point x="249.1" y="400" type="line"/>
    </contour>
    <contour>
      <point x="249.1" y="400" type="line"/>
      <point x="409.1" y="400" type="line"/>
      <point x="409.1" y="600" type="line"/>
      <point x="249.1" y="600" type="line"/>
    </contour>
    <contour>
      <point x="409.1" y="645.0" type="line"/>
      <point x="409.1" y="733.3064"/>
      <point x="337.4064" y="805.0"/>
      <point x="249.1" y="805.0" type="curve"/>
      <point x="249.1" y="645.0" type="line"/>
    </contour>
    <contour>
      <point x="249.1" y="600" type="line"/>
      <point x="409.1" y="600" type="line"/>
      <point x="409.1" y="645.0" type="line"/>
      <point x="249.1" y="645.0" type="line"/>
    </contour>
  </outline>
</glyph>
<glyph name="two" format="2">
  <advance width="453.2"/>
  <unicode hex="0032"/>
  <outline>
    <contour>
      <point x="204.1" y="160.0" type="line"/>
      <point x="115.7936" y="160.0"/>
      <point x="44.1" y="88.3064"/>
      <point x="44.1" y="0.0" type="curve"/>
      <point x="204.1" y="0.0" type="line"/>
    </contour>
    <contour>
      <point x="204.1" y="0" type="line"/>
      <point x="249.1" y="0" type="line"/>
      <point x="249.1" y="160.0" type="line"/>
      <point x="204.1" y="160.0" type="line"/>
    </contour>
    <contour>
      <point x="214.1" y="720.0" type="curve" smooth="yes"/>
      <point x="214.1" y="766.91278"/>
      <point x="176.01278" y="805.0"/>
      <point x="129.1" y="805.0" type="curve" smooth="yes"/>
      <point x="82.18722" y="805.0"/>
      <point x="44.1" y="766.91278"/>
      <point x="44.1" y="720.0" type="curve" smooth="yes"/>
      <point x="44.1" y="673.08722"/>
      <point x="82.18722" y="635.0"/>
      <point x="129.1" y="635.0" type="curve" smooth="yes"/>
      <point x="176.01278" y="635.0"/>
      <point x="214.1" y="673.08722"/>
    </contour>
    <contour>
      <point x="249.1" y="0" type="line"/>
      <point x="409.1" y="0" type="line"/>
      <point x="409.1" y="160.0" type="line"/>
      <point x="249.1" y="160.0" type="line"/>
    </contour>
    <contour>
      <point x="249.1" y="211.66667" type="line"/>
      <point x="337.4064" y="211.66667"/>
      <point x="409.1" y="283.36027"/>
      <point x="409.1" y="371.66667" type="curve"/>
      <point x="249.1" y="371.66667" type="line"/>
    </contour>
    <contour>
      <point x="249.1" y="371.66667" type="line"/>
      <point x="409.1" y="371.66667" type="line"/>
      <point x="409.1" y="500.0" type="line"/>
      <point x="249.1" y="500.0" type="line"/>
    </contour>
    <contour>
      <point x="249.1" y="500.0" type="line"/>
      <point x="409.1" y="500.0" type="line"/>
      <point x="409.1" y="600.0" type="line"/>
      <point x="249.1" y="600.0" type="line"/>
    </contour>
    <contour>
      <point x="409.1" y="645.0" type="line"/>
      <point x="409.1" y="733.3064"/>
      <point x="337.4064" y="805.0"/>
      <point x="249.1" y="805.0" type="curve"/>
      <point x="249.1" y="645.0" type="line"/>
    </contour>
    <contour>
      <point x="249.1" y="600" type="line"/>
      <point x="409.1" y="600" type="line"/>
      <point x="409.1" y="645.0" type="line"/>
      <point x="249.1" y="645.0" type="line"/>
    </contour>
  </outline>
</glyph>
<glyph name="three" format="2">
  <advance width="453.2"/>
  <unicode hex="0033"/>
  <outline>
    <contour>
      <point x="209.1" y="80.0" type="curve" smooth="yes"/>
      <point x="209.1" y="126.91278"/>
      <point x="171.01278" y="165.0"/>
      <point x="124.1" y="165.0" type="curve" smooth="yes"/>
      <point x="77.18722" y="165.0"/>
      <point x="39.1" y="126.91278"/>
      <point x="39.1" y="80.0" type="curve" smooth="yes"/>
      <point x="39.1" y="33.08722"/>
      <point x="77.18722" y="-5.0"/>
      <point x="124.1" y="-5.0" type="curve" smooth="yes"/>
      <point x="171.01278" y="-5.0"/>
      <point x="209.1" y="33.08722"/>
    </contour>
    <contour>
      <point x="209.1" y="720.0" type="curve" smooth="yes"/>
      <point x="209.1" y="766.91278"/>
      <point x="171.01278" y="805.0"/>
      <point x="124.1" y="805.0" type="curve" smooth="yes"/>
      <point x="77.18722" y="805.0"/>
      <point x="39.1" y="766.91278"/>
      <point x="39.1" y="720.0" type="curve" smooth="yes"/>
      <point x="39.1" y="673.08722"/>
      <point x="77.18722" y="635.0"/>
      <point x="124.1" y="635.0" type="curve" smooth="yes"/>
      <point x="171.01278" y="635.0"/>
      <point x="209.1" y="673.08722"/>
    </contour>
    <contour>
      <point x="249.1" y="-5.0" type="line"/>
      <point x="337.4064" y="-5.0"/>
      <point x="409.1" y="66.6936"/>
      <point x="409.1" y="155.0" type="curve"/>
      <point x="249.1" y="155.0" type="line"/>
    </contour>
    <contour>
      <point x="249.1" y="155.0" type="line"/>
      <point x="409.1" y="155.0" type="line"/>
      <point x="409.1" y="200.0" type="line"/>
      <point x="249.1" y="200.0" type="line"/>
    </contour>
    <contour>
      <point x="409.1" y="240.0" type="line"/>
      <point x="409.1" y="328.3064"/>
      <point x="337.4064" y="400.0"/>
      <point x="249.1" y="400.0" type="curve"/>
      <point x="249.1" y="240.0" type="line"/>
    </contour>
    <contour>
      <point x="249.1" y="200" type="line"/>
      <point x="409.1" y="200" type="line"/>
      <point x="409.1" y="240.0" type="line"/>
      <point x="249.1" y="240.0" type="line"/>
    </contour>
    <contour>
      <point x="249.1" y="400.0" type="line"/>
      <point x="337.4064" y="400.0"/>
      <point x="409.1" y="471.6936"/>
      <point x="409.1" y="560.0" type="curve"/>
      <point x="249.1" y="560.0" type="line"/>
    </contour>
    <contour>
      <point x="249.1" y="560.0" type="line"/>
      <point x="409.1" y="560.0" type="line"/>
      <point x="409.1" y="600.0" type="line"/>
      <point x="249.1" y="600.0" type="line"/>
    </contour>
    <contour>
      <point x="409.1" y="645.0" type="line"/>
      <point x="409.1" y="733.3064"/>
      <point x="337.4064" y="805.0"/>
      <point x="249.1" y="805.0" type="curve"/>
      <point x="249.1" y="645.0" type="line"/>
    </contour>
    <contour>
      <point x="249.1" y="600" type="line"/>
      <point x="409.1" y="600" type="line"/>
      <point x="409.1" y="645.0" type="line"/>
      <point x="249.1" y="645.0" type="line"/>
    </contour>
  </outline>
</glyph>
<glyph name="five" format="2">
  <advance width="453.2"/>
  <unicode hex="0035"/>
  <outline>
    <contour>
      <point x="209.1" y="75.0" type="curve" smooth="yes"/>
      <point x="209.1" y="121.91278"/>
      <point x="171.01278" y="160.0"/>
      <point x="124.1" y="160.0" type="curve" smooth="yes"/>
      <point x="77.18722" y="160.0"/>
      <point x="39.1" y="121.91278"/>
      <point x="39.1" y="75.0" type="curve" smooth="yes"/>
      <point x="39.1" y="28.08722"/>
      <point x="77.18722" y="-10.0"/>
      <point x="124.1" y="-10.0" type="curve" smooth="yes"/>
      <point x="171.01278" y="-10.0"/>
      <point x="209.1" y="28.08722"/>
    </contour>
    <contour>
      <point x="49.1" y="480.0" type="line"/>
      <point x="49.1" y="391.6936"/>
      <point x="120.7936" y="320.0"/>
      <point x="209.1" y="320.0" type="curve"/>
      <point x="209.1" y="480.0" type="line"/>
    </contour>
    <contour>
      <point x="49.1" y="480.0" type="line"/>
      <point x="209.1" y="480.0" type="line"/>
      <point x="209.1" y="500.0" type="line"/>
      <point x="49.1" y="500.0" type="line"/>
    </contour>
    <contour>
      <point x="49.1" y="500.0" type="line"/>
      <point x="209.1" y="500.0" type="line"/>
      <point x="209.1" y="600.0" type="line"/>
      <point x="49.1" y="600.0" type="line"/>
    </contour>
    <contour>
      <point x="49.1" y="600" type="line"/>
      <point x="209.1" y="600" type="line"/>
      <point x="209.1" y="800" type="line"/>
      <point x="49.1" y="800" type="line"/>
    </contour>
    <contour>
      <point x="249.1" y="-5.0" type="line"/>
      <point x="337.4064" y="-5.0"/>
      <point x="409.1" y="66.6936"/>
      <point x="409.1" y="155.0" type="curve"/>
      <point x="249.1" y="155.0" type="line"/>
    </contour>
    <contour>
      <point x="249.1" y="155.0" type="line"/>
      <point x="409.1" y="155.0" type="line"/>
      <point x="409.1" y="200.0" type="line"/>
      <point x="249.1" y="200.0" type="line"/>
    </contour>
    <contour>
      <point x="249.1" y="200" type="line"/>
      <point x="409.1" y="200" type="line"/>
      <point x="409.1" y="300.0" type="line"/>
      <point x="249.1" y="300.0" type="line"/>
    </contour>
    <contour>
      <point x="409.1" y="320.0" type="line"/>
      <point x="409.1" y="408.3064"/>
      <point x="337.4064" y="480.0"/>
      <point x="249.1" y="480.0" type="curve"/>
      <point x="249.1" y="320.0" type="line"/>
    </contour>
    <contour>
      <point x="249.1" y="300.0" type="line"/>
      <point x="409.1" y="300.0" type="line"/>
      <point x="409.1" y="320.0" type="line"/>
      <point x="249.1" y="320.0" type="line"/>
    </contour>
    <contour>
      <point x="244.1" y="800.0" type="line"/>
      <point x="244.1" y="711.6936"/>
      <point x="315.7936" y="640.0"/>
      <point x="404.1" y="640.0" type="curve"/>
      <point x="404.1" y="800.0" type="line"/>
    </contour>
  </outline>
</glyph>
<glyph name="six" format="2">
  <advance width="453.2"/>
  <unicode hex="0036"/>
  <outline>
    <contour>
      <point x="44.1" y="155.0" type="line"/>
      <point x="44.1" y="66.6936"/>
      <point x="115.7936" y="-5.0"/>
      <point x="204.1" y="-5.0" type="curve"/>
      <point x="204.1" y="155.0" type="line"/>
    </contour>
    <contour>
      <point x="44.1" y="155.0" type="line"/>
      <point x="204.1" y="155.0" type="line"/>
      <point x="204.1" y="200.0" type="line"/>
      <point x="44.1" y="200.0" type="line"/>
    </contour>
    <contour>
      <point x="44.1" y="200" type="line"/>
      <point x="204.1" y="200" type="line"/>
      <point x="204.1" y="400" type="line"/>
      <point x="44.1" y="400" type="line"/>
    </contour>
    <contour>
      <point x="44.1" y="400" type="line"/>
      <point x="204.1" y="400" type="line"/>
      <point x="204.1" y="600" type="line"/>
      <point x="44.1" y="600" type="line"/>
    </contour>
    <contour>
      <point x="204.1" y="805.0" type="line"/>
      <point x="115.7936" y="805.0"/>
      <point x="44.1" y="733.3064"/>
      <point x="44.1" y="645.0" type="curve"/>
      <point x="204.1" y="645.0" type="line"/>
    </contour>
    <contour>
      <point x="44.1" y="600" type="line"/>
      <point x="204.1" y="600" type="line"/>
      <point x="204.1" y="645.0" type="line"/>
      <point x="44.1" y="645.0" type="line"/>
    </contour>
    <contour>
      <point x="249.1" y="-5.0" type="line"/>
      <point x="337.4064" y="-5.0"/>
      <point x="409.1" y="66.6936"/>
      <point x="409.1" y="155.0" type="curve"/>
      <point x="249.1" y="155.0" type="line"/>
    </contour>
    <contour>
      <point x="249.1" y="155.0" type="line"/>
      <point x="409.1" y="155.0" type="line"/>
      <point x="409.1" y="200.0" type="line"/>
      <point x="249.1" y="200.0" type="line"/>
    </contour>
    <contour>
      <point x="249.1" y="200" type="line"/>
      <point x="409.1" y="200" type="line"/>
      <point x="409.1" y="300.0" type="line"/>
      <point x="249.1" y="300.0" type="line"/>
    </contour>
    <contour>
      <point x="409.1" y="340.0" type="line"/>
      <point x="409.1" y="428.3064"/>
      <point x="337.4064" y="500.0"/>
      <point x="249.1" y="500.0" type="curve"/>
      <point x="249.1" y="340.0" type="line"/>
    </contour>
    <contour>
      <point x="249.1" y="300.0" type="line"/>
      <point x="409.1" y="300.0" type="line"/>
      <point x="409.1" y="340.0" type="line"/>
      <point x="249.1" y="340.0" type="line"/>
    </contour>
    <contour>
      <point x="404.1" y="725.0" type="curve" smooth="yes"/>
      <point x="404.1" y="769.1532"/>
      <point x="368.25320000000005" y="805.0"/>
      <point x="324.1" y="805.0" type="curve" smooth="yes"/>
      <point x="279.9468" y="805.0"/>
      <point x="244.1" y="769.1532"/>
      <point x="244.1" y="725.0" type="curve" smooth="yes"/>
      <point x="244.1" y="680.8468"/>
      <point x="279.9468" y="645.0"/>
      <point x="324.1" y="645.0" type="curve" smooth="yes"/>
      <point x="368.25320000000005" y="645.0"/>
      <point x="404.1" y="680.8468"/>
    </contour>
  </outline>
</glyph>
<glyph name="eight" format="2">
  <advance width="453.2"/>
  <unicode hex="0038"/>
  <outline>
    <contour>
      <point x="44.1" y="155.0" type="line"/>
      <point x="44.1" y="66.6936"/>
      <point x="115.7936" y="-5.0"/>
      <point x="204.1" y="-5.0" type="curve"/>
      <point x="204.1" y="155.0" type="line"/>
    </contour>
    <contour>
      <point x="44.1" y="155.0" type="line"/>
      <point x="204.1" y="155.0" type="line"/>
      <point x="204.1" y="200.0" type="line"/>
      <point x="44.1" y="200.0" type="line"/>
    </contour>
    <contour>
      <point x="204.1" y="400.0" type="line"/>
      <point x="115.7936" y="400.0"/>
      <point x="44.1" y="328.3064"/>
      <point x="44.1" y="240.0" type="curve"/>
      <point x="204.1" y="240.0" type="line"/>
    </contour>
    <contour>
      <point x="44.1" y="200" type="line"/>
      <point x="204.1" y="200" type="line"/>
      <point x="204.1" y="240.0" type="line"/>
      <point x="44.1" y="240.0" type="line"/>
    </contour>
    <contour>
      <point x="44.1" y="560.0" type="line"/>
      <point x="44.1" y="471.6936"/>
      <point x="115.7936" y="400.0"/>
      <point x="204.1" y="400.0" type="curve"/>
      <point x="204.1" y="560.0" type="line"/>
    </contour>
    <contour>
      <point x="44.1" y="560.0" type="line"/>
      <point x="204.1" y="560.0" type="line"/>
      <point x="204.1" y="600.0" type="line"/>
      <point x="44.1" y="600.0" type="line"/>
    </contour>
    <contour>
      <point x="204.1" y="805.0" type="line"/>
      <point x="115.7936" y="805.0"/>
      <point x="44.1" y="733.3064"/>
      <point x="44.1" y="645.0" type="curve"/>
      <point x="204.1" y="645.0" type="line"/>
    </contour>
    <contour>
      <point x="44.1" y="600" type="line"/>
      <point x="204.1" y="600" type="line"/>
      <point x="204.1" y="645.0" type="line"/>
      <point x="44.1" y="645.0" type="line"/>
    </contour>
    <contour>
      <point x="249.1" y="-5.0" type="line"/>
      <point x="337.4064" y="-5.0"/>
      <point x="409.1" y="66.6936"/>
      <point x="409.1" y="155.0" type="curve"/>
      <point x="249.1" y="155.0" type="line"/>
    </contour>
    <contour>
      <point x="249.1" y="155.0" type="line"/>
      <point x="409.1" y="155.0" type="line"/>
      <point x="409.1" y="200.0" type="line"/>
      <point x="249.1" y="200.0" type="line"/>
    </contour>
    <contour>
      <point x="409.1" y="240.0" type="line"/>
      <point x="409.1" y="328.3064"/>
      <point x="337.4064" y="400.0"/>
      <point x="249.1" y="400.0" type="curve"/>
      <point x="249.1" y="240.0" type="line"/>
    </contour>
    <contour>
      <point x="249.1" y="200" type="line"/>
      <point x="409.1" y="200" type="line"/>
      <point x="409.1" y="240.0" type="line"/>
      <point x="249.1" y="240.0" type="line"/>
    </contour>
    <contour>
      <point x="249.1" y="400.0" type="line"/>
      <point x="337.4064" y="400.0"/>
      <point x="409.1" y="471.6936"/>
      <point x="409.1" y="560.0" type="curve"/>
      <point x="249.1" y="560.0" type="line"/>
    </contour>
    <contour>
      <point x="249.1" y="560.0" type="line"/>
      <point x="409.1" y="560.0" type="line"/>
      <point x="409.1" y="600.0" type="line"/>
      <point x="249.1" y="600.0" type="line"/>
    </contour>
    <contour>
      <point x="409.1" y="645.0" type="line"/>
      <point x="409.1" y="733.3064"/>
      <point x="337.4064" y="805.0"/>
      <point x="249.1" y="805.0" type="curve"/>
      <point x="249.1" y="645.0" type="line"/>
    </contour>
    <contour>
      <point x="249.1" y="600" type="line"/>
      <point x="409.1" y="600" type="line"/>
      <point x="409.1" y="645.0" type="line"/>
      <point x="249.1" y="645.0" type="line"/>
    </contour>
  </outline>
</glyph>
<glyph name="semicolon" format="2">
  <advance width="248.2"/>
  <unicode hex="003B"/>
  <outline>
    <contour>
      <point x="44.1" y="-100.0" type="line"/>
      <point x="132.4064" y="-100.0"/>
      <point x="204.1" y="-28.3064"/>
      <point x="204.1" y="60.0" type="curve"/>
      <point x="44.1" y="60.0" type="line"/>
    </contour>
    <contour>
      <point x="44.1" y="60.0" type="line"/>
      <point x="204.1" y="60.0" type="line"/>
      <point x="204.1" y="100.0" type="line"/>
      <point x="44.1" y="100.0" type="line"/>
    </contour>
    <contour>
      <point x="209.1" y="520.0" type="curve" smooth="yes"/>
      <point x="209.1" y="566.91278"/>
      <point x="171.01278" y="605.0"/>
      <point x="124.1" y="605.0" type="curve" smooth="yes"/>
      <point x="77.18722" y="605.0"/>
      <point x="39.1" y="566.91278"/>
      <point x="39.1" y="520.0" type="curve" smooth="yes"/>
      <point x="39.1" y="473.08722"/>
      <point x="77.18722" y="435.0"/>
      <point x="124.1" y="435.0" type="curve" smooth="yes"/>
      <point x="171.01278" y="435.0"/>
      <point x="209.1" y="473.08722"/>
    </contour>
  </outline>
</glyph>
<glyph name="equal" format="2">
  <advance width="658.2"/>
  <unicode hex="003D"/>
  <outline>
    <contour>
      <point x="89.1" y="190.0" type="line"/>
      <point x="249.1" y="190.0" type="line"/>
      <point x="249.1" y="350.0" type="line"/>
      <point x="89.1" y="350.0" type="line"/>
    </contour>
    <contour>
      <point x="89.1" y="450.0" type="line"/>
      <point x="249.1" y="450.0" type="line"/>
      <point x="249.1" y="610.0" type="line"/>
      <point x="89.1" y="610.0" type="line"/>
    </contour>
    <contour>
      <point x="249.1" y="190.0" type="line"/>
      <point x="409.1" y="190.0" type="line"/>
      <point x="409.1" y="350.0" type="line"/>
      <point x="249.1" y="350.0" type="line"/>
    </contour>
    <contour>
      <point x="249.1" y="450.0" type="line"/>
      <point x="409.1" y="450.0" type="line"/>
      <point x="409.1" y="610.0" type="line"/>
      <point x="249.1" y="610.0" type="line"/>
    </contour>
    <contour>
      <point x="409.1" y="190.0" type="line"/>
      <point x="569.1" y="190.0" type="line"/>
      <point x="569.1" y="350.0" type="line"/>
      <point x="409.1" y="350.0" type="line"/>
    </contour>
    <contour>
      <point x="409.1" y="450.0" type="line"/>
      <point x="569.1" y="450.0" type="line"/>
      <point x="569.1" y="610.0" type="line"/>
      <point x="409.1" y="610.0" type="line"/>
    </contour>
  </outline>
</glyph>
<glyph name="greater" format="2">
  <advance width="408.2"/>
  <unicode hex="003E"/>
  <outline>
    <contour>
      <point x="204.1" y="260.0" type="line"/>
      <point x="115.7936" y="260.0"/>
      <point x="44.1" y="188.3064"/>
      <point x="44.1" y="100.0" type="curve"/>
      <point x="204.1" y="100.0" type="line"/>
    </contour>
    <contour>
      <point x="44.1" y="700.0" type="line"/>
      <point x="44.1" y="611.6936"/>
      <point x="115.7936" y="540.0"/>
      <point x="204.1" y="540.0" type="curve"/>
      <point x="204.1" y="700.0" type="line"/>
    </contour>
    <contour>
      <point x="204.1" y="100.0" type="line"/>
      <point x="292.4064" y="100.0"/>
      <point x="364.1" y="171.6936"/>
      <point x="364.1" y="260.0" type="curve"/>
      <point x="204.1" y="260.0" type="line"/>
    </contour>
    <contour>
      <point x="204.1" y="260.0" type="line"/>
      <point x="364.1" y="260.0" type="line"/>
      <point x="364.1" y="300.0" type="line"/>
      <point x="204.1" y="300.0" type="line"/>
    </contour>
    <contour>
      <point x="204.1" y="300.0" type="line"/>
      <point x="364.1" y="300.0" type="line"/>
      <point x="364.1" y="500.0" type="line"/>
      <point x="204.1" y="500.0" type="line"/>
    </contour>
    <contour>
      <point x="364.1" y="540.0" type="line"/>
      <point x="364.1" y="628.3064"/>
      <point x="292.4064" y="700.0"/>
      <point x="204.1" y="700.0" type="curve"/>
      <point x="204.1" y="540.0" type="line"/>
    </contour>
    <contour>
      <point x="204.1" y="500.0" type="line"/>
      <point x="364.1" y="500.0" type="line"/>
      <point x="364.1" y="540.0" type="line"/>
      <point x="204.1" y="540.0" type="line"/>
    </contour>
  </outline>
</glyph>
<glyph name="question" format="2">
  <advance width="453.2"/>
  <unicode hex="003F"/>
  <outline>
    <contour>
      <point x="209.1" y="73.75" type="curve" smooth="yes"/>
      <point x="209.1" y="120.66278"/>
      <point x="171.01278" y="158.75"/>
      <point x="124.1" y="158.75" type="curve" smooth="yes"/>
      <point x="77.18722" y="158.75"/>
      <point x="39.1" y="120.66278"/>
      <point x="39.1" y="73.75" type="curve" smooth="yes"/>
      <point x="39.1" y="26.83722"/>
      <point x="77.18722" y="-11.25"/>
      <point x="124.1" y="-11.25" type="curve" smooth="yes"/>
      <point x="171.01278" y="-11.25"/>
      <point x="209.1" y="26.83722"/>
    </contour>
    <contour>
      <point x="44.1" y="204.16667" type="line"/>
      <point x="204.1" y="204.16667" type="line"/>
      <point x="204.1" y="400.0" type="line"/>
      <point x="44.1" y="400.0" type="line"/>
    </contour>
    <contour>
      <point x="204.1" y="560.0" type="line"/>
      <point x="115.7936" y="560.0"/>
      <point x="44.1" y="488.3064"/>
      <point x="44.1" y="400.0" type="curve"/>
      <point x="204.1" y="400.0" type="line"/>
    </contour>
    <contour>
      <point x="209.1" y="732.5" type="curve" smooth="yes"/>
      <point x="209.1" y="779.41278"/>
      <point x="171.01278" y="817.5"/>
      <point x="124.1" y="817.5" type="curve" smooth="yes"/>
      <point x="77.18722" y="817.5"/>
      <point x="39.1" y="779.41278"/>
      <point x="39.1" y="732.5" type="curve" smooth="yes"/>
      <point x="39.1" y="685.58722"/>
      <point x="77.18722" y="647.5"/>
      <point x="124.1" y="647.5" type="curve" smooth="yes"/>
      <point x="171.01278" y="647.5"/>
      <point x="209.1" y="685.58722"/>
    </contour>
    <contour>
      <point x="249.1" y="405.0" type="line"/>
      <point x="337.4064" y="405.0"/>
      <point x="409.1" y="476.6936"/>
      <point x="409.1" y="565.0" type="curve"/>
      <point x="249.1" y="565.0" type="line"/>
    </contour>
    <contour>
      <point x="249.1" y="565.0" type="line"/>
      <point x="409.1" y="565.0" type="line"/>
      <point x="409.1" y="605.0" type="line"/>
      <point x="249.1" y="605.0" type="line"/>
    </contour>
    <contour>
      <point x="409.1" y="645.0" type="line"/>
      <point x="409.1" y="733.3064"/>
      <point x="337.4064" y="805.0"/>
      <point x="249.1" y="805.0" type="curve"/>
      <point x="249.1" y="645.0" type="line"/>
    </contour>
    <contour>
      <point x="249.1" y="605.0" type="line"/>
      <point x="409.1" y="605.0" type="line"/>
      <point x="409.1" y="645.0" type="line"/>
      <point x="249.1" y="645.0" type="line"/>
    </contour>
  </outline>
</glyph>
<glyph name="at" format="2">
  <advance width="1016.5749000000001"/>
  <unicode hex="0040"/>
  <outline>
    <contour>
      <point x="315.78745000000004" y="360.0" type="curve"/>
      <point x="475.78745000000004" y="360.0" type="line"/>
      <point x="475.78745000000004" y="200.0" type="line"/>
      <point x="387.48105" y="200.0"/>
      <point x="315.78745000000004" y="271.6936"/>
    </contour>
    <contour>
      <point x="315.78745000000004" y="360.0" type="line"/>
      <point x="315.78745000000004" y="400.0" type="line"/>
      <point x="475.78745000000004" y="400.0" type="line"/>
      <point x="475.78745000000004" y="360.0" type="line"/>
    </contour>
    <contour>
      <point x="475.78745000000004" y="600.0" type="curve"/>
      <point x="475.78745000000004" y="440.0" type="line"/>
      <point x="315.78745000000004" y="440.0" type="line"/>
      <point x="315.78745000000004" y="528.3064"/>
      <point x="387.48105" y="600.0"/>
    </contour>
    <contour>
      <point x="315.78745000000004" y="400" type="line"/>
      <point x="315.78745000000004" y="440.0" type="line"/>
      <point x="475.78745000000004" y="440.0" type="line"/>
      <point x="475.78745000000004" y="400" type="line"/>
    </contour>
    <contour>
      <point x="520.78745" y="360.0" type="curve"/>
      <point x="680.78745" y="360.0" type="line"/>
      <point x="680.78745" y="200.0" type="line"/>
      <point x="592.48105" y="200.0"/>
      <point x="520.78745" y="271.6936"/>
    </contour>
    <contour>
      <point x="520.78745" y="360.0" type="line"/>
      <point x="520.78745" y="400.0" type="line"/>
      <point x="680.78745" y="400.0" type="line"/>
      <point x="680.78745" y="360.0" type="line"/>
    </contour>
    <contour>
      <point x="520.78745" y="400" type="line"/>
      <point x="520.78745" y="600" type="line"/>
      <point x="680.78745" y="600" type="line"/>
      <point x="680.78745" y="400" type="line"/>
    </contour>
    <contour>
      <point x="892.4749" y="400.0" type="curve" smooth="yes"/>
      <point x="892.4749" y="612.03883"/>
      <point x="720.3262800000001" y="784.18745"/>
      <point x="508.28745000000004" y="784.18745" type="curve" smooth="yes"/>
      <point x="296.24862" y="784.18745"/>
      <point x="124.1" y="612.03883"/>
      <point x="124.1" y="400.0" type="curve" smooth="yes"/>
      <point x="124.1" y="187.96117"/>
      <point x="296.24862" y="15.81255"/>
      <point x="508.28745000000004" y="15.81255" type="curve" smooth="yes"/>
      <point x="720.3262800000001" y="15.81255"/>
      <point x="892.4749" y="187.96117"/>
    </contour>
  </outline>
</glyph>
<glyph name="A" format="2">
  <advance width="453.2"/>
  <unicode hex="0041"/>
  <outline>
    <contour>
      <point x="44.1" y="0" type="line"/>
      <point x="204.1" y="0" type="line"/>
      <point x="204.1" y="200" type="line"/>
      <point x="44.1" y="200" type="line"/>
    </contour>
    <contour>
      <point x="44.1" y="200" type="line"/>
      <point x="204.1" y="200" type="line"/>
      <point x="204.1" y="400" type="line"/>
      <point x="44.1" y="400" type="line"/>
    </contour>
    <contour>
      <point x="44.1" y="400" type="line"/>
      <point x="204.1" y="400" type="line"/>
      <point x="204.1" y="605.0" type="line"/>
      <point x="44.1" y="605.0" type="line"/>
    </contour>
    <contour>
      <point x="204.1" y="805.0" type="line"/>
      <point x="115.7936" y="805.0"/>
      <point x="44.1" y="733.3064"/>
      <point x="44.1" y="645.0" type="curve"/>
      <point x="204.1" y="645.0" type="line"/>
    </contour>
    <contour>
      <point x="44.1" y="605.0" type="line"/>
      <point x="204.1" y="605.0" type="line"/>
      <point x="204.1" y="645.0" type="line"/>
      <point x="44.1" y="645.0" type="line"/>
    </contour>
    <contour>
      <point x="249.1" y="0" type="line"/>
      <point x="409.1" y="0" type="line"/>
      <point x="409.1" y="200" type="line"/>
      <point x="249.1" y="200" type="line"/>
    </contour>
    <contour>
      <point x="249.1" y="200" type="line"/>
      <point x="409.1" y="200" type="line"/>
      <point x="409.1" y="400" type="line"/>
      <point x="249.1" y="400" type="line"/>
    </contour>
    <contour>
      <point x="249.1" y="400" type="line"/>
      <point x="409.1" y="400" type="line"/>
      <point x="409.1" y="605.0" type="line"/>
      <point x="249.1" y="605.0" type="line"/>
    </contour>
    <contour>
      <point x="409.1" y="645.0" type="line"/>
      <point x="409.1" y="733.3064"/>
      <point x="337.4064" y="805.0"/>
      <point x="249.1" y="805.0" type="curve"/>
      <point x="249.1" y="645.0" type="line"/>
    </contour>
    <contour>
      <point x="249.1" y="605.0" type="line"/>
      <point x="409.1" y="605.0" type="line"/>
      <point x="409.1" y="645.0" type="line"/>
      <point x="249.1" y="645.0" type="line"/>
    </contour>
  </outline>
</glyph>
<glyph name="C" format="2">
  <advance width="453.2"/>
  <unicode hex="0043"/>
  <outline>
    <contour>
      <point x="44.1" y="160.0" type="line"/>
      <point x="44.1" y="71.6936"/>
      <point x="115.7936" y="0.0"/>
      <point x="204.1" y="0.0" type="curve"/>
      <point x="204.1" y="160.0" type="line"/>
    </contour>
    <contour>
      <point x="44.1" y="160.0" type="line"/>
      <point x="204.1" y="160.0" type="line"/>
      <point x="204.1" y="200.0" type="line"/>
      <point x="44.1" y="200.0" type="line"/>
    </contour>
    <contour>
      <point x="44.1" y="200" type="line"/>
      <point x="204.1" y="200" type="line"/>
      <point x="204.1" y="400" type="line"/>
      <point x="44.1" y="400" type="line"/>
    </contour>
    <contour>
      <point x="44.1" y="400" type="line"/>
      <point x="204.1" y="400" type="line"/>
      <point x="204.1" y="600" type="line"/>
      <point x="44.1" y="600" type="line"/>
    </contour>
    <contour>
      <point x="204.1" y="800.0" type="line"/>
      <point x="115.7936" y="800.0"/>
      <point x="44.1" y="728.3064"/>
      <point x="44.1" y="640.0" type="curve"/>
      <point x="204.1" y="640.0" type="line"/>
    </contour>
    <contour>
      <point x="44.1" y="600" type="line"/>
      <point x="204.1" y="600" type="line"/>
      <point x="204.1" y="640.0" type="line"/>
      <point x="44.1" y="640.0" type="line"/>
    </contour>
    <contour>
      <point x="409.1" y="160.0" type="line"/>
      <point x="320.7936" y="160.0"/>
      <point x="249.1" y="88.3064"/>
      <point x="249.1" y="0.0" type="curve"/>
      <point x="409.1" y="0.0" type="line"/>
    </contour>
    <contour>
      <point x="249.1" y="600.0" type="line"/>
      <point x="249.1" y="511.6936"/>
      <point x="320.7936" y="440.0"/>
      <point x="409.1" y="440.0" type="curve"/>
      <point x="409.1" y="600.0" type="line"/>
    </contour>
    <contour>
      <point x="249.1" y="600" type="line"/>
      <point x="409.1" y="600" type="line"/>
      <point x="409.1" y="800" type="line"/>
      <point x="249.1" y="800" type="line"/>
    </contour>
  </outline>
</glyph>
<glyph name="F" format="2">
  <advance width="453.2"/>
  <unicode hex="0046"/>
  <outline>
    <contour>
      <point x="44.1" y="0" type="line"/>
      <point x="204.1" y="0" type="line"/>
      <point x="204.1" y="200" type="line"/>
      <point x="44.1" y="200" type="line"/>
    </contour>
    <contour>
      <point x="44.1" y="200" type="line"/>
      <point x="204.1" y="200" type="line"/>
      <point x="204.1" y="400" type="line"/>
      <point x="44.1" y="400" type="line"/>
    </contour>
    <contour>
      <point x="44.1" y="400" type="line"/>
      <point x="204.1" y="400" type="line"/>
      <point x="204.1" y="600" type="line"/>
      <point x="44.1" y="600" type="line"/>
    </contour>
    <contour>
      <point x="44.1" y="600" type="line"/>
      <point x="204.1" y="600" type="line"/>
      <point x="204.1" y="800" type="line"/>
      <point x="44.1" y="800" type="line"/>
    </contour>
    <contour>
      <point x="249.1" y="480.0" type="line"/>
      <point x="249.1" y="391.6936"/>
      <point x="320.7936" y="320.0"/>
      <point x="409.1" y="320.0" type="curve"/>
      <point x="409.1" y="480.0" type="line"/>
    </contour>
    <contour>
      <point x="249.1" y="800.0" type="line"/>
      <point x="249.1" y="711.6936"/>
      <point x="320.7936" y="640.0"/>
      <point x="409.1" y="640.0" type="curve"/>
      <point x="409.1" y="800.0" type="line"/>
    </contour>
  </outline>
</glyph>
<glyph name="H" format="2">
  <advance width="658.2"/>
  <unicode hex="0048"/>
  <outline>
    <contour>
      <point x="44.1" y="0" type="line"/>
      <point x="204.1" y="0" type="line"/>
      <point x="204.1" y="200" type="line"/>
      <point x="44.1" y="200" type="line"/>
    </contour>
    <contour>
      <point x="44.1" y="200" type="line"/>
      <point x="204.1" y="200" type="line"/>
      <point x="204.1" y="400" type="line"/>
      <point x="44.1" y="400" type="line"/>
    </contour>
    <contour>
      <point x="44.1" y="400" type="line"/>
      <point x="204.1" y="400" type="line"/>
      <point x="204.1" y="600" type="line"/>
      <point x="44.1" y="600" type="line"/>
    </contour>
    <contour>
      <point x="44.1" y="600" type="line"/>
      <point x="204.1" y="600" type="line"/>
      <point x="204.1" y="800" type="line"/>
      <point x="44.1" y="800" type="line"/>
    </contour>
    <contour>
      <point x="249.1" y="480.0" type="line"/>
      <point x="249.1" y="391.6936"/>
      <point x="320.7936" y="320.0"/>
      <point x="409.1" y="320.0" type="curve"/>
      <point x="409.1" y="480.0" type="line"/>
    </contour>
    <contour>
      <point x="454.1" y="0" type="line"/>
      <point x="614.1" y="0" type="line"/>
      <point x="614.1" y="200" type="line"/>
      <point x="454.1" y="200" type="line"/>
    </contour>
    <contour>
      <point x="454.1" y="200" type="line"/>
      <point x="614.1" y="200" type="line"/>
      <point x="614.1" y="400" type="line"/>
      <point x="454.1" y="400" type="line"/>
    </contour>
    <contour>
      <point x="454.1" y="400" type="line"/>
      <point x="614.1" y="400" type="line"/>
      <point x="614.1" y="600" type="line"/>
      <point x="454.1" y="600" type="line"/>
    </contour>
    <contour>
      <point x="454.1" y="600" type="line"/>
      <point x="614.1" y="600" type="line"/>
      <point x="614.1" y="800" type="line"/>
      <point x="454.1" y="800" type="line"/>
    </contour>
  </outline>
</glyph>
<glyph name="I" format="2">
  <advance width="248.2"/>
  <unicode hex="0049"/>
  <outline>
    <contour>
      <point x="44.1" y="0" type="line"/>
      <point x="204.1" y="0" type="line"/>
      <point x="204.1" y="200" type="line"/>
      <point x="44.1" y="200" type="line"/>
    </contour>
    <contour>
      <point x="44.1" y="200" type="line"/>
      <point x="204.1" y="200" type="line"/>
      <point x="204.1" y="400" type="line"/>
      <point x="44.1" y="400" type="line"/>
    </contour>
    <contour>
      <point x="44.1" y="400" type="line"/>
      <point x="204.1" y="400" type="line"/>
      <point x="204.1" y="600" type="line"/>
      <point x="44.1" y="600" type="line"/>
    </contour>
    <contour>
      <point x="44.1" y="600" type="line"/>
      <point x="204.1" y="600" type="line"/>
      <point x="204.1" y="800" type="line"/>
      <point x="44.1" y="800" type="line"/>
    </contour>
  </outline>
</glyph>
<glyph name="J" format="2">
  <advance width="453.2"/>
  <unicode hex="004A"/>
  <outline>
    <contour>
      <point x="209.1" y="75.0" type="curve" smooth="yes"/>
      <point x="209.1" y="121.91278"/>
      <point x="171.01278" y="160.0"/>
      <point x="124.1" y="160.0" type="curve" smooth="yes"/>
      <point x="77.18722" y="160.0"/>
      <point x="39.1" y="121.91278"/>
      <point x="39.1" y="75.0" type="curve" smooth="yes"/>
      <point x="39.1" y="28.08722"/>
      <point x="77.18722" y="-10.0"/>
      <point x="124.1" y="-10.0" type="curve" smooth="yes"/>
      <point x="171.01278" y="-10.0"/>
      <point x="209.1" y="28.08722"/>
    </contour>
    <contour>
      <point x="249.1" y="-5.0" type="line"/>
      <point x="337.4064" y="-5.0"/>
      <point x="409.1" y="66.6936"/>
      <point x="409.1" y="155.0" type="curve"/>
      <point x="249.1" y="155.0" type="line"/>
    </contour>
    <contour>
      <point x="249.1" y="155.0" type="line"/>
      <point x="409.1" y="155.0" type="line"/>
      <point x="409.1" y="195.0" type="line"/>
      <point x="249.1" y="195.0" type="line"/>
    </contour>
    <contour>
      <point x="249.1" y="195.0" type="line"/>
      <point x="409.1" y="195.0" type="line"/>
      <point x="409.1" y="400.0" type="line"/>
      <point x="249.1" y="400.0" type="line"/>
    </contour>
    <contour>
      <point x="249.1" y="400" type="line"/>
      <point x="409.1" y="400" type="line"/>
      <point x="409.1" y="600" type="line"/>
      <point x="249.1" y="600" type="line"/>
    </contour>
    <contour>
      <point x="249.1" y="600" type="line"/>
      <point x="409.1" y="600" type="line"/>
      <point x="409.1" y="800" type="line"/>
      <point x="249.1" y="800" type="line"/>
    </contour>
  </outline>
</glyph>
<glyph name="L" format="2">
  <advance width="453.2"/>
  <unicode hex="004C"/>
  <outline>
    <contour>
      <point x="44.1" y="0" type="line"/>
      <point x="204.1" y="0" type="line"/>
      <point x="204.1" y="200" type="line"/>
      <point x="44.1" y="200" type="line"/>
    </contour>
    <contour>
      <point x="44.1" y="200" type="line"/>
      <point x="204.1" y="200" type="line"/>
      <point x="204.1" y="400" type="line"/>
      <point x="44.1" y="400" type="line"/>
    </contour>
    <contour>
      <point x="44.1" y="400" type="line"/>
      <point x="204.1" y="400" type="line"/>
      <point x="204.1" y="600" type="line"/>
      <point x="44.1" y="600" type="line"/>
    </contour>
    <contour>
      <point x="44.1" y="600" type="line"/>
      <point x="204.1" y="600" type="line"/>
      <point x="204.1" y="800" type="line"/>
      <point x="44.1" y="800" type="line"/>
    </contour>
    <contour>
      <point x="409.1" y="160.0" type="line"/>
      <point x="320.7936" y="160.0"/>
      <point x="249.1" y="88.3064"/>
      <point x="249.1" y="0.0" type="curve"/>
      <point x="409.1" y="0.0" type="line"/>
    </contour>
  </outline>
</glyph>
<glyph name="P" format="2">
  <advance width="453.2"/>
  <unicode hex="0050"/>
  <outline>
    <contour>
      <point x="44.1" y="0" type="line"/>
      <point x="204.1" y="0" type="line"/>
      <point x="204.1" y="200" type="line"/>
      <point x="44.1" y="200" type="line"/>
    </contour>
    <contour>
      <point x="44.1" y="200" type="line"/>
      <point x="204.1" y="200" type="line"/>
      <point x="204.1" y="400" type="line"/>
      <point x="44.1" y="400" type="line"/>
    </contour>
    <contour>
      <point x="44.1" y="400" type="line"/>
      <point x="204.1" y="400" type="line"/>
      <point x="204.1" y="600" type="line"/>
      <point x="44.1" y="600" type="line"/>
    </contour>
    <contour>
      <point x="44.1" y="600" type="line"/>
      <point x="204.1" y="600" type="line"/>
      <point x="204.1" y="800" type="line"/>
      <point x="44.1" y="800" type="line"/>
    </contour>
    <contour>
      <point x="249.1" y="200.0" type="line"/>
      <point x="337.4064" y="200.0"/>
      <point x="409.1" y="271.6936"/>
      <point x="409.1" y="360.0" type="curve"/>
      <point x="249.1" y="360.0" type="line"/>
    </contour>
    <contour>
      <point x="249.1" y="360.0" type="line"/>
      <point x="409.1" y="360.0" type="line"/>
      <point x="409.1" y="400.0" type="line"/>
      <point x="249.1" y="400.0" type="line"/>
    </contour>
    <contour>
      <point x="249.1" y="400" type="line"/>
      <point x="409.1" y="400" type="line"/>
      <point x="409.1" y="600" type="line"/>
      <point x="249.1" y="600" type="line"/>
    </contour>
    <contour>
      <point x="409.1" y="640.0" type="line"/>
      <point x="409.1" y="728.3064"/>
      <point x="337.4064" y="800.0"/>
      <point x="249.1" y="800.0" type="curve"/>
      <point x="249.1" y="640.0" type="line"/>
    </contour>
    <contour>
      <point x="249.1" y="600" type="line"/>
      <point x="409.1" y="600" type="line"/>
      <point x="409.1" y="640.0" type="line"/>
      <point x="249.1" y="640.0" type="line"/>
    </contour>
  </outline>
</glyph>
<glyph name="Q" format="2">
  <advance width="453.2"/>
  <unicode hex="0051"/>
  <outline>
    <contour>
      <point x="44.1" y="155.0" type="line"/>
      <point x="44.1" y="66.6936"/>
      <point x="115.7936" y="-5.0"/>
      <point x="204.1" y="-5.0" type="curve"/>
      <point x="204.1" y="155.0" type="line"/>
    </contour>
    <contour>
      <point x="44.1" y="155.0" type="line"/>
      <point x="204.1" y="155.0" type="line"/>
      <point x="204.1" y="195.0" type="line"/>
      <point x="44.1" y="195.0" type="line"/>
    </contour>
    <contour>
      <point x="44.1" y="195.0" type="line"/>
      <point x="204.1" y="195.0" type="line"/>
      <point x="204.1" y="400.0" type="line"/>
      <point x="44.1" y="400.0" type="line"/>
    </contour>
    <contour>
      <point x="44.1" y="400" type="line"/>
      <point x="204.1" y="400" type="line"/>
      <point x="204.1" y="605.0" type="line"/>
      <point x="44.1" y="605.0" type="line"/>
    </contour>
    <contour>
      <point x="204.1" y="805.0" type="line"/>
      <point x="115.7936" y="805.0"/>
      <point x="44.1" y="733.3064"/>
      <point x="44.1" y="645.0" type="curve"/>
      <point x="204.1" y="645.0" type="line"/>
    </contour>
    <contour>
      <point x="44.1" y="605.0" type="line"/>
      <point x="204.1" y="605.0" type="line"/>
      <point x="204.1" y="645.0" type="line"/>
      <point x="44.1" y="645.0" type="line"/>
    </contour>
    <contour>
      <point x="249.1" y="0.0" type="line"/>
      <point x="249.1" y="-88.3064"/>
      <point x="320.7936" y="-160.0"/>
      <point x="409.1" y="-160.0" type="curve"/>
      <point x="409.1" y="0.0" type="line"/>
    </contour>
    <contour>
      <point x="249.1" y="-5.0" type="line"/>
      <point x="337.4064" y="-5.0"/>
      <point x="409.1" y="66.6936"/>
      <point x="409.1" y="155.0" type="curve"/>
      <point x="249.1" y="155.0" type="line"/>
    </contour>
    <contour>
      <point x="249.1" y="155.0" type="line"/>
      <point x="409.1" y="155.0" type="line"/>
      <point x="409.1" y="195.0" type="line"/>
      <point x="249.1" y="195.0" type="line"/>
    </contour>
    <contour>
      <point x="249.1" y="195.0" type="line"/>
      <point x="409.1" y="195.0" type="line"/>
      <point x="409.1" y="400.0" type="line"/>
      <point x="249.1" y="400.0" type="line"/>
    </contour>
    <contour>
      <point x="249.1" y="400" type="line"/>
      <point x="409.1" y="400" type="line"/>
      <point x="409.1" y="605.0" type="line"/>
      <point x="249.1" y="605.0" type="line"/>
    </contour>
    <contour>
      <point x="409.1" y="645.0" type="line"/>
      <point x="409.1" y="733.3064"/>
      <point x="337.4064" y="805.0"/>
      <point x="249.1" y="805.0" type="curve"/>
      <point x="249.1" y="645.0" type="line"/>
    </contour>
    <contour>
      <point x="249.1" y="605.0" type="line"/>
      <point x="409.1" y="605.0" type="line"/>
      <point x="409.1" y="645.0" type="line"/>
      <point x="249.1" y="645.0" type="line"/>
    </contour>
  </outline>
</glyph>
<glyph name="R" format="2">
  <advance width="453.2"/>
  <unicode hex="0052"/>
  <outline>
    <contour>
      <point x="44.1" y="0" type="line"/>
      <point x="204.1" y="0" type="line"/>
      <point x="204.1" y="200" type="line"/>
      <point x="44.1" y="200" type="line"/>
    </contour>
    <contour>
      <point x="44.1" y="200" type="line"/>
      <point x="204.1" y="200" type="line"/>
      <point x="204.1" y="400" type="line"/>
      <point x="44.1" y="400" type="line"/>
    </contour>
    <contour>
      <point x="44.1" y="400" type="line"/>
      <point x="204.1" y="400" type="line"/>
      <point x="204.1" y="600" type="line"/>
      <point x="44.1" y="600" type="line"/>
    </contour>
    <contour>
      <point x="44.1" y="600" type="line"/>
      <point x="204.1" y="600" type="line"/>
      <point x="204.1" y="800" type="line"/>
      <point x="44.1" y="800" type="line"/>
    </contour>
    <contour>
      <point x="409.1" y="40.0" type="line"/>
      <point x="409.1" y="128.3064"/>
      <point x="337.4064" y="200.0"/>
      <point x="249.1" y="200.0" type="curve"/>
      <point x="249.1" y="40.0" type="line"/>
    </contour>
    <contour>
      <point x="249.1" y="0" type="line"/>
      <point x="409.1" y="0" type="line"/>
      <point x="409.1" y="40.0" type="line"/>
      <point x="249.1" y="40.0" type="line"/>
    </contour>
    <contour>
      <point x="249.1" y="200.0" type="line"/>
      <point x="337.4064" y="200.0"/>
      <point x="409.1" y="271.6936"/>
      <point x="409.1" y="360.0" type="curve"/>
      <point x="249.1" y="360.0" type="line"/>
    </contour>
    <contour>
      <point x="249.1" y="360.0" type="line"/>
      <point x="409.1" y="360.0" type="line"/>
      <point x="409.1" y="400.0" type="line"/>
      <point x="249.1" y="400.0" type="line"/>
    </contour>
    <contour>
      <point x="249.1" y="400" type="line"/>
      <point x="409.1" y="400" type="line"/>
      <point x="409.1" y="600" type="line"/>
      <point x="249.1" y="600" type="line"/>
    </contour>
    <contour>
      <point x="409.1" y="640.0" type="line"/>
      <point x="409.1" y="728.3064"/>
      <point x="337.4064" y="800.0"/>
      <point x="249.1" y="800.0" type="curve"/>
      <point x="249.1" y="640.0" type="line"/>
    </contour>
    <contour>
      <point x="249.1" y="600" type="line"/>
      <point x="409.1" y="600" type="line"/>
      <point x="409.1" y="640.0" type="line"/>
      <point x="249.1" y="640.0" type="line"/>
    </contour>
  </outline>
</glyph>
<glyph name="T" format="2">
  <advance width="658.2"/>
  <unicode hex="0054"/>
  <outline>
    <contour>
      <point x="44.1" y="640.0" type="line"/>
      <point x="132.4064" y="640.0"/>
      <point x="204.1" y="711.6936"/>
      <point x="204.1" y="800.0" type="curve"/>
      <point x="44.1" y="800.0" type="line"/>
    </contour>
    <contour>
      <point x="249.1" y="0" type="line"/>
      <point x="409.1" y="0" type="line"/>
      <point x="409.1" y="200" type="line"/>
      <point x="249.1" y="200" type="line"/>
    </contour>
    <contour>
      <point x="249.1" y="200" type="line"/>
      <point x="409.1" y="200" type="line"/>
      <point x="409.1" y="400" type="line"/>
      <point x="249.1" y="400" type="line"/>
    </contour>
    <contour>
      <point x="249.1" y="400" type="line"/>
      <point x="409.1" y="400" type="line"/>
      <point x="409.1" y="600" type="line"/>
      <point x="249.1" y="600" type="line"/>
    </contour>
    <contour>
      <point x="249.1" y="600" type="line"/>
      <point x="409.1" y="600" type="line"/>
      <point x="409.1" y="800" type="line"/>
      <point x="249.1" y="800" type="line"/>
    </contour>
    <contour>
      <point x="454.1" y="800.0" type="line"/>
      <point x="454.1" y="711.6936"/>
      <point x="525.7936" y="640.0"/>
      <point x="614.1" y="640.0" type="curve"/>
      <point x="614.1" y="800.0" type="line"/>
    </contour>
  </outline>
</glyph>
<glyph name="Y" format="2">
  <advance width="453.2"/>
  <unicode hex="0059"/>
  <outline>
    <contour>
      <point x="214.1" y="70.0" type="curve" smooth="yes"/>
      <point x="214.1" y="116.91278"/>
      <point x="176.01278" y="155.0"/>
      <point x="129.1" y="155.0" type="curve" smooth="yes"/>
      <point x="82.18722" y="155.0"/>
      <point x="44.1" y="116.91278"/>
      <point x="44.1" y="70.0" type="curve" smooth="yes"/>
      <point x="44.1" y="23.08722"/>
      <point x="82.18722" y="-15.0"/>
      <point x="129.1" y="-15.0" type="curve" smooth="yes"/>
      <point x="176.01278" y="-15.0"/>
      <point x="214.1" y="23.08722"/>
    </contour>
    <contour>
      <point x="44.1" y="360.0" type="line"/>
      <point x="44.1" y="271.6936"/>
      <point x="115.7936" y="200.0"/>
      <point x="204.1" y="200.0" type="curve"/>
      <point x="204.1" y="360.0" type="line"/>
    </contour>
    <contour>
      <point x="44.1" y="360.0" type="line"/>
      <point x="204.1" y="360.0" type="line"/>
      <point x="204.1" y="400.0" type="line"/>
      <point x="44.1" y="400.0" type="line"/>
    </contour>
    <contour>
      <point x="44.1" y="400" type="line"/>
      <point x="204.1" y="400" type="line"/>
      <point x="204.1" y="605.0" type="line"/>
      <point x="44.1" y="605.0" type="line"/>
    </contour>
    <contour>
      <point x="204.1" y="645.0" type="line"/>
      <point x="204.1" y="733.3064"/>
      <point x="132.4064" y="805.0"/>
      <point x="44.1" y="805.0" type="curve"/>
      <point x="44.1" y="645.0" type="line"/>
    </contour>
    <contour>
      <point x="44.1" y="605.0" type="line"/>
      <point x="204.1" y="605.0" type="line"/>
      <point x="204.1" y="645.0" type="line"/>
      <point x="44.1" y="645.0" type="line"/>
    </contour>
    <contour>
      <point x="249.1" y="-5.0" type="line"/>
      <point x="337.4064" y="-5.0"/>
      <point x="409.1" y="66.6936"/>
      <point x="409.1" y="155.0" type="curve"/>
      <point x="249.1" y="155.0" type="line"/>
    </contour>
    <contour>
      <point x="249.1" y="155.0" type="line"/>
      <point x="409.1" y="155.0" type="line"/>
      <point x="409.1" y="195.0" type="line"/>
      <point x="249.1" y="195.0" type="line"/>
    </contour>
    <contour>
      <point x="249.1" y="195.0" type="line"/>
      <point x="409.1" y="195.0" type="line"/>
      <point x="409.1" y="400.0" type="line"/>
      <point x="249.1" y="400.0" type="line"/>
    </contour>
    <contour>
      <point x="249.1" y="400" type="line"/>
      <point x="409.1" y="400" type="line"/>
      <point x="409.1" y="600" type="line"/>
      <point x="249.1" y="600" type="line"/>
    </contour>
    <contour>
      <point x="249.1" y="600" type="line"/>
      <point x="409.1" y="600" type="line"/>
      <point x="409.1" y="800" type="line"/>
      <point x="249.1" y="800" type="line"/>
    </contour>
  </outline>
</glyph>
<glyph name="bracketleft" format="2">
  <advance width="408.2"/>
  <unicode hex="005B"/>
  <outline>
    <contour>
      <point x="44.1" y="-100.0" type="line"/>
      <point x="204.1" y="-100.0" type="line"/>
      <point x="204.1" y="100.0" type="line"/>
      <point x="44.1" y="100.0" type="line"/>
    </contour>
    <contour>
      <point x="44.1" y="100.0" type="line"/>
      <point x="204.1" y="100.0" type="line"/>
      <point x="204.1" y="300.0" type="line"/>
      <point x="44.1" y="300.0" type="line"/>
    </contour>
    <contour>
      <point x="44.1" y="300.0" type="line"/>
      <point x="204.1" y="300.0" type="line"/>
      <point x="204.1" y="500.0" type="line"/>
      <point x="44.1" y="500.0" type="line"/>
    </contour>
    <contour>
      <point x="44.1" y="500.0" type="line"/>
      <point x="204.1" y="500.0" type="line"/>
      <point x="204.1" y="700.0" type="line"/>
      <point x="44.1" y="700.0" type="line"/>
    </contour>
    <contour>
      <point x="44.1" y="700.0" type="line"/>
      <point x="204.1" y="700.0" type="line"/>
      <point x="204.1" y="900.0" type="line"/>
      <point x="44.1" y="900.0" type="line"/>
    </contour>
    <contour>
      <point x="364.1" y="-100.0" type="line"/>
      <point x="364.1" y="-11.6936"/>
      <point x="292.4064" y="60.0"/>
      <point x="204.1" y="60.0" type="curve"/>
      <point x="204.1" y="-100.0" type="line"/>
    </contour>
    <contour>
      <point x="204.1" y="740.0" type="line"/>
      <point x="292.4064" y="740.0"/>
      <point x="364.1" y="811.6936"/>
      <point x="364.1" y="900.0" type="curve"/>
      <point x="204.1" y="900.0" type="line"/>
    </contour>
  </outline>
</glyph>
<glyph name="bracketright" format="2">
  <advance width="408.2"/>
  <unicode hex="005D"/>
  <outline>
    <contour>
      <point x="204.1" y="60.0" type="line"/>
      <point x="115.7936" y="60.0"/>
      <point x="44.1" y="-11.6936"/>
      <point x="44.1" y="-100.0" type="curve"/>
      <point x="204.1" y="-100.0" type="line"/>
    </contour>
    <contour>
      <point x="44.1" y="900.0" type="line"/>
      <point x="44.1" y="811.6936"/>
      <point x="115.7936" y="740.0"/>
      <point x="204.1" y="740.0" type="curve"/>
      <point x="204.1" y="900.0" type="line"/>
    </contour>
    <contour>
      <point x="204.1" y="-100.0" type="line"/>
      <point x="364.1" y="-100.0" type="line"/>
      <point x="364.1" y="100.0" type="line"/>
      <point x="204.1" y="100.0" type="line"/>
    </contour>
    <contour>
      <point x="204.1" y="100.0" type="line"/>
      <point x="364.1" y="100.0" type="line"/>
      <point x="364.1" y="300.0" type="line"/>
      <point x="204.1" y="300.0" type="line"/>
    </contour>
    <contour>
      <point x="204.1" y="300.0" type="line"/>
      <point x="364.1" y="300.0" type="line"/>
      <point x="364.1" y="500.0" type="line"/>
      <point x="204.1" y="500.0" type="line"/>
    </contour>
    <contour>
      <point x="204.1" y="500.0" type="line"/>
      <point x="364.1" y="500.0" type="line"/>
      <point x="364.1" y="700.0" type="line"/>
      <point x="204.1" y="700.0" type="line"/>
    </contour>
    <contour>
      <point x="204.1" y="700.0" type="line"/>
      <point x="364.1" y="700.0" type="line"/>
      <point x="364.1" y="900.0" type="line"/>
      <point x="204.1" y="900.0" type="line"/>
    </contour>
  </outline>
</glyph>
<glyph name="asciicircum" format="2">
  <advance width="408.2"/>
  <unicode hex="005E"/>
  <outline>
    <contour>
      <point x="44.1" y="700.0" type="line"/>
      <point x="132.4064" y="700.0"/>
      <point x="204.1" y="771.6936"/>
      <point x="204.1" y="860.0" type="curve"/>
      <point x="44.1" y="860.0" type="line"/>
    </contour>
    <contour>
      <point x="204.1" y="860.0" type="line"/>
      <point x="204.1" y="771.6936"/>
      <point x="275.7936" y="700.0"/>
      <point x="364.1" y="700.0" type="curve"/>
      <point x="364.1" y="860.0" type="line"/>
    </contour>
  </outline>
</glyph>
<glyph name="underscore" format="2">
  <advance width="453.2"/>
  <unicode hex="005F"/>
  <outline>
    <contour>
      <point x="44.1" y="-180.0" type="line"/>
      <point x="204.1" y="-180.0" type="line"/>
      <point x="204.1" y="-20.0" type="line"/>
      <point x="44.1" y="-20.0" type="line"/>
    </contour>
    <contour>
      <point x="204.1" y="-180.0" type="line"/>
      <point x="249.1" y="-180.0" type="line"/>
      <point x="249.1" y="-20.0" type="line"/>
      <point x="204.1" y="-20.0" type="line"/>
    </contour>
    <contour>
      <point x="249.1" y="-180.0" type="line"/>
      <point x="409.1" y="-180.0" type="line"/>
      <point x="409.1" y="-20.0" type="line"/>
      <point x="249.1" y="-20.0" type="line"/>
    </contour>
  </outline>
</glyph>
<glyph name="grave" format="2">
  <advance width="248.2"/>
  <unicode hex="0060"/>
  <outline>
    <contour>
      <point x="-25.9" y="960.0" type="line"/>
      <point x="-25.9" y="871.6936000000001"/>
      <point x="45.7936" y="800.0"/>
      <point x="134.1" y="800.0" type="curve"/>
      <point x="134.1" y="960.0" type="line"/>
    </contour>
  </outline>
</glyph>
<glyph name="b" format="2">
  <advance width="453.2"/>
  <unicode hex="0062"/>
  <outline>
    <contour>
      <point x="44.1" y="0" type="line"/>
      <point x="204.1" y="0" type="line"/>
      <point x="204.1" y="200" type="line"/>
      <point x="44.1" y="200" type="line"/>
    </contour>
    <contour>
      <point x="44.1" y="200" type="line"/>
      <point x="204.1" y="200" type="line"/>
      <point x="204.1" y="400" type="line"/>
      <point x="44.1" y="400" type="line"/>
    </contour>
    <contour>
      <point x="44.1" y="400" type="line"/>
      <point x="204.1" y="400" type="line"/>
      <point x="204.1" y="600" type="line"/>
      <point x="44.1" y="600" type="line"/>
    </contour>
    <contour>
      <point x="44.1" y="600" type="line"/>
      <point x="204.1" y="600" type="line"/>
      <point x="204.1" y="800" type="line"/>
      <point x="44.1" y="800" type="line"/>
    </contour>
    <contour>
      <point x="249.1" y="0.0" type="line"/>
      <point x="337.4064" y="0.0"/>
      <point x="409.1" y="71.6936"/>
      <point x="409.1" y="160.0" type="curve"/>
      <point x="249.1" y="160.0" type="line"/>
    </contour>
    <contour>
      <point x="249.1" y="160.0" type="line"/>
      <point x="409.1" y="160.0" type="line"/>
      <point x="409.1" y="200.0" type="line"/>
      <point x="249.1" y="200.0" type="line"/>
    </contour>
    <contour>
      <point x="249.1" y="200" type="line"/>
      <point x="409.1" y="200" type="line"/>
      <point x="409.1" y="405.0" type="line"/>
      <point x="249.1" y="405.0" type="line"/>
    </contour>
    <contour>
      <point x="409.1" y="445.0" type="line"/>
      <point x="409.1" y="533.3064"/>
      <point x="337.4064" y="605.0"/>
      <point x="249.1" y="605.0" type="curve"/>
      <point x="249.1" y="445.0" type="line"/>
    </contour>
    <contour>
      <point x="249.1" y="405.0" type="line"/>
      <point x="409.1" y="405.0" type="line"/>
      <point x="409.1" y="445.0" type="line"/>
      <point x="249.1" y="445.0" type="line"/>
    </contour>
  </outline>
</glyph>
<glyph name="u" format="2">
  <advance width="453.2"/>
  <unicode hex="0075"/>
  <outline>
    <contour>
      <point x="44.1" y="155.0" type="line"/>
      <point x="44.1" y="66.6936"/>
      <point x="115.7936" y="-5.0"/>
      <point x="204.1" y="-5.0" type="curve"/>
      <point x="204.1" y="155.0" type="line"/>
    </contour>
    <contour>
      <point x="44.1" y="155.0" type="line"/>
      <point x="204.1" y="155.0" type="line"/>
      <point x="204.1" y="195.0" type="line"/>
      <point x="44.1" y="195.0" type="line"/>
    </contour>
    <contour>
      <point x="44.1" y="195.0" type="line"/>
      <point x="204.1" y="195.0" type="line"/>
      <point x="204.1" y="400.0" type="line"/>
      <point x="44.1" y="400.0" type="line"/>
    </contour>
    <contour>
      <point x="44.1" y="400" type="line"/>
      <point x="204.1" y="400" type="line"/>
      <point x="204.1" y="600" type="line"/>
      <point x="44.1" y="600" type="line"/>
    </contour>
    <contour>
      <point x="249.1" y="-5.0" type="line"/>
      <point x="337.4064" y="-5.0"/>
      <point x="409.1" y="66.6936"/>
      <point x="409.1" y="155.0" type="curve"/>
      <point x="249.1" y="155.0" type="line"/>
    </contour>
    <contour>
      <point x="249.1" y="155.0" type="line"/>
      <point x="409.1" y="155.0" type="line"/>
      <point x="409.1" y="195.0" type="line"/>
      <point x="249.1" y="195.0" type="line"/>
    </contour>
    <contour>
      <point x="249.1" y="195.0" type="line"/>
      <point x="409.1" y="195.0" type="line"/>
      <point x="409.1" y="400.0" type="line"/>
      <point x="249.1" y="400.0" type="line"/>
    </contour>
    <contour>
      <point x="249.1" y="400" type="line"/>
      <point x="409.1" y="400" type="line"/>
      <point x="409.1" y="600" type="line"/>
      <point x="249.1" y="600" type="line"/>
    </contour>
  </outline>
</glyph>
<glyph name="w" format="2">
  <advance width="658.2"/>
  <unicode hex="0077"/>
  <outline>
    <contour>
      <point x="44.1" y="160.0" type="line"/>
      <point x="44.1" y="71.6936"/>
      <point x="115.7936" y="0.0"/>
      <point x="204.1" y="0.0" type="curve"/>
      <point x="204.1" y="160.0" type="line"/>
    </contour>
    <contour>
      <point x="44.1" y="160.0" type="line"/>
      <point x="204.1" y="160.0" type="line"/>
      <point x="204.1" y="200.0" type="line"/>
      <point x="44.1" y="200.0" type="line"/>
    </contour>
    <contour>
      <point x="44.1" y="200" type="line"/>
      <point x="204.1" y="200" type="line"/>
      <point x="204.1" y="400" type="line"/>
      <point x="44.1" y="400" type="line"/>
    </contour>
    <contour>
      <point x="204.1" y="440.0" type="line"/>
      <point x="204.1" y="528.3064"/>
      <point x="132.4064" y="600.0"/>
      <point x="44.1" y="600.0" type="curve"/>
      <point x="44.1" y="440.0" type="line"/>
    </contour>
    <contour>
      <point x="44.1" y="400" type="line"/>
      <point x="204.1" y="400" type="line"/>
      <point x="204.1" y="440.0" type="line"/>
      <point x="44.1" y="440.0" type="line"/>
    </contour>
    <contour>
      <point x="249.1" y="0" type="line"/>
      <point x="409.1" y="0" type="line"/>
      <point x="409.1" y="200" type="line"/>
      <point x="249.1" y="200" type="line"/>
    </contour>
    <contour>
      <point x="249.1" y="200" type="line"/>
      <point x="409.1" y="200" type="line"/>
      <point x="409.1" y="400" type="line"/>
      <point x="249.1" y="400" type="line"/>
    </contour>
    <contour>
      <point x="409.1" y="440.0" type="line"/>
      <point x="409.1" y="528.3064"/>
      <point x="337.4064" y="600.0"/>
      <point x="249.1" y="600.0" type="curve"/>
      <point x="249.1" y="440.0" type="line"/>
    </contour>
    <contour>
      <point x="249.1" y="400" type="line"/>
      <point x="409.1" y="400" type="line"/>
      <point x="409.1" y="440.0" type="line"/>
      <point x="249.1" y="440.0" type="line"/>
    </contour>
    <contour>
      <point x="454.1" y="0.0" type="line"/>
      <point x="542.4064" y="0.0"/>
      <point x="614.1" y="71.6936"/>
      <point x="614.1" y="160.0" type="curve"/>
      <point x="454.1" y="160.0" type="line"/>
    </contour>
    <contour>
      <point x="454.1" y="160.0" type="line"/>
      <point x="614.1" y="160.0" type="line"/>
      <point x="614.1" y="200.0" type="line"/>
      <point x="454.1" y="200.0" type="line"/>
    </contour>
    <contour>
      <point x="454.1" y="200" type="line"/>
      <point x="614.1" y="200" type="line"/>
      <point x="614.1" y="400" type="line"/>
      <point x="454.1" y="400" type="line"/>
    </contour>
    <contour>
      <point x="454.1" y="400" type="line"/>
      <point x="614.1" y="400" type="line"/>
      <point x="614.1" y="600" type="line"/>
      <point x="454.1" y="600" type="line"/>
    </contour>
  </outline>
</glyph>
<glyph name="z" format="2">
  <advance width="453.2"/>
  <unicode hex="007A"/>
  <outline>
    <contour>
      <point x="44.1" y="0" type="line"/>
      <point x="204.1" y="0" type="line"/>
      <point x="204.1" y="200" type="line"/>
      <point x="44.1" y="200" type="line"/>
    </contour>
    <contour>
      <point x="204.1" y="380.0" type="line"/>
      <point x="115.7936" y="380.0"/>
      <point x="44.1" y="308.3064"/>
      <point x="44.1" y="220.0" type="curve"/>
      <point x="204.1" y="220.0" type="line"/>
    </contour>
    <contour>
      <point x="44.1" y="200" type="line"/>
      <point x="204.1" y="200" type="line"/>
      <point x="204.1" y="220.0" type="line"/>
      <point x="44.1" y="220.0" type="line"/>
    </contour>
    <contour>
      <point x="44.1" y="440.0" type="line"/>
      <point x="132.4064" y="440.0"/>
      <point x="204.1" y="511.6936"/>
      <point x="204.1" y="600.0" type="curve"/>
      <point x="44.1" y="600.0" type="line"/>
    </contour>
    <contour>
      <point x="409.1" y="160.0" type="line"/>
      <point x="320.7936" y="160.0"/>
      <point x="249.1" y="88.3064"/>
      <point x="249.1" y="0.0" type="curve"/>
      <point x="409.1" y="0.0" type="line"/>
    </contour>
    <contour>
      <point x="249.1" y="220.0" type="line"/>
      <point x="337.4064" y="220.0"/>
      <point x="409.1" y="291.6936"/>
      <point x="409.1" y="380.0" type="curve"/>
      <point x="249.1" y="380.0" type="line"/>
    </contour>
    <contour>
      <point x="249.1" y="380.0" type="line"/>
      <point x="409.1" y="380.0" type="line"/>
      <point x="409.1" y="400.0" type="line"/>
      <point x="249.1" y="400.0" type="line"/>
    </contour>
    <contour>
      <point x="249.1" y="400" type="line"/>
      <point x="409.1" y="400" type="line"/>
      <point x="409.1" y="600" type="line"/>
      <point x="249.1" y="600" type="line"/>
    </contour>
  </outline>
</glyph>
<glyph name="braceleft" format="2">
  <advance width="248.2"/>
  <unicode hex="007B"/>
  <outline>
    <contour>
      <point x="44.1" y="60.0" type="line"/>
      <point x="44.1" y="-28.3064"/>
      <point x="115.7936" y="-100.0"/>
      <point x="204.1" y="-100.0" type="curve"/>
      <point x="204.1" y="60.0" type="line"/>
    </contour>
    <contour>
      <point x="44.1" y="60.0" type="line"/>
      <point x="204.1" y="60.0" type="line"/>
      <point x="204.1" y="100.0" type="line"/>
      <point x="44.1" y="100.0" type="line"/>
    </contour>
    <contour>
      <point x="44.1" y="100.0" type="line"/>
      <point x="204.1" y="100.0" type="line"/>
      <point x="204.1" y="200.0" type="line"/>
      <point x="44.1" y="200.0" type="line"/>
    </contour>
    <contour>
      <point x="204.1" y="240.0" type="line"/>
      <point x="204.1" y="328.3064"/>
      <point x="132.4064" y="400.0"/>
      <point x="44.1" y="400.0" type="curve"/>
      <point x="44.1" y="240.0" type="line"/>
    </contour>
    <contour>
      <point x="44.1" y="200" type="line"/>
      <point x="204.1" y="200" type="line"/>
      <point x="204.1" y="240.0" type="line"/>
      <point x="44.1" y="240.0" type="line"/>
    </contour>
    <contour>
      <point x="44.1" y="400.0" type="line"/>
      <point x="132.4064" y="400.0"/>
      <point x="204.1" y="471.6936"/>
      <point x="204.1" y="560.0" type="curve"/>
      <point x="44.1" y="560.0" type="line"/>
    </contour>
    <contour>
      <point x="44.1" y="560.0" type="line"/>
      <point x="204.1" y="560.0" type="line"/>
      <point x="204.1" y="600.0" type="line"/>
      <point x="44.1" y="600.0" type="line"/>
    </contour>
    <contour>
      <point x="44.1" y="600" type="line"/>
      <point x="204.1" y="600" type="line"/>
      <point x="204.1" y="700.0" type="line"/>
      <point x="44.1" y="700.0" type="line"/>
    </contour>
    <contour>
      <point x="204.1" y="900.0" type="line"/>
      <point x="115.7936" y="900.0"/>
      <point x="44.1" y="828.3064"/>
      <point x="44.1" y="740.0" type="curve"/>
      <point x="204.1" y="740.0" type="line"/>
    </contour>
    <contour>
      <point x="44.1" y="700.0" type="line"/>
      <point x="204.1" y="700.0" type="line"/>
      <point x="204.1" y="740.0" type="line"/>
      <point x="44.1" y="740.0" type="line"/>
    </contour>
  </outline>
</glyph>
<glyph name="bar" format="2">
  <advance width="248.2"/>
  <unicode hex="007C"/>
  <outline>
    <contour>
      <point x="44.1" y="-100.0" type="line"/>
      <point x="204.1" y="-100.0" type="line"/>
      <point x="204.1" y="100.0" type="line"/>
      <point x="44.1" y="100.0" type="line"/>
    </contour>
    <contour>
      <point x="44.1" y="100.0" type="line"/>
      <point x="204.1" y="100.0" type="line"/>
      <point x="204.1" y="300.0" type="line"/>
      <point x="44.1" y="300.0" type="line"/>
    </contour>
    <contour>
      <point x="44.1" y="300.0" type="line"/>
      <point x="204.1" y="300.0" type="line"/>
      <point x="204.1" y="500.0" type="line"/>
      <point x="44.1" y="500.0" type="line"/>
    </contour>
    <contour>
      <point x="44.1" y="500.0" type="line"/>
      <point x="204.1" y="500.0" type="line"/>
      <point x="204.1" y="700.0" type="line"/>
      <point x="44.1" y="700.0" type="line"/>
    </contour>
    <contour>
      <point x="44.1" y="700.0" type="line"/>
      <point x="204.1" y="700.0" type="line"/>
      <point x="204.1" y="900.0" type="line"/>
      <point x="44.1" y="900.0" type="line"/>
    </contour>
  </outline>
</glyph>
<glyph name="tilde" format="2">
  <advance width="453.2"/>
  <unicode hex="007E"/>
  <outline>
    <contour>
      <point x="204.1" y="480.0" type="line"/>
      <point x="115.7936" y="480.0"/>
      <point x="44.1" y="408.3064"/>
      <point x="44.1" y="320.0" type="curve"/>
      <point x="204.1" y="320.0" type="line"/>
    </contour>
    <contour>
      <point x="204.1" y="320.0" type="line"/>
      <point x="249.1" y="320.0" type="line"/>
      <point x="249.1" y="480.0" type="line"/>
      <point x="204.1" y="480.0" type="line"/>
    </contour>
    <contour>
      <point x="249.1" y="320.0" type="line"/>
      <point x="337.4064" y="320.0"/>
      <point x="409.1" y="391.6936"/>
      <point x="409.1" y="480.0" type="curve"/>
      <point x="249.1" y="480.0" type="line"/>
    </contour>
  </outline>
</glyph>
<glyph name="cent" format="2">
  <advance width="453.2"/>
  <unicode hex="00A2"/>
  <outline>
    <contour>
      <point x="124.1" y="0" type="line"/>
      <point x="204.1" y="0" type="line"/>
      <point x="204.1" y="100.0" type="line"/>
      <point x="124.1" y="100.0" type="line"/>
    </contour>
    <contour>
      <point x="124.1" y="100.0" type="line"/>
      <point x="204.1" y="100.0" type="line"/>
      <point x="204.1" y="200.0" type="line"/>
      <point x="124.1" y="200.0" type="line"/>
    </contour>
    <contour>
      <point x="44.1" y="260.0" type="line"/>
      <point x="44.1" y="171.6936"/>
      <point x="115.7936" y="100.0"/>
      <point x="204.1" y="100.0" type="curve"/>
      <point x="204.1" y="260.0" type="line"/>
    </contour>
    <contour>
      <point x="44.1" y="260.0" type="line"/>
      <point x="204.1" y="260.0" type="line"/>
      <point x="204.1" y="300.0" type="line"/>
      <point x="44.1" y="300.0" type="line"/>
    </contour>
    <contour>
      <point x="204.1" y="500.0" type="line"/>
      <point x="115.7936" y="500.0"/>
      <point x="44.1" y="428.3064"/>
      <point x="44.1" y="340.0" type="curve"/>
      <point x="204.1" y="340.0" type="line"/>
    </contour>
    <contour>
      <point x="44.1" y="300.0" type="line"/>
      <point x="204.1" y="300.0" type="line"/>
      <point x="204.1" y="340.0" type="line"/>
      <point x="44.1" y="340.0" type="line"/>
    </contour>
    <contour>
      <point x="124.1" y="400" type="line"/>
      <point x="204.1" y="400" type="line"/>
      <point x="204.1" y="500.0" type="line"/>
      <point x="124.1" y="500.0" type="line"/>
    </contour>
    <contour>
      <point x="124.1" y="500.0" type="line"/>
      <point x="204.1" y="500.0" type="line"/>
      <point x="204.1" y="600.0" type="line"/>
      <point x="124.1" y="600.0" type="line"/>
    </contour>
    <contour>
      <point x="249.1" y="0" type="line"/>
      <point x="329.1" y="0" type="line"/>
      <point x="329.1" y="100.0" type="line"/>
      <point x="249.1" y="100.0" type="line"/>
    </contour>
    <contour>
      <point x="409.1" y="260.0" type="line"/>
      <point x="320.7936" y="260.0"/>
      <point x="249.1" y="188.3064"/>
      <point x="249.1" y="100.0" type="curve"/>
      <point x="409.1" y="100.0" type="line"/>
    </contour>
    <contour>
      <point x="249.1" y="500.0" type="line"/>
      <point x="249.1" y="411.6936"/>
      <point x="320.7936" y="340.0"/>
      <point x="409.1" y="340.0" type="curve"/>
      <point x="409.1" y="500.0" type="line"/>
    </contour>
    <contour>
      <point x="249.1" y="500.0" type="line"/>
      <point x="329.1" y="500.0" type="line"/>
      <point x="329.1" y="600.0" type="line"/>
      <point x="249.1" y="600.0" type="line"/>
    </contour>
  </outline>
</glyph>
<glyph name="pound" format="2">
  <advance width="583.2"/>
  <unicode hex="00A3"/>
  <outline>
    <contour>
      <point x="44.1" y="0" type="line"/>
      <point x="124.1" y="0" type="line"/>
      <point x="124.1" y="80.0" type="line"/>
      <point x="44.1" y="80.0" type="line"/>
    </contour>
    <contour>
      <point x="44.1" y="360.0" type="line"/>
      <point x="124.1" y="360.0" type="line"/>
      <point x="124.1" y="440.0" type="line"/>
      <point x="44.1" y="440.0" type="line"/>
    </contour>
    <contour>
      <point x="169.1" y="0" type="line"/>
      <point x="329.1" y="0" type="line"/>
      <point x="329.1" y="200" type="line"/>
      <point x="169.1" y="200" type="line"/>
    </contour>
    <contour>
      <point x="169.1" y="200" type="line"/>
      <point x="329.1" y="200" type="line"/>
      <point x="329.1" y="400" type="line"/>
      <point x="169.1" y="400" type="line"/>
    </contour>
    <contour>
      <point x="169.1" y="400" type="line"/>
      <point x="329.1" y="400" type="line"/>
      <point x="329.1" y="605.0" type="line"/>
      <point x="169.1" y="605.0" type="line"/>
    </contour>
    <contour>
      <point x="329.1" y="805.0" type="line"/>
      <point x="240.7936" y="805.0"/>
      <point x="169.1" y="733.3064"/>
      <point x="169.1" y="645.0" type="curve"/>
      <point x="329.1" y="645.0" type="line"/>
    </contour>
    <contour>
      <point x="169.1" y="605.0" type="line"/>
      <point x="329.1" y="605.0" type="line"/>
      <point x="329.1" y="645.0" type="line"/>
      <point x="169.1" y="645.0" type="line"/>
    </contour>
    <contour>
      <point x="534.1" y="160.0" type="line"/>
      <point x="445.7936" y="160.0"/>
      <point x="374.1" y="88.3064"/>
      <point x="374.1" y="0.0" type="curve"/>
      <point x="534.1" y="0.0" type="line"/>
    </contour>
    <contour>
      <point x="374.1" y="360.0" type="line"/>
      <point x="454.1" y="360.0" type="line"/>
      <point x="454.1" y="440.0" type="line"/>
      <point x="374.1" y="440.0" type="line"/>
    </contour>
    <contour>
      <point x="414.1" y="360.0" type="line"/>
      <point x="494.1" y="360.0" type="line"/>
      <point x="494.1" y="440.0" type="line"/>
      <point x="414.1" y="440.0" type="line"/>
    </contour>
    <contour>
      <point x="539.1" y="720.0" type="curve" smooth="yes"/>
      <point x="539.1" y="766.91278"/>
      <point x="501.01278" y="805.0"/>
      <point x="454.1" y="805.0" type="curve" smooth="yes"/>
      <point x="407.18722" y="805.0"/>
      <point x="369.1" y="766.91278"/>
      <point x="369.1" y="720.0" type="curve" smooth="yes"/>
      <point x="369.1" y="673.08722"/>
      <point x="407.18722" y="635.0"/>
      <point x="454.1" y="635.0" type="curve" smooth="yes"/>
      <point x="501.01278" y="635.0"/>
      <point x="539.1" y="673.08722"/>
    </contour>
  </outline>
</glyph>
<glyph name="currency" format="2">
  <advance width="453.2"/>
  <unicode hex="00A4"/>
  <outline>
    <contour>
      <point x="44.1" y="380.0" type="line"/>
      <point x="44.1" y="291.6936"/>
      <point x="115.7936" y="220.0"/>
      <point x="204.1" y="220.0" type="curve"/>
      <point x="204.1" y="380.0" type="line"/>
    </contour>
    <contour>
      <point x="44.1" y="380.0" type="line"/>
      <point x="204.1" y="380.0" type="line"/>
      <point x="204.1" y="400.0" type="line"/>
      <point x="44.1" y="400.0" type="line"/>
    </contour>
    <contour>
      <point x="204.1" y="580.0" type="line"/>
      <point x="115.7936" y="580.0"/>
      <point x="44.1" y="508.3064"/>
      <point x="44.1" y="420.0" type="curve"/>
      <point x="204.1" y="420.0" type="line"/>
    </contour>
    <contour>
      <point x="44.1" y="400" type="line"/>
      <point x="204.1" y="400" type="line"/>
      <point x="204.1" y="420.0" type="line"/>
      <point x="44.1" y="420.0" type="line"/>
    </contour>
    <contour>
      <point x="44.1" y="210.0" type="line"/>
      <point x="124.1" y="210.0" type="line"/>
      <point x="124.1" y="290.0" type="line"/>
      <point x="44.1" y="290.0" type="line"/>
    </contour>
    <contour>
      <point x="44.1" y="510.0" type="line"/>
      <point x="124.1" y="510.0" type="line"/>
      <point x="124.1" y="590.0" type="line"/>
      <point x="44.1" y="590.0" type="line"/>
    </contour>
    <contour>
      <point x="249.1" y="220.0" type="line"/>
      <point x="337.4064" y="220.0"/>
      <point x="409.1" y="291.6936"/>
      <point x="409.1" y="380.0" type="curve"/>
      <point x="249.1" y="380.0" type="line"/>
    </contour>
    <contour>
      <point x="249.1" y="380.0" type="line"/>
      <point x="409.1" y="380.0" type="line"/>
      <point x="409.1" y="400.0" type="line"/>
      <point x="249.1" y="400.0" type="line"/>
    </contour>
    <contour>
      <point x="409.1" y="420.0" type="line"/>
      <point x="409.1" y="508.3064"/>
      <point x="337.4064" y="580.0"/>
      <point x="249.1" y="580.0" type="curve"/>
      <point x="249.1" y="420.0" type="line"/>
    </contour>
    <contour>
      <point x="249.1" y="400" type="line"/>
      <point x="409.1" y="400" type="line"/>
      <point x="409.1" y="420.0" type="line"/>
      <point x="249.1" y="420.0" type="line"/>
    </contour>
    <contour>
      <point x="329.1" y="210.0" type="line"/>
      <point x="409.1" y="210.0" type="line"/>
      <point x="409.1" y="290.0" type="line"/>
      <point x="329.1" y="290.0" type="line"/>
    </contour>
    <contour>
      <point x="329.1" y="510.0" type="line"/>
      <point x="409.1" y="510.0" type="line"/>
      <point x="409.1" y="590.0" type="line"/>
      <point x="329.1" y="590.0" type="line"/>
    </contour>
  </outline>
</glyph>
<glyph name="yen" format="2">
  <advance width="703.2"/>
  <unicode hex="00A5"/>
  <outline>
    <contour>
      <point x="44.1" y="385.0" type="line"/>
      <point x="124.1" y="385.0" type="line"/>
      <point x="124.1" y="465.0" type="line"/>
      <point x="44.1" y="465.0" type="line"/>
    </contour>
    <contour>
      <point x="44.1" y="535.0" type="line"/>
      <point x="124.1" y="535.0" type="line"/>
      <point x="124.1" y="615.0" type="line"/>
      <point x="44.1" y="615.0" type="line"/>
    </contour>
    <contour>
      <point x="169.1" y="360.0" type="line"/>
      <point x="169.1" y="271.6936"/>
      <point x="240.7936" y="200.0"/>
      <point x="329.1" y="200.0" type="curve"/>
      <point x="329.1" y="360.0" type="line"/>
    </contour>
    <contour>
      <point x="169.1" y="360.0" type="line"/>
      <point x="329.1" y="360.0" type="line"/>
      <point x="329.1" y="400.0" type="line"/>
      <point x="169.1" y="400.0" type="line"/>
    </contour>
    <contour>
      <point x="169.1" y="400" type="line"/>
      <point x="329.1" y="400" type="line"/>
      <point x="329.1" y="605.0" type="line"/>
      <point x="169.1" y="605.0" type="line"/>
    </contour>
    <contour>
      <point x="329.1" y="645.0" type="line"/>
      <point x="329.1" y="733.3064"/>
      <point x="257.4064" y="805.0"/>
      <point x="169.1" y="805.0" type="curve"/>
      <point x="169.1" y="645.0" type="line"/>
    </contour>
    <contour>
      <point x="169.1" y="605.0" type="line"/>
      <point x="329.1" y="605.0" type="line"/>
      <point x="329.1" y="645.0" type="line"/>
      <point x="169.1" y="645.0" type="line"/>
    </contour>
    <contour>
      <point x="374.1" y="-5.0" type="line"/>
      <point x="462.4064" y="-5.0"/>
      <point x="534.1" y="66.6936"/>
      <point x="534.1" y="155.0" type="curve"/>
      <point x="374.1" y="155.0" type="line"/>
    </contour>
    <contour>
      <point x="374.1" y="155.0" type="line"/>
      <point x="534.1" y="155.0" type="line"/>
      <point x="534.1" y="195.0" type="line"/>
      <point x="374.1" y="195.0" type="line"/>
    </contour>
    <contour>
      <point x="374.1" y="195.0" type="line"/>
      <point x="534.1" y="195.0" type="line"/>
      <point x="534.1" y="400.0" type="line"/>
      <point x="374.1" y="400.0" type="line"/>
    </contour>
    <contour>
      <point x="374.1" y="400" type="line"/>
      <point x="534.1" y="400" type="line"/>
      <point x="534.1" y="600" type="line"/>
      <point x="374.1" y="600" type="line"/>
    </contour>
    <contour>
      <point x="374.1" y="600" type="line"/>
      <point x="534.1" y="600" type="line"/>
      <point x="534.1" y="800" type="line"/>
      <point x="374.1" y="800" type="line"/>
    </contour>
    <contour>
      <point x="579.1" y="385.0" type="line"/>
      <point x="659.1" y="385.0" type="line"/>
      <point x="659.1" y="465.0" type="line"/>
      <point x="579.1" y="465.0" type="line"/>
    </contour>
    <contour>
      <point x="579.1" y="535.0" type="line"/>
      <point x="659.1" y="535.0" type="line"/>
      <point x="659.1" y="615.0" type="line"/>
      <point x="579.1" y="615.0" type="line"/>
    </contour>
  </outline>
</glyph>
<glyph name="brokenbar" format="2">
  <advance width="248.2"/>
  <unicode hex="00A6"/>
  <outline>
    <contour>
      <point x="44.1" y="-100.0" type="line"/>
      <point x="204.1" y="-100.0" type="line"/>
      <point x="204.1" y="100.0" type="line"/>
      <point x="44.1" y="100.0" type="line"/>
    </contour>
    <contour>
      <point x="44.1" y="100.0" type="line"/>
      <point x="204.1" y="100.0" type="line"/>
      <point x="204.1" y="300.0" type="line"/>
      <point x="44.1" y="300.0" type="line"/>
    </contour>
    <contour>
      <point x="44.1" y="500.0" type="line"/>
      <point x="204.1" y="500.0" type="line"/>
      <point x="204.1" y="700.0" type="line"/>
      <point x="44.1" y="700.0" type="line"/>
    </contour>
    <contour>
      <point x="44.1" y="700.0" type="line"/>
      <point x="204.1" y="700.0" type="line"/>
      <point x="204.1" y="900.0" type="line"/>
      <point x="44.1" y="900.0" type="line"/>
    </contour>
  </outline>
</glyph>
<glyph name="section" format="2">
  <advance width="453.2"/>
  <unicode hex="00A7"/>
  <outline>
    <contour>
      <point x="204.1" y="-200" type="line"/>
      <point x="204.1" y="-111.6936"/>
      <point x="132.4064" y="-40.0"/>
      <point x="44.1" y="-40.0" type="curve"/>
      <point x="44.1" y="-200" type="line"/>
    </contour>
    <contour>
      <point x="44.1" y="260.0" type="line"/>
      <point x="44.1" y="171.6936"/>
      <point x="115.7936" y="100.0"/>
      <point x="204.1" y="100.0" type="curve"/>
      <point x="204.1" y="260.0" type="line"/>
    </contour>
    <contour>
      <point x="44.1" y="260.0" type="line"/>
      <point x="204.1" y="260.0" type="line"/>
      <point x="204.1" y="300.0" type="line"/>
      <point x="44.1" y="300.0" type="line"/>
    </contour>
    <contour>
      <point x="204.1" y="500.0" type="line"/>
      <point x="115.7936" y="500.0"/>
      <point x="44.1" y="428.3064"/>
      <point x="44.1" y="340.0" type="curve"/>
      <point x="204.1" y="340.0" type="line"/>
    </contour>
    <contour>
      <point x="44.1" y="300.0" type="line"/>
      <point x="204.1" y="300.0" type="line"/>
      <point x="204.1" y="340.0" type="line"/>
      <point x="44.1" y="340.0" type="line"/>
    </contour>
    <contour>
      <point x="44.1" y="580.0" type="line"/>
      <point x="44.1" y="491.6936"/>
      <point x="115.7936" y="420.0"/>
      <point x="204.1" y="420.0" type="curve"/>
      <point x="204.1" y="580.0" type="line"/>
    </contour>
    <contour>
      <point x="44.1" y="580.0" type="line"/>
      <point x="204.1" y="580.0" type="line"/>
      <point x="204.1" y="600.0" type="line"/>
      <point x="44.1" y="600.0" type="line"/>
    </contour>
    <contour>
      <point x="204.1" y="800.0" type="line"/>
      <point x="115.7936" y="800.0"/>
      <point x="44.1" y="728.3064"/>
      <point x="44.1" y="640.0" type="curve"/>
      <point x="204.1" y="640.0" type="line"/>
    </contour>
    <contour>
      <point x="44.1" y="600" type="line"/>
      <point x="204.1" y="600" type="line"/>
      <point x="204.1" y="640.0" type="line"/>
      <point x="44.1" y="640.0" type="line"/>
    </contour>
    <contour>
      <point x="249.1" y="-200.0" type="line"/>
      <point x="337.4064" y="-200.0"/>
      <point x="409.1" y="-128.3064"/>
      <point x="409.1" y="-40.0" type="curve"/>
      <point x="249.1" y="-40.0" type="line"/>
    </contour>
    <contour>
      <point x="249.1" y="-40.0" type="line"/>
      <point x="409.1" y="-40.0" type="line"/>
      <point x="409.1" y="0.0" type="line"/>
      <point x="249.1" y="0.0" type="line"/>
    </contour>
    <contour>
      <point x="409.1" y="20.0" type="line"/>
      <point x="409.1" y="108.3064"/>
      <point x="337.4064" y="180.0"/>
      <point x="249.1" y="180.0" type="curve"/>
      <point x="249.1" y="20.0" type="line"/>
    </contour>
    <contour>
      <point x="249.1" y="0" type="line"/>
      <point x="409.1" y="0" type="line"/>
      <point x="409.1" y="20.0" type="line"/>
      <point x="249.1" y="20.0" type="line"/>
    </contour>
    <contour>
      <point x="249.1" y="100.0" type="line"/>
      <point x="337.4064" y="100.0"/>
      <point x="409.1" y="171.6936"/>
      <point x="409.1" y="260.0" type="curve"/>
      <point x="249.1" y="260.0" type="line"/>
    </contour>
    <contour>
      <point x="249.1" y="260.0" type="line"/>
      <point x="409.1" y="260.0" type="line"/>
      <point x="409.1" y="300.0" type="line"/>
      <point x="249.1" y="300.0" type="line"/>
    </contour>
    <contour>
      <point x="409.1" y="340.0" type="line"/>
      <point x="409.1" y="428.3064"/>
      <point x="337.4064" y="500.0"/>
      <point x="249.1" y="500.0" type="curve"/>
      <point x="249.1" y="340.0" type="line"/>
    </contour>
    <contour>
      <point x="249.1" y="300.0" type="line"/>
      <point x="409.1" y="300.0" type="line"/>
      <point x="409.1" y="340.0" type="line"/>
      <point x="249.1" y="340.0" type="line"/>
    </contour>
    <contour>
      <point x="249.1" y="800.0" type="line"/>
      <point x="249.1" y="711.6936"/>
      <point x="320.7936" y="640.0"/>
      <point x="409.1" y="640.0" type="curve"/>
      <point x="409.1" y="800.0" type="line"/>
    </contour>
  </outline>
</glyph>
<glyph name="copyright" format="2">
  <advance width="1016.5749000000001"/>
  <unicode hex="00A9"/>
  <outline>
    <contour>
      <point x="315.78745000000004" y="360.0" type="curve"/>
      <point x="475.78745000000004" y="360.0" type="line"/>
      <point x="475.78745000000004" y="200.0" type="line"/>
      <point x="387.48105" y="200.0"/>
      <point x="315.78745000000004" y="271.6936"/>
    </contour>
    <contour>
      <point x="315.78745000000004" y="360.0" type="line"/>
      <point x="315.78745000000004" y="400.0" type="line"/>
      <point x="475.78745000000004" y="400.0" type="line"/>
      <point x="475.78745000000004" y="360.0" type="line"/>
    </contour>
    <contour>
      <point x="475.78745000000004" y="605.0" type="curve"/>
      <point x="475.78745000000004" y="445.0" type="line"/>
      <point x="315.78745000000004" y="445.0" type="line"/>
      <point x="315.78745000000004" y="533.3064"/>
      <point x="387.48105" y="605.0"/>
    </contour>
    <contour>
      <point x="315.78745000000004" y="400" type="line"/>
      <point x="315.78745000000004" y="445.0" type="line"/>
      <point x="475.78745000000004" y="445.0" type="line"/>
      <point x="475.78745000000004" y="400" type="line"/>
    </contour>
    <contour>
      <point x="678.28745" y="360.0" type="curve"/>
      <point x="678.28745" y="200.0" type="line"/>
      <point x="518.28745" y="200.0" type="line"/>
      <point x="518.28745" y="288.3064"/>
      <point x="589.98105" y="360.0"/>
    </contour>
    <contour>
      <point x="680.78745" y="530.0" type="curve" smooth="yes"/>
      <point x="680.78745" y="485.8468"/>
      <point x="644.9406500000001" y="450.0"/>
      <point x="600.78745" y="450.0" type="curve" smooth="yes"/>
      <point x="556.6342500000001" y="450.0"/>
      <point x="520.78745" y="485.8468"/>
      <point x="520.78745" y="530.0" type="curve" smooth="yes"/>
      <point x="520.78745" y="574.1532"/>
      <point x="556.6342500000001" y="610.0"/>
      <point x="600.78745" y="610.0" type="curve" smooth="yes"/>
      <point x="644.9406500000001" y="610.0"/>
      <point x="680.78745" y="574.1532"/>
    </contour>
    <contour>
      <point x="892.4749" y="405.0" type="curve" smooth="yes"/>
      <point x="892.4749" y="617.03883"/>
      <point x="720.3262800000001" y="789.18745"/>
      <point x="508.28745000000004" y="789.18745" type="curve" smooth="yes"/>
      <point x="296.24862" y="789.18745"/>
      <point x="124.1" y="617.03883"/>
      <point x="124.1" y="405.0" type="curve" smooth="yes"/>
      <point x="124.1" y="192.96117"/>
      <point x="296.24862" y="20.81255"/>
      <point x="508.28745000000004" y="20.81255" type="curve" smooth="yes"/>
      <point x="720.3262800000001" y="20.81255"/>
      <point x="892.4749" y="192.96117"/>
    </contour>
  </outline>
</glyph>
<glyph name="angledblleft" format="2">
  <advance width="453.2"/>
  <unicode hex="00AB"/>
  <outline>
    <contour>
      <point x="44.1" y="400.0" type="line"/>
      <point x="44.1" y="311.6936"/>
      <point x="115.7936" y="240.0"/>
      <point x="204.1" y="240.0" type="curve"/>
      <point x="204.1" y="400.0" type="line"/>
    </contour>
    <contour>
      <point x="204.1" y="560.0" type="line"/>
      <point x="115.7936" y="560.0"/>
      <point x="44.1" y="488.3064"/>
      <point x="44.1" y="400.0" type="curve"/>
      <point x="204.1" y="400.0" type="line"/>
    </contour>
    <contour>
      <point x="249.1" y="400.0" type="line"/>
      <point x="249.1" y="311.6936"/>
      <point x="320.7936" y="240.0"/>
      <point x="409.1" y="240.0" type="curve"/>
      <point x="409.1" y="400.0" type="line"/>
    </contour>
    <contour>
      <point x="409.1" y="560.0" type="line"/>
      <point x="320.7936" y="560.0"/>
      <point x="249.1" y="488.3064"/>
      <point x="249.1" y="400.0" type="curve"/>
      <point x="409.1" y="400.0" type="line"/>
    </contour>
  </outline>
</glyph>
<glyph name="plus_minus" format="2">
  <advance width="658.2"/>
  <unicode hex="00B1"/>
  <outline>
    <contour>
      <point x="89.1" y="120.0" type="line"/>
      <point x="249.1" y="120.0" type="line"/>
      <point x="249.1" y="280.0" type="line"/>
      <point x="89.1" y="280.0" type="line"/>
    </contour>
    <contour>
      <point x="89.1" y="420.0" type="line"/>
      <point x="249.1" y="420.0" type="line"/>
      <point x="249.1" y="580.0" type="line"/>
      <point x="89.1" y="580.0" type="line"/>
    </contour>
    <contour>
      <point x="249.1" y="120.0" type="line"/>
      <point x="409.1" y="120.0" type="line"/>
      <point x="409.1" y="280.0" type="line"/>
      <point x="249.1" y="280.0" type="line"/>
    </contour>
    <contour>
      <point x="249.1" y="300.0" type="line"/>
      <point x="409.1" y="300.0" type="line"/>
      <point x="409.1" y="400.0" type="line"/>
      <point x="249.1" y="400.0" type="line"/>
    </contour>
    <contour>
      <point x="249.1" y="400" type="line"/>
      <point x="409.1" y="400" type="line"/>
      <point x="409.1" y="600" type="line"/>
      <point x="249.1" y="600" type="line"/>
    </contour>
    <contour>
      <point x="249.1" y="600" type="line"/>
      <point x="409.1" y="600" type="line"/>
      <point x="409.1" y="700.0" type="line"/>
      <point x="249.1" y="700.0" type="line"/>
    </contour>
    <contour>
      <point x="409.1" y="120.0" type="line"/>
      <point x="569.1" y="120.0" type="line"/>
      <point x="569.1" y="280.0" type="line"/>
      <point x="409.1" y="280.0" type="line"/>
    </contour>
    <contour>
      <point x="409.1" y="420.0" type="line"/>
      <point x="569.1" y="420.0" type="line"/>
      <point x="569.1" y="580.0" type="line"/>
      <point x="409.1" y="580.0" type="line"/>
    </contour>
  </outline>
</glyph>
<glyph name="sup_two" format="2">
  <advance width="453.2"/>
  <unicode hex="00B2"/>
  <outline>
    <contour>
      <point x="204.1" y="360.0" type="line"/>
      <point x="115.7936" y="360.0"/>
      <point x="44.1" y="288.3064"/>
      <point x="44.1" y="200.0" type="curve"/>
      <point x="204.1" y="200.0" type="line"/>
    </contour>
    <contour>
      <point x="204.1" y="200" type="line"/>
      <point x="249.1" y="200" type="line"/>
      <point x="249.1" y="360.0" type="line"/>
      <point x="204.1" y="360.0" type="line"/>
    </contour>
    <contour>
      <point x="214.1" y="720.0" type="curve" smooth="yes"/>
      <point x="214.1" y="766.91278"/>
      <point x="176.01278" y="805.0"/>
      <point x="129.1" y="805.0" type="curve" smooth="yes"/>
      <point x="82.18722" y="805.0"/>
      <point x="44.1" y="766.91278"/>
      <point x="44.1" y="720.0" type="curve" smooth="yes"/>
      <point x="44.1" y="673.08722"/>
      <point x="82.18722" y="635.0"/>
      <point x="129.1" y="635.0" type="curve" smooth="yes"/>
      <point x="176.01278" y="635.0"/>
      <point x="214.1" y="673.08722"/>
    </contour>
    <contour>
      <point x="249.1" y="200" type="line"/>
      <point x="409.1" y="200" type="line"/>
      <point x="409.1" y="360.0" type="line"/>
      <point x="249.1" y="360.0" type="line"/>
    </contour>
    <contour>
      <point x="249.1" y="381.0" type="line"/>
      <point x="337.4064" y="381.0"/>
      <point x="409.1" y="452.6936"/>
      <point x="409.1" y="541.0" type="curve"/>
      <point x="249.1" y="541.0" type="line"/>
    </contour>
    <contour>
      <point x="249.1" y="541.0" type="line"/>
      <point x="409.1" y="541.0" type="line"/>
      <point x="409.1" y="605.0" type="line"/>
      <point x="249.1" y="605.0" type="line"/>
    </contour>
    <contour>
      <point x="409.1" y="645.0" type="line"/>
      <point x="409.1" y="733.3064"/>
      <point x="337.4064" y="805.0"/>
      <point x="249.1" y="805.0" type="curve"/>
      <point x="249.1" y="645.0" type="line"/>
    </contour>
    <contour>
      <point x="249.1" y="605.0" type="line"/>
      <point x="409.1" y="605.0" type="line"/>
      <point x="409.1" y="645.0" type="line"/>
      <point x="249.1" y="645.0" type="line"/>
    </contour>
  </outline>
</glyph>
<glyph name="sup_three" format="2">
  <advance width="453.2"/>
  <unicode hex="00B3"/>
  <outline>
    <contour>
      <point x="209.1" y="280.0" type="curve" smooth="yes"/>
      <point x="209.1" y="326.91278"/>
      <point x="171.01278" y="365.0"/>
      <point x="124.1" y="365.0" type="curve" smooth="yes"/>
      <point x="77.18722" y="365.0"/>
      <point x="39.1" y="326.91278"/>
      <point x="39.1" y="280.0" type="curve" smooth="yes"/>
      <point x="39.1" y="233.08722"/>
      <point x="77.18722" y="195.0"/>
      <point x="124.1" y="195.0" type="curve" smooth="yes"/>
      <point x="171.01278" y="195.0"/>
      <point x="209.1" y="233.08722"/>
    </contour>
    <contour>
      <point x="209.1" y="720.0" type="curve" smooth="yes"/>
      <point x="209.1" y="766.91278"/>
      <point x="171.01278" y="805.0"/>
      <point x="124.1" y="805.0" type="curve" smooth="yes"/>
      <point x="77.18722" y="805.0"/>
      <point x="39.1" y="766.91278"/>
      <point x="39.1" y="720.0" type="curve" smooth="yes"/>
      <point x="39.1" y="673.08722"/>
      <point x="77.18722" y="635.0"/>
      <point x="124.1" y="635.0" type="curve" smooth="yes"/>
      <point x="171.01278" y="635.0"/>
      <point x="209.1" y="673.08722"/>
    </contour>
    <contour>
      <point x="249.1" y="195.0" type="line"/>
      <point x="337.4064" y="195.0"/>
      <point x="409.1" y="266.6936"/>
      <point x="409.1" y="355.0" type="curve"/>
      <point x="249.1" y="355.0" type="line"/>
    </contour>
    <contour>
      <point x="249.1" y="355.0" type="line"/>
      <point x="409.1" y="355.0" type="line"/>
      <point x="409.1" y="400.0" type="line"/>
      <point x="249.1" y="400.0" type="line"/>
    </contour>
    <contour>
      <point x="409.1" y="440.0" type="line"/>
      <point x="409.1" y="528.3064"/>
      <point x="337.4064" y="600.0"/>
      <point x="249.1" y="600.0" type="curve"/>
      <point x="249.1" y="440.0" type="line"/>
    </contour>
    <contour>
      <point x="249.1" y="400" type="line"/>
      <point x="409.1" y="400" type="line"/>
      <point x="409.1" y="440.0" type="line"/>
      <point x="249.1" y="440.0" type="line"/>
    </contour>
    <contour>
      <point x="249.1" y="600.0" type="line"/>
      <point x="337.4064" y="600.0"/>
      <point x="409.1" y="671.6936"/>
      <point x="409.1" y="760.0" type="curve"/>
      <point x="249.1" y="760.0" type="line"/>
    </contour>
    <contour>
      <point x="249.1" y="760.0" type="line"/>
      <point x="409.1" y="760.0" type="line"/>
      <point x="409.1" y="800.0" type="line"/>
      <point x="249.1" y="800.0" type="line"/>
    </contour>
  </outline>
</glyph>
<glyph name="mu" format="2">
  <advance width="498.2"/>
  <unicode hex="00B5"/>
  <outline>
    <contour>
      <point x="44.1" y="-200" type="line"/>
      <point x="204.1" y="-200" type="line"/>
      <point x="204.1" y="0" type="line"/>
      <point x="44.1" y="0" type="line"/>
    </contour>
    <contour>
      <point x="44.1" y="0" type="line"/>
      <point x="204.1" y="0" type="line"/>
      <point x="204.1" y="200" type="line"/>
      <point x="44.1" y="200" type="line"/>
    </contour>
    <contour>
      <point x="44.1" y="200" type="line"/>
      <point x="204.1" y="200" type="line"/>
      <point x="204.1" y="400" type="line"/>
      <point x="44.1" y="400" type="line"/>
    </contour>
    <contour>
      <point x="44.1" y="400" type="line"/>
      <point x="204.1" y="400" type="line"/>
      <point x="204.1" y="600" type="line"/>
      <point x="44.1" y="600" type="line"/>
    </contour>
    <contour>
      <point x="249.1" y="160.0" type="line"/>
      <point x="249.1" y="71.6936"/>
      <point x="320.7936" y="0.0"/>
      <point x="409.1" y="0.0" type="curve"/>
      <point x="409.1" y="160.0" type="line"/>
    </contour>
    <contour>
      <point x="249.1" y="160.0" type="line"/>
      <point x="409.1" y="160.0" type="line"/>
      <point x="409.1" y="200.0" type="line"/>
      <point x="249.1" y="200.0" type="line"/>
    </contour>
    <contour>
      <point x="409.1" y="0" type="line"/>
      <point x="454.1" y="0" type="line"/>
      <point x="454.1" y="160.0" type="line"/>
      <point x="409.1" y="160.0" type="line"/>
    </contour>
    <contour>
      <point x="249.1" y="200" type="line"/>
      <point x="409.1" y="200" type="line"/>
      <point x="409.1" y="400" type="line"/>
      <point x="249.1" y="400" type="line"/>
    </contour>
    <contour>
      <point x="249.1" y="400" type="line"/>
      <point x="409.1" y="400" type="line"/>
      <point x="409.1" y="600" type="line"/>
      <point x="249.1" y="600" type="line"/>
    </contour>
  </outline>
</glyph>
<glyph name="ordinalmasculine" format="2">
  <advance width="453.2"/>
  <unicode hex="00BA"/>
  <outline>
    <contour>
      <point x="44.1" y="560.0" type="line"/>
      <point x="44.1" y="471.6936"/>
      <point x="115.7936" y="400.0"/>
      <point x="204.1" y="400.0" type="curve"/>
      <point x="204.1" y="560.0" type="line"/>
    </contour>
    <contour>
      <point x="44.1" y="560.0" type="line"/>
      <point x="204.1" y="560.0" type="line"/>
      <point x="204.1" y="600.0" type="line"/>
      <point x="44.1" y="600.0" type="line"/>
    </contour>
    <contour>
      <point x="204.1" y="800.0" type="line"/>
      <point x="115.7936" y="800.0"/>
      <point x="44.1" y="728.3064"/>
      <point x="44.1" y="640.0" type="curve"/>
      <point x="204.1" y="640.0" type="line"/>
    </contour>
    <contour>
      <point x="44.1" y="600" type="line"/>
      <point x="204.1" y="600" type="line"/>
      <point x="204.1" y="640.0" type="line"/>
      <point x="44.1" y="640.0" type="line"/>
    </contour>
    <contour>
      <point x="249.1" y="400.0" type="line"/>
      <point x="337.4064" y="400.0"/>
      <point x="409.1" y="471.6936"/>
      <point x="409.1" y="560.0" type="curve"/>
      <point x="249.1" y="560.0" type="line"/>
    </contour>
    <contour>
      <point x="249.1" y="560.0" type="line"/>
      <point x="409.1" y="560.0" type="line"/>
      <point x="409.1" y="600.0" type="line"/>
      <point x="249.1" y="600.0" type="line"/>
    </contour>
    <contour>
      <point x="409.1" y="640.0" type="line"/>
      <point x="409.1" y="728.3064"/>
      <point x="337.4064" y="800.0"/>
      <point x="249.1" y="800.0" type="curve"/>
      <point x="249.1" y="640.0" type="line"/>
    </contour>
    <contour>
      <point x="249.1" y="600" type="line"/>
      <point x="409.1" y="600" type="line"/>
      <point x="409.1" y="640.0" type="line"/>
      <point x="249.1" y="640.0" type="line"/>
    </contour>
  </outline>
</glyph>
<glyph name="angledblright" format="2">
  <advance width="453.2"/>
  <unicode hex="00BB"/>
  <outline>
    <contour>
      <point x="44.1" y="240.0" type="line"/>
      <point x="132.4064" y="240.0"/>
      <point x="204.1" y="311.6936"/>
      <point x="204.1" y="400.0" type="curve"/>
      <point x="44.1" y="400.0" type="line"/>
    </contour>
    <contour>
      <point x="204.1" y="400" type="line"/>
      <point x="204.1" y="488.3064"/>
      <point x="132.4064" y="560.0"/>
      <point x="44.1" y="560.0" type="curve"/>
      <point x="44.1" y="400" type="line"/>
    </contour>
    <contour>
      <point x="249.1" y="240.0" type="line"/>
      <point x="337.4064" y="240.0"/>
      <point x="409.1" y="311.6936"/>
      <point x="409.1" y="400.0" type="curve"/>
      <point x="249.1" y="400.0" type="line"/>
    </contour>
    <contour>
      <point x="409.1" y="400" type="line"/>
      <point x="409.1" y="488.3064"/>
      <point x="337.4064" y="560.0"/>
      <point x="249.1" y="560.0" type="curve"/>
      <point x="249.1" y="400" type="line"/>
    </contour>
  </outline>
</glyph>
<glyph name="one_over_four" format="2">
  <advance width="863.2"/>
  <unicode hex="00BC"/>
  <outline>
    <contour>
      <point x="21.6" y="200" type="line"/>
      <point x="181.6" y="200" type="line"/>
      <point x="181.6" y="400" type="line"/>
      <point x="21.6" y="400" type="line"/>
    </contour>
    <contour>
      <point x="21.6" y="400" type="line"/>
      <point x="181.6" y="400" type="line"/>
      <point x="181.6" y="600" type="line"/>
      <point x="21.6" y="600" type="line"/>
    </contour>
    <contour>
      <point x="21.6" y="600" type="line"/>
      <point x="181.6" y="600" type="line"/>
      <point x="181.6" y="800" type="line"/>
      <point x="21.6" y="800" type="line"/>
    </contour>
    <contour>
      <point x="249.1" y="-200.0" type="line"/>
      <point x="337.4064" y="-200.0"/>
      <point x="409.1" y="-128.3064"/>
      <point x="409.1" y="-40.0" type="curve"/>
      <point x="249.1" y="-40.0" type="line"/>
    </contour>
    <contour>
      <point x="249.1" y="-40.0" type="line"/>
      <point x="409.1" y="-40.0" type="line"/>
      <point x="409.1" y="0.0" type="line"/>
      <point x="249.1" y="0.0" type="line"/>
    </contour>
    <contour>
      <point x="249.1" y="0" type="line"/>
      <point x="409.1" y="0" type="line"/>
      <point x="409.1" y="200" type="line"/>
      <point x="249.1" y="200" type="line"/>
    </contour>
    <contour>
      <point x="249.1" y="200" type="line"/>
      <point x="409.1" y="200" type="line"/>
      <point x="409.1" y="400" type="line"/>
      <point x="249.1" y="400" type="line"/>
    </contour>
    <contour>
      <point x="249.1" y="400" type="line"/>
      <point x="409.1" y="400" type="line"/>
      <point x="409.1" y="600" type="line"/>
      <point x="249.1" y="600" type="line"/>
    </contour>
    <contour>
      <point x="409.1" y="800.0" type="line"/>
      <point x="320.7936" y="800.0"/>
      <point x="249.1" y="728.3064"/>
      <point x="249.1" y="640.0" type="curve"/>
      <point x="409.1" y="640.0" type="line"/>
    </contour>
    <contour>
      <point x="249.1" y="600" type="line"/>
      <point x="409.1" y="600" type="line"/>
      <point x="409.1" y="640.0" type="line"/>
      <point x="249.1" y="640.0" type="line"/>
    </contour>
    <contour>
      <point x="476.6" y="0.0" type="line"/>
      <point x="564.9064000000001" y="0.0"/>
      <point x="636.6" y="71.6936"/>
      <point x="636.6" y="160.0" type="curve"/>
      <point x="476.6" y="160.0" type="line"/>
    </contour>
    <contour>
      <point x="476.6" y="160.0" type="line"/>
      <point x="636.6" y="160.0" type="line"/>
      <point x="636.6" y="200.0" type="line"/>
      <point x="476.6" y="200.0" type="line"/>
    </contour>
    <contour>
      <point x="476.6" y="200" type="line"/>
      <point x="636.6" y="200" type="line"/>
      <point x="636.6" y="400" type="line"/>
      <point x="476.6" y="400" type="line"/>
    </contour>
    <contour>
      <point x="681.6" y="-200" type="line"/>
      <point x="841.6" y="-200" type="line"/>
      <point x="841.6" y="0" type="line"/>
      <point x="681.6" y="0" type="line"/>
    </contour>
    <contour>
      <point x="681.6" y="0" type="line"/>
      <point x="841.6" y="0" type="line"/>
      <point x="841.6" y="200" type="line"/>
      <point x="681.6" y="200" type="line"/>
    </contour>
  </outline>
</glyph>
<glyph name="one_over_two" format="2">
  <advance width="863.2"/>
  <unicode hex="00BD"/>
  <outline>
    <contour>
      <point x="21.6" y="200" type="line"/>
      <point x="181.6" y="200" type="line"/>
      <point x="181.6" y="400" type="line"/>
      <point x="21.6" y="400" type="line"/>
    </contour>
    <contour>
      <point x="21.6" y="400" type="line"/>
      <point x="181.6" y="400" type="line"/>
      <point x="181.6" y="600" type="line"/>
      <point x="21.6" y="600" type="line"/>
    </contour>
    <contour>
      <point x="21.6" y="600" type="line"/>
      <point x="181.6" y="600" type="line"/>
      <point x="181.6" y="800" type="line"/>
      <point x="21.6" y="800" type="line"/>
    </contour>
    <contour>
      <point x="249.1" y="-200.0" type="line"/>
      <point x="337.4064" y="-200.0"/>
      <point x="409.1" y="-128.3064"/>
      <point x="409.1" y="-40.0" type="curve"/>
      <point x="249.1" y="-40.0" type="line"/>
    </contour>
    <contour>
      <point x="249.1" y="-40.0" type="line"/>
      <point x="409.1" y="-40.0" type="line"/>
      <point x="409.1" y="0.0" type="line"/>
      <point x="249.1" y="0.0" type="line"/>
    </contour>
    <contour>
      <point x="249.1" y="0" type="line"/>
      <point x="409.1" y="0" type="line"/>
      <point x="409.1" y="200" type="line"/>
      <point x="249.1" y="200" type="line"/>
    </contour>
    <contour>
      <point x="249.1" y="200" type="line"/>
      <point x="409.1" y="200" type="line"/>
      <point x="409.1" y="400" type="line"/>
      <point x="249.1" y="400" type="line"/>
    </contour>
    <contour>
      <point x="249.1" y="400" type="line"/>
      <point x="409.1" y="400" type="line"/>
      <point x="409.1" y="600" type="line"/>
      <point x="249.1" y="600" type="line"/>
    </contour>
    <contour>
      <point x="409.1" y="800.0" type="line"/>
      <point x="320.7936" y="800.0"/>
      <point x="249.1" y="728.3064"/>
      <point x="249.1" y="640.0" type="curve"/>
      <point x="409.1" y="640.0" type="line"/>
    </contour>
    <contour>
      <point x="249.1" y="600" type="line"/>
      <point x="409.1" y="600" type="line"/>
      <point x="409.1" y="640.0" type="line"/>
      <point x="249.1" y="640.0" type="line"/>
    </contour>
    <contour>
      <point x="636.6" y="-40.0" type="line"/>
      <point x="548.2936" y="-40.0"/>
      <point x="476.6" y="-111.6936"/>
      <point x="476.6" y="-200.0" type="curve"/>
      <point x="636.6" y="-200.0" type="line"/>
    </contour>
    <contour>
      <point x="636.6" y="-200" type="line"/>
      <point x="681.6" y="-200" type="line"/>
      <point x="681.6" y="-40.0" type="line"/>
      <point x="636.6" y="-40.0" type="line"/>
    </contour>
    <contour>
      <point x="646.6" y="320.0" type="curve" smooth="yes"/>
      <point x="646.6" y="366.91278"/>
      <point x="608.51278" y="405.0"/>
      <point x="561.6" y="405.0" type="curve" smooth="yes"/>
      <point x="514.68722" y="405.0"/>
      <point x="476.6" y="366.91278"/>
      <point x="476.6" y="320.0" type="curve" smooth="yes"/>
      <point x="476.6" y="273.08722"/>
      <point x="514.68722" y="235.0"/>
      <point x="561.6" y="235.0" type="curve" smooth="yes"/>
      <point x="608.51278" y="235.0"/>
      <point x="646.6" y="273.08722"/>
    </contour>
    <contour>
      <point x="681.6" y="-200" type="line"/>
      <point x="841.6" y="-200" type="line"/>
      <point x="841.6" y="-40.0" type="line"/>
      <point x="681.6" y="-40.0" type="line"/>
    </contour>
    <contour>
      <point x="681.6" y="-19.0" type="line"/>
      <point x="769.9064000000001" y="-19.0"/>
      <point x="841.6" y="52.6936"/>
      <point x="841.6" y="141.0" type="curve"/>
      <point x="681.6" y="141.0" type="line"/>
    </contour>
    <contour>
      <point x="681.6" y="141.0" type="line"/>
      <point x="841.6" y="141.0" type="line"/>
      <point x="841.6" y="205.0" type="line"/>
      <point x="681.6" y="205.0" type="line"/>
    </contour>
    <contour>
      <point x="841.6" y="245.0" type="line"/>
      <point x="841.6" y="333.3064"/>
      <point x="769.9064000000001" y="405.0"/>
      <point x="681.6" y="405.0" type="curve"/>
      <point x="681.6" y="245.0" type="line"/>
    </contour>
    <contour>
      <point x="681.6" y="205.0" type="line"/>
      <point x="841.6" y="205.0" type="line"/>
      <point x="841.6" y="245.0" type="line"/>
      <point x="681.6" y="245.0" type="line"/>
    </contour>
  </outline>
</glyph>
<glyph name="three_over_four" format="2">
  <advance width="1068.2"/>
  <unicode hex="00BE"/>
  <outline>
    <contour>
      <point x="186.6" y="280.0" type="curve" smooth="yes"/>
      <point x="186.6" y="326.91278"/>
      <point x="148.51278" y="365.0"/>
      <point x="101.6" y="365.0" type="curve" smooth="yes"/>
      <point x="54.68722" y="365.0"/>
      <point x="16.6" y="326.91278"/>
      <point x="16.6" y="280.0" type="curve" smooth="yes"/>
      <point x="16.6" y="233.08722"/>
      <point x="54.68722" y="195.0"/>
      <point x="101.6" y="195.0" type="curve" smooth="yes"/>
      <point x="148.51278" y="195.0"/>
      <point x="186.6" y="233.08722"/>
    </contour>
    <contour>
      <point x="186.6" y="720.0" type="curve" smooth="yes"/>
      <point x="186.6" y="766.91278"/>
      <point x="148.51278" y="805.0"/>
      <point x="101.6" y="805.0" type="curve" smooth="yes"/>
      <point x="54.68722" y="805.0"/>
      <point x="16.6" y="766.91278"/>
      <point x="16.6" y="720.0" type="curve" smooth="yes"/>
      <point x="16.6" y="673.08722"/>
      <point x="54.68722" y="635.0"/>
      <point x="101.6" y="635.0" type="curve" smooth="yes"/>
      <point x="148.51278" y="635.0"/>
      <point x="186.6" y="673.08722"/>
    </contour>
    <contour>
      <point x="226.6" y="195.0" type="line"/>
      <point x="314.9064" y="195.0"/>
      <point x="386.6" y="266.6936"/>
      <point x="386.6" y="355.0" type="curve"/>
      <point x="226.6" y="355.0" type="line"/>
    </contour>
    <contour>
      <point x="226.6" y="355.0" type="line"/>
      <point x="386.6" y="355.0" type="line"/>
      <point x="386.6" y="400.0" type="line"/>
      <point x="226.6" y="400.0" type="line"/>
    </contour>
    <contour>
      <point x="386.6" y="440.0" type="line"/>
      <point x="386.6" y="528.3064"/>
      <point x="314.9064" y="600.0"/>
      <point x="226.6" y="600.0" type="curve"/>
      <point x="226.6" y="440.0" type="line"/>
    </contour>
    <contour>
      <point x="226.6" y="400" type="line"/>
      <point x="386.6" y="400" type="line"/>
      <point x="386.6" y="440.0" type="line"/>
      <point x="226.6" y="440.0" type="line"/>
    </contour>
    <contour>
      <point x="226.6" y="600.0" type="line"/>
      <point x="314.9064" y="600.0"/>
      <point x="386.6" y="671.6936"/>
      <point x="386.6" y="760.0" type="curve"/>
      <point x="226.6" y="760.0" type="line"/>
    </contour>
    <contour>
      <point x="226.6" y="760.0" type="line"/>
      <point x="386.6" y="760.0" type="line"/>
      <point x="386.6" y="800.0" type="line"/>
      <point x="226.6" y="800.0" type="line"/>
    </contour>
    <contour>
      <point x="454.1" y="-200.0" type="line"/>
      <point x="542.4064" y="-200.0"/>
      <point x="614.1" y="-128.3064"/>
      <point x="614.1" y="-40.0" type="curve"/>
      <point x="454.1" y="-40.0" type="line"/>
    </contour>
    <contour>
      <point x="454.1" y="-40.0" type="line"/>
      <point x="614.1" y="-40.0" type="line"/>
      <point x="614.1" y="0.0" type="line"/>
      <point x="454.1" y="0.0" type="line"/>
    </contour>
    <contour>
      <point x="454.1" y="0" type="line"/>
      <point x="614.1" y="0" type="line"/>
      <point x="614.1" y="200" type="line"/>
      <point x="454.1" y="200" type="line"/>
    </contour>
    <contour>
      <point x="454.1" y="200" type="line"/>
      <point x="614.1" y="200" type="line"/>
      <point x="614.1" y="400" type="line"/>
      <point x="454.1" y="400" type="line"/>
    </contour>
    <contour>
      <point x="454.1" y="400" type="line"/>
      <point x="614.1" y="400" type="line"/>
      <point x="614.1" y="600" type="line"/>
      <point x="454.1" y="600" type="line"/>
    </contour>
    <contour>
      <point x="614.1" y="800.0" type="line"/>
      <point x="525.7936" y="800.0"/>
      <point x="454.1" y="728.3064"/>
      <point x="454.1" y="640.0" type="curve"/>
      <point x="614.1" y="640.0" type="line"/>
    </contour>
    <contour>
      <point x="454.1" y="600" type="line"/>
      <point x="614.1" y="600" type="line"/>
      <point x="614.1" y="640.0" type="line"/>
      <point x="454.1" y="640.0" type="line"/>
    </contour>
    <contour>
      <point x="681.6" y="0.0" type="line"/>
      <point x="769.9064000000001" y="0.0"/>
      <point x="841.6" y="71.6936"/>
      <point x="841.6" y="160.0" type="curve"/>
      <point x="681.6" y="160.0" type="line"/>
    </contour>
    <contour>
      <point x="681.6" y="160.0" type="line"/>
      <point x="841.6" y="160.0" type="line"/>
      <point x="841.6" y="200.0" type="line"/>
      <point x="681.6" y="200.0" type="line"/>
    </contour>
    <contour>
      <point x="681.6" y="200" type="line"/>
      <point x="841.6" y="200" type="line"/>
      <point x="841.6" y="400" type="line"/>
      <point x="681.6" y="400" type="line"/>
    </contour>
    <contour>
      <point x="886.6" y="-200" type="line"/>
      <point x="1046.6" y="-200" type="line"/>
      <point x="1046.6" y="0" type="line"/>
      <point x="886.6" y="0" type="line"/>
    </contour>
    <contour>
      <point x="886.6" y="0" type="line"/>
      <point x="1046.6" y="0" type="line"/>
      <point x="1046.6" y="200" type="line"/>
      <point x="886.6" y="200" type="line"/>
    </contour>
  </outline>
</glyph>
<glyph name="invquestion" format="2">
  <advance width="453.2"/>
  <unicode hex="00BF"/>
  <outline>
    <contour>
      <point x="44.1" y="-45.0" type="line"/>
      <point x="44.1" y="-133.3064"/>
      <point x="115.7936" y="-205.0"/>
      <point x="204.1" y="-205.0" type="curve"/>
      <point x="204.1" y="-45.0" type="line"/>
    </contour>
    <contour>
      <point x="44.1" y="-45.0" type="line"/>
      <point x="204.1" y="-45.0" type="line"/>
      <point x="204.1" y="-5.0" type="line"/>
      <point x="44.1" y="-5.0" type="line"/>
    </contour>
    <contour>
      <point x="204.1" y="195.0" type="line"/>
      <point x="115.7936" y="195.0"/>
      <point x="44.1" y="123.3064"/>
      <point x="44.1" y="35.0" type="curve"/>
      <point x="204.1" y="35.0" type="line"/>
    </contour>
    <contour>
      <point x="44.1" y="-5.0" type="line"/>
      <point x="204.1" y="-5.0" type="line"/>
      <point x="204.1" y="35.0" type="line"/>
      <point x="44.1" y="35.0" type="line"/>
    </contour>
    <contour>
      <point x="414.1" y="-132.5" type="curve" smooth="yes"/>
      <point x="414.1" y="-85.58722"/>
      <point x="376.01278" y="-47.5"/>
      <point x="329.1" y="-47.5" type="curve" smooth="yes"/>
      <point x="282.18722" y="-47.5"/>
      <point x="244.1" y="-85.58722"/>
      <point x="244.1" y="-132.5" type="curve" smooth="yes"/>
      <point x="244.1" y="-179.41278"/>
      <point x="282.18722" y="-217.5"/>
      <point x="329.1" y="-217.5" type="curve" smooth="yes"/>
      <point x="376.01278" y="-217.5"/>
      <point x="414.1" y="-179.41278"/>
    </contour>
    <contour>
      <point x="249.1" y="40.0" type="line"/>
      <point x="337.4064" y="40.0"/>
      <point x="409.1" y="111.6936"/>
      <point x="409.1" y="200.0" type="curve"/>
      <point x="249.1" y="200.0" type="line"/>
    </contour>
    <contour>
      <point x="249.1" y="200" type="line"/>
      <point x="409.1" y="200" type="line"/>
      <point x="409.1" y="395.83333" type="line"/>
      <point x="249.1" y="395.83333" type="line"/>
    </contour>
    <contour>
      <point x="414.1" y="526.25" type="curve" smooth="yes"/>
      <point x="414.1" y="573.16278"/>
      <point x="376.01278" y="611.25"/>
      <point x="329.1" y="611.25" type="curve" smooth="yes"/>
      <point x="282.18722" y="611.25"/>
      <point x="244.1" y="573.16278"/>
      <point x="244.1" y="526.25" type="curve" smooth="yes"/>
      <point x="244.1" y="479.33722"/>
      <point x="282.18722" y="441.25"/>
      <point x="329.1" y="441.25" type="curve" smooth="yes"/>
      <point x="376.01278" y="441.25"/>
      <point x="414.1" y="479.33722"/>
    </contour>
  </outline>
</glyph>
<glyph name="A_with_grave" format="2">
  <advance width="453.2"/>
  <unicode hex="00C0"/>
  <outline>
    <contour>
      <point x="44.1" y="0" type="line"/>
      <point x="204.1" y="0" type="line"/>
      <point x="204.1" y="200" type="line"/>
      <point x="44.1" y="200" type="line"/>
    </contour>
    <contour>
      <point x="44.1" y="200" type="line"/>
      <point x="204.1" y="200" type="line"/>
      <point x="204.1" y="400" type="line"/>
      <point x="44.1" y="400" type="line"/>
    </contour>
    <contour>
      <point x="44.1" y="400" type="line"/>
      <point x="204.1" y="400" type="line"/>
      <point x="204.1" y="605.0" type="line"/>
      <point x="44.1" y="605.0" type="line"/>
    </contour>
    <contour>
      <point x="204.1" y="805.0" type="line"/>
      <point x="115.7936" y="805.0"/>
      <point x="44.1" y="733.3064"/>
      <point x="44.1" y="645.0" type="curve"/>
      <point x="204.1" y="645.0" type="line"/>
    </contour>
    <contour>
      <point x="44.1" y="605.0" type="line"/>
      <point x="204.1" y="605.0" type="line"/>
      <point x="204.1" y="645.0" type="line"/>
      <point x="44.1" y="645.0" type="line"/>
    </contour>
    <contour>
      <point x="249.1" y="0" type="line"/>
      <point x="409.1" y="0" type="line"/>
      <point x="409.1" y="200" type="line"/>
      <point x="249.1" y="200" type="line"/>
    </contour>
    <contour>
      <point x="249.1" y="200" type="line"/>
      <point x="409.1" y="200" type="line"/>
      <point x="409.1" y="400" type="line"/>
      <point x="249.1" y="400" type="line"/>
    </contour>
    <contour>
      <point x="249.1" y="400" type="line"/>
      <point x="409.1" y="400" type="line"/>
      <point x="409.1" y="605.0" type="line"/>
      <point x="249.1" y="605.0" type="line"/>
    </contour>
    <contour>
      <point x="409.1" y="645.0" type="line"/>
      <point x="409.1" y="733.3064"/>
      <point x="337.4064" y="805.0"/>
      <point x="249.1" y="805.0" type="curve"/>
      <point x="249.1" y="645.0" type="line"/>
    </contour>
    <contour>
      <point x="249.1" y="605.0" type="line"/>
      <point x="409.1" y="605.0" type="line"/>
      <point x="409.1" y="645.0" type="line"/>
      <point x="249.1" y="645.0" type="line"/>
    </contour>
    <contour>
      <point x="76.6" y="998.8888888888889" type="line"/>
      <point x="76.6" y="910.582488888889"/>
      <point x="148.2936" y="838.8888888888889"/>
      <point x="236.6" y="838.8888888888889" type="curve"/>
      <point x="236.6" y="998.8888888888889" type="line"/>
    </contour>
  </outline>
</glyph>
<glyph name="A_with_diaeresis" format="2">
  <advance width="453.2"/>
  <unicode hex="00C4"/>
  <outline>
    <contour>
      <point x="44.1" y="0" type="line"/>
      <point x="204.1" y="0" type="line"/>
      <point x="204.1" y="200" type="line"/>
      <point x="44.1" y="200" type="line"/>
    </contour>
    <contour>
      <point x="44.1" y="200" type="line"/>
      <point x="204.1" y="200" type="line"/>
      <point x="204.1" y="400" type="line"/>
      <point x="44.1" y="400" type="line"/>
    </contour>
    <contour>
      <point x="44.1" y="400" type="line"/>
      <point x="204.1" y="400" type="line"/>
      <point x="204.1" y="605.0" type="line"/>
      <point x="44.1" y="605.0" type="line"/>
    </contour>
    <contour>
      <point x="204.1" y="805.0" type="line"/>
      <point x="115.7936" y="805.0"/>
      <point x="44.1" y="733.3064"/>
      <point x="44.1" y="645.0" type="curve"/>
      <point x="204.1" y="645.0" type="line"/>
    </contour>
    <contour>
      <point x="44.1" y="605.0" type="line"/>
      <point x="204.1" y="605.0" type="line"/>
      <point x="204.1" y="645.0" type="line"/>
      <point x="44.1" y="645.0" type="line"/>
    </contour>
    <contour>
      <point x="249.1" y="0" type="line"/>
      <point x="409.1" y="0" type="line"/>
      <point x="409.1" y="200" type="line"/>
      <point x="249.1" y="200" type="line"/>
    </contour>
    <contour>
      <point x="249.1" y="200" type="line"/>
      <point x="409.1" y="200" type="line"/>
      <point x="409.1" y="400" type="line"/>
      <point x="249.1" y="400" type="line"/>
    </contour>
    <contour>
      <point x="249.1" y="400" type="line"/>
      <point x="409.1" y="400" type="line"/>
      <point x="409.1" y="605.0" type="line"/>
      <point x="249.1" y="605.0" type="line"/>
    </contour>
    <contour>
      <point x="409.1" y="645.0" type="line"/>
      <point x="409.1" y="733.3064"/>
      <point x="337.4064" y="805.0"/>
      <point x="249.1" y="805.0" type="curve"/>
      <point x="249.1" y="645.0" type="line"/>
    </contour>
    <contour>
      <point x="249.1" y="605.0" type="line"/>
      <point x="409.1" y="605.0" type="line"/>
      <point x="409.1" y="645.0" type="line"/>
      <point x="249.1" y="645.0" type="line"/>
    </contour>
    <contour>
      <point x="209.1" y="918.8888888888889" type="curve" smooth="yes"/>
      <point x="209.1" y="965.8016688888889"/>
      <point x="171.01278" y="1003.8888888888889"/>
      <point x="124.1" y="1003.8888888888889" type="curve" smooth="yes"/>
      <point x="77.18722" y="1003.8888888888889"/>
      <point x="39.099999999999994" y="965.8016688888889"/>
      <point x="39.099999999999994" y="918.8888888888889" type="curve" smooth="yes"/>
      <point x="39.099999999999994" y="871.9761088888889"/>
      <point x="77.18722" y="833.8888888888889"/>
      <point x="124.1" y="833.8888888888889" type="curve" smooth="yes"/>
      <point x="171.01278" y="833.8888888888889"/>
      <point x="209.1" y="871.9761088888889"/>
    </contour>
    <contour>
      <point x="414.1" y="918.8888888888889" type="curve" smooth="yes"/>
      <point x="414.1" y="965.8016688888889"/>
      <point x="376.01278" y="1003.8888888888889"/>
      <point x="329.1" y="1003.8888888888889" type="curve" smooth="yes"/>
      <point x="282.18722" y="1003.8888888888889"/>
      <point x="244.1" y="965.8016688888889"/>
      <point x="244.1" y="918.8888888888889" type="curve" smooth="yes"/>
      <point x="244.1" y="871.9761088888889"/>
      <point x="282.18722" y="833.8888888888889"/>
      <point x="329.1" y="833.8888888888889" type="curve" smooth="yes"/>
      <point x="376.01278" y="833.8888888888889"/>
      <point x="414.1" y="871.9761088888889"/>
    </contour>
  </outline>
</glyph>
<glyph name="A_with_ring" format="2">
  <advance width="453.2"/>
  <unicode hex="00C5"/>
  <outline>
    <contour>
      <point x="44.1" y="0" type="line"/>
      <point x="204.1" y="0" type="line"/>
      <point x="204.1" y="200" type="line"/>
      <point x="44.1" y="200" type="line"/>
    </contour>
    <contour>
      <point x="44.1" y="200" type="line"/>
      <point x="204.1" y="200" type="line"/>
      <point x="204.1" y="400" type="line"/>
      <point x="44.1" y="400" type="line"/>
    </contour>
    <contour>
      <point x="44.1" y="400" type="line"/>
      <point x="204.1" y="400" type="line"/>
      <point x="204.1" y="605.0" type="line"/>
      <point x="44.1" y="605.0" type="line"/>
    </contour>
    <contour>
      <point x="204.1" y="805.0" type="line"/>
      <point x="115.7936" y="805.0"/>
      <point x="44.1" y="733.3064"/>
      <point x="44.1" y="645.0" type="curve"/>
      <point x="204.1" y="645.0" type="line"/>
    </contour>
    <contour>
      <point x="44.1" y="605.0" type="line"/>
      <point x="204.1" y="605.0" type="line"/>
      <point x="204.1" y="645.0" type="line"/>
      <point x="44.1" y="645.0" type="line"/>
    </contour>
    <contour>
      <point x="249.1" y="0" type="line"/>
      <point x="409.1" y="0" type="line"/>
      <point x="409.1" y="200" type="line"/>
      <point x="249.1" y="200" type="line"/>
    </contour>
    <contour>
      <point x="249.1" y="200" type="line"/>
      <point x="409.1" y="200" type="line"/>
      <point x="409.1" y="400" type="line"/>
      <point x="249.1" y="400" type="line"/>
    </contour>
    <contour>
      <point x="249.1" y="400" type="line"/>
      <point x="409.1" y="400" type="line"/>
      <point x="409.1" y="605.0" type="line"/>
      <point x="249.1" y="605.0" type="line"/>
    </contour>
    <contour>
      <point x="409.1" y="645.0" type="line"/>
      <point x="409.1" y="733.3064"/>
      <point x="337.4064" y="805.0"/>
      <point x="249.1" y="805.0" type="curve"/>
      <point x="249.1" y="645.0" type="line"/>
    </contour>
    <contour>
      <point x="249.1" y="605.0" type="line"/>
      <point x="409.1" y="605.0" type="line"/>
      <point x="409.1" y="645.0" type="line"/>
      <point x="249.1" y="645.0" type="line"/>
    </contour>
    <contour>
      <point x="204.1" y="1003.8888888888889" type="line"/>
      <point x="157.18722" y="1003.8888888888889"/>
      <point x="119.1" y="965.8016688888889"/>
      <point x="119.1" y="918.8888888888889" type="curve" smooth="yes"/>
      <point x="119.1" y="871.9761088888889"/>
      <point x="157.18722" y="833.8888888888889"/>
      <point x="204.1" y="833.8888888888889" type="curve"/>
    </contour>
    <contour>
      <point x="249.1" y="833.8888888888889" type="line"/>
      <point x="296.01278" y="833.8888888888889"/>
      <point x="334.1" y="871.9761088888889"/>
      <point x="334.1" y="918.8888888888889" type="curve" smooth="yes"/>
      <point x="334.1" y="965.8016688888889"/>
      <point x="296.01278" y="1003.8888888888889"/>
      <point x="249.1" y="1003.8888888888889" type="curve"/>
    </contour>
  </outline>
</glyph>
<glyph name="C_with_cedilla" format="2">
  <advance width="453.2"/>
  <unicode hex="00C7"/>
  <outline>
    <contour>
      <point x="44.1" y="160.0" type="line"/>
      <point x="44.1" y="71.6936"/>
      <point x="115.7936" y="0.0"/>
      <point x="204.1" y="0.0" type="curve"/>
      <point x="204.1" y="160.0" type="line"/>
    </contour>
    <contour>
      <point x="44.1" y="160.0" type="line"/>
      <point x="204.1" y="160.0" type="line"/>
      <point x="204.1" y="200.0" type="line"/>
      <point x="44.1" y="200.0" type="line"/>
    </contour>
    <contour>
      <point x="44.1" y="200" type="line"/>
      <point x="204.1" y="200" type="line"/>
      <point x="204.1" y="400" type="line"/>
      <point x="44.1" y="400" type="line"/>
    </contour>
    <contour>
      <point x="44.1" y="400" type="line"/>
      <point x="204.1" y="400" type="line"/>
      <point x="204.1" y="600" type="line"/>
      <point x="44.1" y="600" type="line"/>
    </contour>
    <contour>
      <point x="204.1" y="800.0" type="line"/>
      <point x="115.7936" y="800.0"/>
      <point x="44.1" y="728.3064"/>
      <point x="44.1" y="640.0" type="curve"/>
      <point x="204.1" y="640.0" type="line"/>
    </contour>
    <contour>
      <point x="44.1" y="600" type="line"/>
      <point x="204.1" y="600" type="line"/>
      <point x="204.1" y="640.0" type="line"/>
      <point x="44.1" y="640.0" type="line"/>
    </contour>
    <contour>
      <point x="409.1" y="160.0" type="line"/>
      <point x="320.7936" y="160.0"/>
      <point x="249.1" y="88.3064"/>
      <point x="249.1" y="0.0" type="curve"/>
      <point x="409.1" y="0.0" type="line"/>
    </contour>
    <contour>
      <point x="249.1" y="600.0" type="line"/>
      <point x="249.1" y="511.6936"/>
      <point x="320.7936" y="440.0"/>
      <point x="409.1" y="440.0" type="curve"/>
      <point x="409.1" y="600.0" type="line"/>
    </contour>
    <contour>
      <point x="249.1" y="600" type="line"/>
      <point x="409.1" y="600" type="line"/>
      <point x="409.1" y="800" type="line"/>
      <point x="249.1" y="800" type="line"/>
    </contour>
    <contour>
      <point x="376.6" y="-185.0" type="line"/>
      <point x="376.6" y="-96.6936"/>
      <point x="304.90639999999996" y="-25.0"/>
      <point x="216.6" y="-25.0" type="curve"/>
      <point x="216.6" y="-185.0" type="line"/>
    </contour>
  </outline>
</glyph>
<glyph name="E_with_grave" format="2">
  <advance width="453.2"/>
  <unicode hex="00C8"/>
  <outline>
    <contour>
      <point x="44.1" y="0" type="line"/>
      <point x="204.1" y="0" type="line"/>
      <point x="204.1" y="200" type="line"/>
      <point x="44.1" y="200" type="line"/>
    </contour>
    <contour>
      <point x="44.1" y="200" type="line"/>
      <point x="204.1" y="200" type="line"/>
      <point x="204.1" y="400" type="line"/>
      <point x="44.1" y="400" type="line"/>
    </contour>
    <contour>
      <point x="44.1" y="400" type="line"/>
      <point x="204.1" y="400" type="line"/>
      <point x="204.1" y="600" type="line"/>
      <point x="44.1" y="600" type="line"/>
    </contour>
    <contour>
      <point x="44.1" y="600" type="line"/>
      <point x="204.1" y="600" type="line"/>
      <point x="204.1" y="800" type="line"/>
      <point x="44.1" y="800" type="line"/>
    </contour>
    <contour>
      <point x="409.1" y="160.0" type="line"/>
      <point x="320.7936" y="160.0"/>
      <point x="249.1" y="88.3064"/>
      <point x="249.1" y="0.0" type="curve"/>
      <point x="409.1" y="0.0" type="line"/>
    </contour>
    <contour>
      <point x="249.1" y="480.0" type="line"/>
      <point x="249.1" y="391.6936"/>
      <point x="320.7936" y="320.0"/>
      <point x="409.1" y="320.0" type="curve"/>
      <point x="409.1" y="480.0" type="line"/>
    </contour>
    <contour>
      <point x="249.1" y="800.0" type="line"/>
      <point x="249.1" y="711.6936"/>
      <point x="320.7936" y="640.0"/>
      <point x="409.1" y="640.0" type="curve"/>
      <point x="409.1" y="800.0" type="line"/>
    </contour>
    <contour>
      <point x="76.6" y="998.8888888888889" type="line"/>
      <point x="76.6" y="910.582488888889"/>
      <point x="148.2936" y="838.8888888888889"/>
      <point x="236.6" y="838.8888888888889" type="curve"/>
      <point x="236.6" y="998.8888888888889" type="line"/>
    </contour>
  </outline>
</glyph>
<glyph name="I_with_circumflex" format="2">
  <advance width="248.2"/>
  <unicode hex="00CE"/>
  <outline>
    <contour>
      <point x="44.1" y="0" type="line"/>
      <point x="204.1" y="0" type="line"/>
      <point x="204.1" y="200" type="line"/>
      <point x="44.1" y="200" type="line"/>
    </contour>
    <contour>
      <point x="44.1" y="200" type="line"/>
      <point x="204.1" y="200" type="line"/>
      <point x="204.1" y="400" type="line"/>
      <point x="44.1" y="400" type="line"/>
    </contour>
    <contour>
      <point x="44.1" y="400" type="line"/>
      <point x="204.1" y="400" type="line"/>
      <point x="204.1" y="600" type="line"/>
      <point x="44.1" y="600" type="line"/>
    </contour>
    <contour>
      <point x="44.1" y="600" type="line"/>
      <point x="204.1" y="600" type="line"/>
      <point x="204.1" y="800" type="line"/>
      <point x="44.1" y="800" type="line"/>
    </contour>
    <contour>
      <point x="-40.900000000000006" y="838.8888888888889" type="line"/>
      <point x="47.40639999999999" y="838.8888888888889"/>
      <point x="119.1" y="910.582488888889"/>
      <point x="119.1" y="998.8888888888889" type="curve"/>
      <point x="-40.900000000000006" y="998.8888888888889" type="line"/>
    </contour>
    <contour>
      <point x="129.1" y="998.8888888888889" type="line"/>
      <point x="129.1" y="910.582488888889"/>
      <point x="200.7936" y="838.8888888888889"/>
      <point x="289.1" y="838.8888888888889" type="curve"/>
      <point x="289.1" y="998.8888888888889" type="line"/>
    </contour>
  </outline>
</glyph>
<glyph name="I_with_diaeresis" format="2">
  <advance width="248.2"/>
  <unicode hex="00CF"/>
  <outline>
    <contour>
      <point x="44.1" y="0" type="line"/>
      <point x="204.1" y="0" type="line"/>
      <point x="204.1" y="200" type="line"/>
      <point x="44.1" y="200" type="line"/>
    </contour>
    <contour>
      <point x="44.1" y="200" type="line"/>
      <point x="204.1" y="200" type="line"/>
      <point x="204.1" y="400" type="line"/>
      <point x="44.1" y="400" type="line"/>
    </contour>
    <contour>
      <point x="44.1" y="400" type="line"/>
      <point x="204.1" y="400" type="line"/>
      <point x="204.1" y="600" type="line"/>
      <point x="44.1" y="600" type="line"/>
    </contour>
    <contour>
      <point x="44.1" y="600" type="line"/>
      <point x="204.1" y="600" type="line"/>
      <point x="204.1" y="800" type="line"/>
      <point x="44.1" y="800" type="line"/>
    </contour>
    <contour>
      <point x="106.6" y="918.8888888888889" type="curve" smooth="yes"/>
      <point x="106.6" y="965.8016688888889"/>
      <point x="68.51277999999999" y="1003.8888888888889"/>
      <point x="21.599999999999994" y="1003.8888888888889" type="curve" smooth="yes"/>
      <point x="-25.312780000000004" y="1003.8888888888889"/>
      <point x="-63.400000000000006" y="965.8016688888889"/>
      <point x="-63.400000000000006" y="918.8888888888889" type="curve" smooth="yes"/>
      <point x="-63.400000000000006" y="871.9761088888889"/>
      <point x="-25.312780000000004" y="833.8888888888889"/>
      <point x="21.599999999999994" y="833.8888888888889" type="curve" smooth="yes"/>
      <point x="68.51277999999999" y="833.8888888888889"/>
      <point x="106.6" y="871.9761088888889"/>
    </contour>
    <contour>
      <point x="311.6" y="918.8888888888889" type="curve" smooth="yes"/>
      <point x="311.6" y="965.8016688888889"/>
      <point x="273.51278" y="1003.8888888888889"/>
      <point x="226.6" y="1003.8888888888889" type="curve" smooth="yes"/>
      <point x="179.68722" y="1003.8888888888889"/>
      <point x="141.6" y="965.8016688888889"/>
      <point x="141.6" y="918.8888888888889" type="curve" smooth="yes"/>
      <point x="141.6" y="871.9761088888889"/>
      <point x="179.68722" y="833.8888888888889"/>
      <point x="226.6" y="833.8888888888889" type="curve" smooth="yes"/>
      <point x="273.51278" y="833.8888888888889"/>
      <point x="311.6" y="871.9761088888889"/>
    </contour>
  </outline>
</glyph>
<glyph name="ETH" format="2">
  <advance width="658.2"/>
  <unicode hex="00D0"/>
  <outline>
    <contour>
      <point x="304.1" y="480.0" type="line"/>
      <point x="215.7936" y="480.0"/>
      <point x="144.1" y="408.3064"/>
      <point x="144.1" y="320.0" type="curve"/>
      <point x="304.1" y="320.0" type="line"/>
    </contour>
    <contour>
      <point x="249.1" y="0" type="line"/>
      <point x="409.1" y="0" type="line"/>
      <point x="409.1" y="200" type="line"/>
      <point x="249.1" y="200" type="line"/>
    </contour>
    <contour>
      <point x="249.1" y="200" type="line"/>
      <point x="409.1" y="200" type="line"/>
      <point x="409.1" y="400" type="line"/>
      <point x="249.1" y="400" type="line"/>
    </contour>
    <contour>
      <point x="249.1" y="400" type="line"/>
      <point x="409.1" y="400" type="line"/>
      <point x="409.1" y="600" type="line"/>
      <point x="249.1" y="600" type="line"/>
    </contour>
    <contour>
      <point x="249.1" y="600" type="line"/>
      <point x="409.1" y="600" type="line"/>
      <point x="409.1" y="800" type="line"/>
      <point x="249.1" y="800" type="line"/>
    </contour>
    <contour>
      <point x="454.1" y="0.0" type="line"/>
      <point x="542.4064" y="0.0"/>
      <point x="614.1" y="71.6936"/>
      <point x="614.1" y="160.0" type="curve"/>
      <point x="454.1" y="160.0" type="line"/>
    </contour>
    <contour>
      <point x="454.1" y="160.0" type="line"/>
      <point x="614.1" y="160.0" type="line"/>
      <point x="614.1" y="200.0" type="line"/>
      <point x="454.1" y="200.0" type="line"/>
    </contour>
    <contour>
      <point x="454.1" y="200" type="line"/>
      <point x="614.1" y="200" type="line"/>
      <point x="614.1" y="400" type="line"/>
      <point x="454.1" y="400" type="line"/>
    </contour>
    <contour>
      <point x="454.1" y="400" type="line"/>
      <point x="614.1" y="400" type="line"/>
      <point x="614.1" y="600" type="line"/>
      <point x="454.1" y="600" type="line"/>
    </contour>
    <contour>
      <point x="614.1" y="640.0" type="line"/>
      <point x="614.1" y="728.3064"/>
      <point x="542.4064" y="800.0"/>
      <point x="454.1" y="800.0" type="curve"/>
      <point x="454.1" y="640.0" type="line"/>
    </contour>
    <contour>
      <point x="454.1" y="600" type="line"/>
      <point x="614.1" y="600" type="line"/>
      <point x="614.1" y="640.0" type="line"/>
      <point x="454.1" y="640.0" type="line"/>
    </contour>
  </outline>
</glyph>
<glyph name="O_with_smalltilde" format="2">
  <advance width="453.2"/>
  <unicode hex="00D5"/>
  <outline>
    <contour>
      <point x="44.1" y="155.0" type="line"/>
      <point x="44.1" y="66.6936"/>
      <point x="115.7936" y="-5.0"/>
      <point x="204.1" y="-5.0" type="curve"/>
      <point x="204.1" y="155.0" type="line"/>
    </contour>
    <contour>
      <point x="44.1" y="155.0" type="line"/>
      <point x="204.1" y="155.0" type="line"/>
      <point x="204.1" y="195.0" type="line"/>
      <point x="44.1" y="195.0" type="line"/>
    </contour>
    <contour>
      <point x="44.1" y="195.0" type="line"/>
      <point x="204.1" y="195.0" type="line"/>
      <point x="204.1" y="400.0" type="line"/>
      <point x="44.1" y="400.0" type="line"/>
    </contour>
    <contour>
      <point x="44.1" y="400" type="line"/>
      <point x="204.1" y="400" type="line"/>
      <point x="204.1" y="605.0" type="line"/>
      <point x="44.1" y="605.0" type="line"/>
    </contour>
    <contour>
      <point x="204.1" y="805.0" type="line"/>
      <point x="115.7936" y="805.0"/>
      <point x="44.1" y="733.3064"/>
      <point x="44.1" y="645.0" type="curve"/>
      <point x="204.1" y="645.0" type="line"/>
    </contour>
    <contour>
      <point x="44.1" y="605.0" type="line"/>
      <point x="204.1" y="605.0" type="line"/>
      <point x="204.1" y="645.0" type="line"/>
      <point x="44.1" y="645.0" type="line"/>
    </contour>
    <contour>
      <point x="249.1" y="-5.0" type="line"/>
      <point x="337.4064" y="-5.0"/>
      <point x="409.1" y="66.6936"/>
      <point x="409.1" y="155.0" type="curve"/>
      <point x="249.1" y="155.0" type="line"/>
    </contour>
    <contour>
      <point x="249.1" y="155.0" type="line"/>
      <point x="409.1" y="155.0" type="line"/>
      <point x="409.1" y="195.0" type="line"/>
      <point x="249.1" y="195.0" type="line"/>
    </contour>
    <contour>
      <point x="249.1" y="195.0" type="line"/>
      <point x="409.1" y="195.0" type="line"/>
      <point x="409.1" y="400.0" type="line"/>
      <point x="249.1" y="400.0" type="line"/>
    </contour>
    <contour>
      <point x="249.1" y="400" type="line"/>
      <point x="409.1" y="400" type="line"/>
      <point x="409.1" y="605.0" type="line"/>
      <point x="249.1" y="605.0" type="line"/>
    </contour>
    <contour>
      <point x="409.1" y="645.0" type="line"/>
      <point x="409.1" y="733.3064"/>
      <point x="337.4064" y="805.0"/>
      <point x="249.1" y="805.0" type="curve"/>
      <point x="249.1" y="645.0" type="line"/>
    </contour>
    <contour>
      <point x="249.1" y="605.0" type="line"/>
      <point x="409.1" y="605.0" type="line"/>
      <point x="409.1" y="645.0" type="line"/>
      <point x="249.1" y="645.0" type="line"/>
    </contour>
    <contour>
      <point x="226.6" y="998.8888888888889" type="line"/>
      <point x="138.2936" y="998.8888888888889"/>
      <point x="66.6" y="927.1952888888889"/>
      <point x="66.6" y="838.8888888888889" type="curve"/>
      <point x="226.6" y="838.8888888888889" type="line"/>
    </contour>
    <contour>
      <point x="226.6" y="838.8888888888889" type="line"/>
      <point x="314.90639999999996" y="838.8888888888889"/>
      <point x="386.6" y="910.582488888889"/>
      <point x="386.6" y="998.8888888888889" type="curve"/>
      <point x="226.6" y="998.8888888888889" type="line"/>
    </contour>
  </outline>
</glyph>
<glyph name="O_with_stroke" format="2">
  <advance width="453.2"/>
  <unicode hex="00D8"/>
  <outline>
    <contour>
      <point x="44.1" y="155.0" type="line"/>
      <point x="44.1" y="66.6936"/>
      <point x="115.7936" y="-5.0"/>
      <point x="204.1" y="-5.0" type="curve"/>
      <point x="204.1" y="155.0" type="line"/>
    </contour>
    <contour>
      <point x="44.1" y="155.0" type="line"/>
      <point x="204.1" y="155.0" type="line"/>
      <point x="204.1" y="195.0" type="line"/>
      <point x="44.1" y="195.0" type="line"/>
    </contour>
    <contour>
      <point x="44.1" y="195.0" type="line"/>
      <point x="204.1" y="195.0" type="line"/>
      <point x="204.1" y="400.0" type="line"/>
      <point x="44.1" y="400.0" type="line"/>
    </contour>
    <contour>
      <point x="44.1" y="400" type="line"/>
      <point x="204.1" y="400" type="line"/>
      <point x="204.1" y="605.0" type="line"/>
      <point x="44.1" y="605.0" type="line"/>
    </contour>
    <contour>
      <point x="204.1" y="805.0" type="line"/>
      <point x="115.7936" y="805.0"/>
      <point x="44.1" y="733.3064"/>
      <point x="44.1" y="645.0" type="curve"/>
      <point x="204.1" y="645.0" type="line"/>
    </contour>
    <contour>
      <point x="44.1" y="605.0" type="line"/>
      <point x="204.1" y="605.0" type="line"/>
      <point x="204.1" y="645.0" type="line"/>
      <point x="44.1" y="645.0" type="line"/>
    </contour>
    <contour>
      <point x="164.1" y="80.0" type="line"/>
      <point x="75.7936" y="80.0"/>
      <point x="4.100000000000001" y="8.3064"/>
      <point x="4.100000000000001" y="-80.0" type="curve"/>
      <point x="164.1" y="-80.0" type="line"/>
    </contour>
    <contour>
      <point x="249.1" y="-5.0" type="line"/>
      <point x="337.4064" y="-5.0"/>
      <point x="409.1" y="66.6936"/>
      <point x="409.1" y="155.0" type="curve"/>
      <point x="249.1" y="155.0" type="line"/>
    </contour>
    <contour>
      <point x="249.1" y="155.0" type="line"/>
      <point x="409.1" y="155.0" type="line"/>
      <point x="409.1" y="195.0" type="line"/>
      <point x="249.1" y="195.0" type="line"/>
    </contour>
    <contour>
      <point x="249.1" y="195.0" type="line"/>
      <point x="409.1" y="195.0" type="line"/>
      <point x="409.1" y="400.0" type="line"/>
      <point x="249.1" y="400.0" type="line"/>
    </contour>
    <contour>
      <point x="249.1" y="400" type="line"/>
      <point x="409.1" y="400" type="line"/>
      <point x="409.1" y="605.0" type="line"/>
      <point x="249.1" y="605.0" type="line"/>
    </contour>
    <contour>
      <point x="409.1" y="645.0" type="line"/>
      <point x="409.1" y="733.3064"/>
      <point x="337.4064" y="805.0"/>
      <point x="249.1" y="805.0" type="curve"/>
      <point x="249.1" y="645.0" type="line"/>
    </contour>
    <contour>
      <point x="249.1" y="605.0" type="line"/>
      <point x="409.1" y="605.0" type="line"/>
      <point x="409.1" y="645.0" type="line"/>
      <point x="249.1" y="645.0" type="line"/>
    </contour>
    <contour>
      <point x="289.1" y="720.0" type="line"/>
      <point x="377.4064" y="720.0"/>
      <point x="449.1" y="791.6936"/>
      <point x="449.1" y="880.0" type="curve"/>
      <point x="289.1" y="880.0" type="line"/>
    </contour>
  </outline>
</glyph>
<glyph name="U_with_grave" format="2">
  <advance width="453.2"/>
  <unicode hex="00D9"/>
  <outline>
    <contour>
      <point x="44.1" y="155.0" type="line"/>
      <point x="44.1" y="66.6936"/>
      <point x="115.7936" y="-5.0"/>
      <point x="204.1" y="-5.0" type="curve"/>
      <point x="204.1" y="155.0" type="line"/>
    </contour>
    <contour>
      <point x="44.1" y="155.0" type="line"/>
      <point x="204.1" y="155.0" type="line"/>
      <point x="204.1" y="195.0" type="line"/>
      <point x="44.1" y="195.0" type="line"/>
    </contour>
    <contour>
      <point x="44.1" y="195.0" type="line"/>
      <point x="204.1" y="195.0" type="line"/>
      <point x="204.1" y="400.0" type="line"/>
      <point x="44.1" y="400.0" type="line"/>
    </contour>
    <contour>
      <point x="44.1" y="400" type="line"/>
      <point x="204.1" y="400" type="line"/>
      <point x="204.1" y="600" type="line"/>
      <point x="44.1" y="600" type="line"/>
    </contour>
    <contour>
      <point x="44.1" y="600" type="line"/>
      <point x="204.1" y="600" type="line"/>
      <point x="204.1" y="800" type="line"/>
      <point x="44.1" y="800" type="line"/>
    </contour>
    <contour>
      <point x="249.1" y="-5.0" type="line"/>
      <point x="337.4064" y="-5.0"/>
      <point x="409.1" y="66.6936"/>
      <point x="409.1" y="155.0" type="curve"/>
      <point x="249.1" y="155.0" type="line"/>
    </contour>
    <contour>
      <point x="249.1" y="155.0" type="line"/>
      <point x="409.1" y="155.0" type="line"/>
      <point x="409.1" y="195.0" type="line"/>
      <point x="249.1" y="195.0" type="line"/>
    </contour>
    <contour>
      <point x="249.1" y="195.0" type="line"/>
      <point x="409.1" y="195.0" type="line"/>
      <point x="409.1" y="400.0" type="line"/>
      <point x="249.1" y="400.0" type="line"/>
    </contour>
    <contour>
      <point x="249.1" y="400" type="line"/>
      <point x="409.1" y="400" type="line"/>
      <point x="409.1" y="600" type="line"/>
      <point x="249.1" y="600" type="line"/>
    </contour>
    <contour>
      <point x="249.1" y="600" type="line"/>
      <point x="409.1" y="600" type="line"/>
      <point x="409.1" y="800" type="line"/>
      <point x="249.1" y="800" type="line"/>
    </contour>
    <contour>
      <point x="76.6" y="998.8888888888889" type="line"/>
      <point x="76.6" y="910.582488888889"/>
      <point x="148.2936" y="838.8888888888889"/>
      <point x="236.6" y="838.8888888888889" type="curve"/>
      <point x="236.6" y="998.8888888888889" type="line"/>
    </contour>
  </outline>
</glyph>
<glyph name="THORN" format="2">
  <advance width="453.2"/>
  <unicode hex="00DE"/>
  <outline>
    <contour>
      <point x="44.1" y="0" type="line"/>
      <point x="204.1" y="0" type="line"/>
      <point x="204.1" y="200" type="line"/>
      <point x="44.1" y="200" type="line"/>
    </contour>
    <contour>
      <point x="44.1" y="200" type="line"/>
      <point x="204.1" y="200" type="line"/>
      <point x="204.1" y="400" type="line"/>
      <point x="44.1" y="400" type="line"/>
    </contour>
    <contour>
      <point x="44.1" y="400" type="line"/>
      <point x="204.1" y="400" type="line"/>
      <point x="204.1" y="600" type="line"/>
      <point x="44.1" y="600" type="line"/>
    </contour>
    <contour>
      <point x="44.1" y="600" type="line"/>
      <point x="204.1" y="600" type="line"/>
      <point x="204.1" y="800" type="line"/>
      <point x="44.1" y="800" type="line"/>
    </contour>
    <contour>
      <point x="249.1" y="100.0" type="line"/>
      <point x="337.4064" y="100.0"/>
      <point x="409.1" y="171.6936"/>
      <point x="409.1" y="260.0" type="curve"/>
      <point x="249.1" y="260.0" type="line"/>
    </contour>
    <contour>
      <point x="249.1" y="260.0" type="line"/>
      <point x="409.1" y="260.0" type="line"/>
      <point x="409.1" y="300.0" type="line"/>
      <point x="249.1" y="300.0" type="line"/>
    </contour>
    <contour>
      <point x="249.1" y="300.0" type="line"/>
      <point x="409.1" y="300.0" type="line"/>
      <point x="409.1" y="500.0" type="line"/>
      <point x="249.1" y="500.0" type="line"/>
    </contour>
    <contour>
      <point x="409.1" y="540.0" type="line"/>
      <point x="409.1" y="628.3064"/>
      <point x="337.4064" y="700.0"/>
      <point x="249.1" y="700.0" type="curve"/>
      <point x="249.1" y="540.0" type="line"/>
    </contour>
    <contour>
      <point x="249.1" y="500.0" type="line"/>
      <point x="409.1" y="500.0" type="line"/>
      <point x="409.1" y="540.0" type="line"/>
      <point x="249.1" y="540.0" type="line"/>
    </contour>
  </outline>
</glyph>
<glyph name="eszett" format="2">
  <advance width="453.2"/>
  <unicode hex="00DF"/>
  <outline>
    <contour>
      <point x="44.1" y="0" type="line"/>
      <point x="204.1" y="0" type="line"/>
      <point x="204.1" y="200" type="line"/>
      <point x="44.1" y="200" type="line"/>
    </contour>
    <contour>
      <point x="44.1" y="200" type="line"/>
      <point x="204.1" y="200" type="line"/>
      <point x="204.1" y="400" type="line"/>
      <point x="44.1" y="400" type="line"/>
    </contour>
    <contour>
      <point x="44.1" y="400" type="line"/>
      <point x="204.1" y="400" type="line"/>
      <point x="204.1" y="600" type="line"/>
      <point x="44.1" y="600" type="line"/>
    </contour>
    <contour>
      <point x="204.1" y="800.0" type="line"/>
      <point x="115.7936" y="800.0"/>
      <point x="44.1" y="728.3064"/>
      <point x="44.1" y="640.0" type="curve"/>
      <point x="204.1" y="640.0" type="line"/>
    </contour>
    <contour>
      <point x="44.1" y="600" type="line"/>
      <point x="204.1" y="600" type="line"/>
      <point x="204.1" y="640.0" type="line"/>
      <point x="44.1" y="640.0" type="line"/>
    </contour>
    <contour>
      <point x="249.1" y="0.0" type="line"/>
      <point x="337.4064" y="0.0"/>
      <point x="409.1" y="71.6936"/>
      <point x="409.1" y="160.0" type="curve"/>
      <point x="249.1" y="160.0" type="line"/>
    </contour>
    <contour>
      <point x="249.1" y="160.0" type="line"/>
      <point x="409.1" y="160.0" type="line"/>
      <point x="409.1" y="200.0" type="line"/>
      <point x="249.1" y="200.0" type="line"/>
    </contour>
    <contour>
      <point x="409.1" y="240.0" type="line"/>
      <point x="409.1" y="328.3064"/>
      <point x="337.4064" y="400.0"/>
      <point x="249.1" y="400.0" type="curve"/>
      <point x="249.1" y="240.0" type="line"/>
    </contour>
    <contour>
      <point x="249.1" y="200" type="line"/>
      <point x="409.1" y="200" type="line"/>
      <point x="409.1" y="240.0" type="line"/>
      <point x="249.1" y="240.0" type="line"/>
    </contour>
    <contour>
      <point x="249.1" y="400.0" type="line"/>
      <point x="337.4064" y="400.0"/>
      <point x="409.1" y="471.6936"/>
      <point x="409.1" y="560.0" type="curve"/>
      <point x="249.1" y="560.0" type="line"/>
    </contour>
    <contour>
      <point x="249.1" y="560.0" type="line"/>
      <point x="409.1" y="560.0" type="line"/>
      <point x="409.1" y="600.0" type="line"/>
      <point x="249.1" y="600.0" type="line"/>
    </contour>
    <contour>
      <point x="409.1" y="640.0" type="line"/>
      <point x="409.1" y="728.3064"/>
      <point x="337.4064" y="800.0"/>
      <point x="249.1" y="800.0" type="curve"/>
      <point x="249.1" y="640.0" type="line"/>
    </contour>
    <contour>
      <point x="249.1" y="600" type="line"/>
      <point x="409.1" y="600" type="line"/>
      <point x="409.1" y="640.0" type="line"/>
      <point x="249.1" y="640.0" type="line"/>
    </contour>
  </outline>
</glyph>
<glyph name="a_with_acute" format="2">
  <advance width="453.2"/>
  <unicode hex="00E1"/>
  <outline>
    <contour>
      <point x="44.1" y="160.0" type="line"/>
      <point x="44.1" y="71.6936"/>
      <point x="115.7936" y="0.0"/>
      <point x="204.1" y="0.0" type="curve"/>
      <point x="204.1" y="160.0" type="line"/>
    </contour>
    <contour>
      <point x="44.1" y="160.0" type="line"/>
      <point x="204.1" y="160.0" type="line"/>
      <point x="204.1" y="200.0" type="line"/>
      <point x="44.1" y="200.0" type="line"/>
    </contour>
    <contour>
      <point x="204.1" y="400.0" type="line"/>
      <point x="115.7936" y="400.0"/>
      <point x="44.1" y="328.3064"/>
      <point x="44.1" y="240.0" type="curve"/>
      <point x="204.1" y="240.0" type="line"/>
    </contour>
    <contour>
      <point x="44.1" y="200" type="line"/>
      <point x="204.1" y="200" type="line"/>
      <point x="204.1" y="240.0" type="line"/>
      <point x="44.1" y="240.0" type="line"/>
    </contour>
    <contour>
      <point x="211.6" y="520.0" type="curve" smooth="yes"/>
      <point x="211.6" y="566.91278"/>
      <point x="173.51278" y="605.0"/>
      <point x="126.6" y="605.0" type="curve" smooth="yes"/>
      <point x="79.68722" y="605.0"/>
      <point x="41.6" y="566.91278"/>
      <point x="41.6" y="520.0" type="curve" smooth="yes"/>
      <point x="41.6" y="473.08722"/>
      <point x="79.68722" y="435.0"/>
      <point x="126.6" y="435.0" type="curve" smooth="yes"/>
      <point x="173.51278" y="435.0"/>
      <point x="211.6" y="473.08722"/>
    </contour>
    <contour>
      <point x="249.1" y="155.0" type="line"/>
      <point x="249.1" y="66.6936"/>
      <point x="320.7936" y="-5.0"/>
      <point x="409.1" y="-5.0" type="curve"/>
      <point x="409.1" y="155.0" type="line"/>
    </contour>
    <contour>
      <point x="249.1" y="155.0" type="line"/>
      <point x="409.1" y="155.0" type="line"/>
      <point x="409.1" y="200.0" type="line"/>
      <point x="249.1" y="200.0" type="line"/>
    </contour>
    <contour>
      <point x="249.1" y="200" type="line"/>
      <point x="409.1" y="200" type="line"/>
      <point x="409.1" y="400" type="line"/>
      <point x="249.1" y="400" type="line"/>
    </contour>
    <contour>
      <point x="409.1" y="442.5" type="line"/>
      <point x="409.1" y="530.8064"/>
      <point x="337.4064" y="602.5"/>
      <point x="249.1" y="602.5" type="curve"/>
      <point x="249.1" y="442.5" type="line"/>
    </contour>
    <contour>
      <point x="249.1" y="400" type="line"/>
      <point x="409.1" y="400" type="line"/>
      <point x="409.1" y="442.5" type="line"/>
      <point x="249.1" y="442.5" type="line"/>
    </contour>
    <contour>
      <point x="215.35" y="638.8888888888889" type="line"/>
      <point x="303.65639999999996" y="638.8888888888889"/>
      <point x="375.35" y="710.582488888889"/>
      <point x="375.35" y="798.8888888888889" type="curve"/>
      <point x="215.35" y="798.8888888888889" type="line"/>
    </contour>
  </outline>
</glyph>
<glyph name="ae" format="2">
  <advance width="863.2"/>
  <unicode hex="00E6"/>
  <outline>
    <contour>
      <point x="44.1" y="155.0" type="line"/>
      <point x="44.1" y="66.6936"/>
      <point x="115.7936" y="-5.0"/>
      <point x="204.1" y="-5.0" type="curve"/>
      <point x="204.1" y="155.0" type="line"/>
    </contour>
    <contour>
      <point x="44.1" y="155.0" type="line"/>
      <point x="204.1" y="155.0" type="line"/>
      <point x="204.1" y="195.0" type="line"/>
      <point x="44.1" y="195.0" type="line"/>
    </contour>
    <contour>
      <point x="204.1" y="395.0" type="line"/>
      <point x="115.7936" y="395.0"/>
      <point x="44.1" y="323.3064"/>
      <point x="44.1" y="235.0" type="curve"/>
      <point x="204.1" y="235.0" type="line"/>
    </contour>
    <contour>
      <point x="44.1" y="195.0" type="line"/>
      <point x="204.1" y="195.0" type="line"/>
      <point x="204.1" y="235.0" type="line"/>
      <point x="44.1" y="235.0" type="line"/>
    </contour>
    <contour>
      <point x="211.6" y="520.0" type="curve" smooth="yes"/>
      <point x="211.6" y="566.91278"/>
      <point x="173.51278" y="605.0"/>
      <point x="126.6" y="605.0" type="curve" smooth="yes"/>
      <point x="79.68722" y="605.0"/>
      <point x="41.6" y="566.91278"/>
      <point x="41.6" y="520.0" type="curve" smooth="yes"/>
      <point x="41.6" y="473.08722"/>
      <point x="79.68722" y="435.0"/>
      <point x="126.6" y="435.0" type="curve" smooth="yes"/>
      <point x="173.51278" y="435.0"/>
      <point x="211.6" y="473.08722"/>
    </contour>
    <contour>
      <point x="249.1" y="-5.0" type="line"/>
      <point x="337.4064" y="-5.0"/>
      <point x="409.1" y="66.6936"/>
      <point x="409.1" y="155.0" type="curve"/>
      <point x="249.1" y="155.0" type="line"/>
    </contour>
    <contour>
      <point x="249.1" y="155.0" type="line"/>
      <point x="409.1" y="155.0" type="line"/>
      <point x="409.1" y="195.0" type="line"/>
      <point x="249.1" y="195.0" type="line"/>
    </contour>
    <contour>
      <point x="249.1" y="195.0" type="line"/>
      <point x="409.1" y="195.0" type="line"/>
      <point x="409.1" y="405.0" type="line"/>
      <point x="249.1" y="405.0" type="line"/>
    </contour>
    <contour>
      <point x="409.1" y="445.0" type="line"/>
      <point x="409.1" y="533.3064"/>
      <point x="337.4064" y="605.0"/>
      <point x="249.1" y="605.0" type="curve"/>
      <point x="249.1" y="445.0" type="line"/>
    </contour>
    <contour>
      <point x="249.1" y="405.0" type="line"/>
      <point x="409.1" y="405.0" type="line"/>
      <point x="409.1" y="445.0" type="line"/>
      <point x="249.1" y="445.0" type="line"/>
    </contour>
    <contour>
      <point x="454.1" y="155.0" type="line"/>
      <point x="454.1" y="66.6936"/>
      <point x="525.7936" y="-5.0"/>
      <point x="614.1" y="-5.0" type="curve"/>
      <point x="614.1" y="155.0" type="line"/>
    </contour>
    <contour>
      <point x="454.1" y="155.0" type="line"/>
      <point x="614.1" y="155.0" type="line"/>
      <point x="614.1" y="195.0" type="line"/>
      <point x="454.1" y="195.0" type="line"/>
    </contour>
    <contour>
      <point x="454.1" y="195.0" type="line"/>
      <point x="614.1" y="195.0" type="line"/>
      <point x="614.1" y="405.0" type="line"/>
      <point x="454.1" y="405.0" type="line"/>
    </contour>
    <contour>
      <point x="614.1" y="605.0" type="line"/>
      <point x="525.7936" y="605.0"/>
      <point x="454.1" y="533.3064"/>
      <point x="454.1" y="445.0" type="curve"/>
      <point x="614.1" y="445.0" type="line"/>
    </contour>
    <contour>
      <point x="454.1" y="405.0" type="line"/>
      <point x="614.1" y="405.0" type="line"/>
      <point x="614.1" y="445.0" type="line"/>
      <point x="454.1" y="445.0" type="line"/>
    </contour>
    <contour>
      <point x="659.1" y="195.0" type="line"/>
      <point x="819.1" y="195.0" type="line"/>
      <point x="819.1" y="405.0" type="line"/>
      <point x="659.1" y="405.0" type="line"/>
    </contour>
    <contour>
      <point x="819.1" y="445.0" type="line"/>
      <point x="819.1" y="533.3064"/>
      <point x="747.4064000000001" y="605.0"/>
      <point x="659.1" y="605.0" type="curve"/>
      <point x="659.1" y="445.0" type="line"/>
    </contour>
    <contour>
      <point x="659.1" y="405.0" type="line"/>
      <point x="819.1" y="405.0" type="line"/>
      <point x="819.1" y="445.0" type="line"/>
      <point x="659.1" y="445.0" type="line"/>
    </contour>
  </outline>
</glyph>
<glyph name="c_with_cedilla" format="2">
  <advance width="453.2"/>
  <unicode hex="00E7"/>
  <outline>
    <contour>
      <point x="44.1" y="160.0" type="line"/>
      <point x="44.1" y="71.6936"/>
      <point x="115.7936" y="0.0"/>
      <point x="204.1" y="0.0" type="curve"/>
      <point x="204.1" y="160.0" type="line"/>
    </contour>
    <contour>
      <point x="44.1" y="160.0" type="line"/>
      <point x="204.1" y="160.0" type="line"/>
      <point x="204.1" y="200.0" type="line"/>
      <point x="44.1" y="200.0" type="line"/>
    </contour>
    <contour>
      <point x="44.1" y="200" type="line"/>
      <point x="204.1" y="200" type="line"/>
      <point x="204.1" y="405.0" type="line"/>
      <point x="44.1" y="405.0" type="line"/>
    </contour>
    <contour>
      <point x="204.1" y="605.0" type="line"/>
      <point x="115.7936" y="605.0"/>
      <point x="44.1" y="533.3064"/>
      <point x="44.1" y="445.0" type="curve"/>
      <point x="204.1" y="445.0" type="line"/>
    </contour>
    <contour>
      <point x="44.1" y="405.0" type="line"/>
      <point x="204.1" y="405.0" type="line"/>
      <point x="204.1" y="445.0" type="line"/>
      <point x="44.1" y="445.0" type="line"/>
    </contour>
    <contour>
      <point x="406.6" y="160.0" type="line"/>
      <point x="318.2936" y="160.0"/>
      <point x="246.6" y="88.3064"/>
      <point x="246.6" y="0.0" type="curve"/>
      <point x="406.6" y="0.0" type="line"/>
    </contour>
    <contour>
      <point x="414.1" y="520.0" type="curve" smooth="yes"/>
      <point x="414.1" y="566.91278"/>
      <point x="376.01278" y="605.0"/>
      <point x="329.1" y="605.0" type="curve" smooth="yes"/>
      <point x="282.18722" y="605.0"/>
      <point x="244.1" y="566.91278"/>
      <point x="244.1" y="520.0" type="curve" smooth="yes"/>
      <point x="244.1" y="473.08722"/>
      <point x="282.18722" y="435.0"/>
      <point x="329.1" y="435.0" type="curve" smooth="yes"/>
      <point x="376.01278" y="435.0"/>
      <point x="414.1" y="473.08722"/>
    </contour>
    <contour>
      <point x="379.1" y="-185.0" type="line"/>
      <point x="379.1" y="-96.6936"/>
      <point x="307.40639999999996" y="-25.0"/>
      <point x="219.1" y="-25.0" type="curve"/>
      <point x="219.1" y="-185.0" type="line"/>
    </contour>
  </outline>
</glyph>
<glyph name="i_with_circumflex" format="2">
  <advance width="248.2"/>
  <unicode hex="00EE"/>
  <outline>
    <contour>
      <point x="44.1" y="0" type="line"/>
      <point x="204.1" y="0" type="line"/>
      <point x="204.1" y="200" type="line"/>
      <point x="44.1" y="200" type="line"/>
    </contour>
    <contour>
      <point x="44.1" y="200" type="line"/>
      <point x="204.1" y="200" type="line"/>
      <point x="204.1" y="400" type="line"/>
      <point x="44.1" y="400" type="line"/>
    </contour>
    <contour>
      <point x="44.1" y="400" type="line"/>
      <point x="204.1" y="400" type="line"/>
      <point x="204.1" y="600" type="line"/>
      <point x="44.1" y="600" type="line"/>
    </contour>
    <contour>
      <point x="-40.900000000000006" y="638.8888888888889" type="line"/>
      <point x="47.40639999999999" y="638.8888888888889"/>
      <point x="119.1" y="710.582488888889"/>
      <point x="119.1" y="798.8888888888889" type="curve"/>
      <point x="-40.900000000000006" y="798.8888888888889" type="line"/>
    </contour>
    <contour>
      <point x="129.1" y="798.8888888888889" type="line"/>
      <point x="129.1" y="710.582488888889"/>
      <point x="200.7936" y="638.8888888888889"/>
      <point x="289.1" y="638.8888888888889" type="curve"/>
      <point x="289.1" y="798.8888888888889" type="line"/>
    </contour>
  </outline>
</glyph>
<glyph name="i_with_diaeresis" format="2">
  <advance width="248.2"/>
  <unicode hex="00EF"/>
  <outline>
    <contour>
      <point x="44.1" y="0" type="line"/>
      <point x="204.1" y="0" type="line"/>
      <point x="204.1" y="200" type="line"/>
      <point x="44.1" y="200" type="line"/>
    </contour>
    <contour>
      <point x="44.1" y="200" type="line"/>
      <point x="204.1" y="200" type="line"/>
      <point x="204.1" y="400" type="line"/>
      <point x="44.1" y="400" type="line"/>
    </contour>
    <contour>
      <point x="44.1" y="400" type="line"/>
      <point x="204.1" y="400" type="line"/>
      <point x="204.1" y="600" type="line"/>
      <point x="44.1" y="600" type="line"/>
    </contour>
    <contour>
      <point x="106.6" y="718.8888888888889" type="curve" smooth="yes"/>
      <point x="106.6" y="765.8016688888889"/>
      <point x="68.51277999999999" y="803.8888888888889"/>
      <point x="21.599999999999994" y="803.8888888888889" type="curve" smooth="yes"/>
      <point x="-25.312780000000004" y="803.8888888888889"/>
      <point x="-63.400000000000006" y="765.8016688888889"/>
      <point x="-63.400000000000006" y="718.8888888888889" type="curve" smooth="yes"/>
      <point x="-63.400000000000006" y="671.9761088888889"/>
      <point x="-25.312780000000004" y="633.8888888888889"/>
      <point x="21.599999999999994" y="633.8888888888889" type="curve" smooth="yes"/>
      <point x="68.51277999999999" y="633.8888888888889"/>
      <point x="106.6" y="671.9761088888889"/>
    </contour>
    <contour>
      <point x="311.6" y="718.8888888888889" type="curve" smooth="yes"/>
      <point x="311.6" y="765.8016688888889"/>
      <point x="273.51278" y="803.8888888888889"/>
      <point x="226.6" y="803.8888888888889" type="curve" smooth="yes"/>
      <point x="179.68722" y="803.8888888888889"/>
      <point x="141.6" y="765.8016688888889"/>
      <point x="141.6" y="718.8888888888889" type="curve" smooth="yes"/>
      <point x="141.6" y="671.9761088888889"/>
      <point x="179.68722" y="633.8888888888889"/>
      <point x="226.6" y="633.8888888888889" type="curve" smooth="yes"/>
      <point x="273.51278" y="633.8888888888889"/>
      <point x="311.6" y="671.9761088888889"/>
    </contour>
  </outline>
</glyph>
<glyph name="n_with_smalltilde" format="2">
  <advance width="453.2"/>
  <unicode hex="00F1"/>
  <outline>
    <contour>
      <point x="44.1" y="0" type="line"/>
      <point x="204.1" y="0" type="line"/>
      <point x="204.1" y="200" type="line"/>
      <point x="44.1" y="200" type="line"/>
    </contour>
    <contour>
      <point x="44.1" y="200" type="line"/>
      <point x="204.1" y="200" type="line"/>
      <point x="204.1" y="400" type="line"/>
      <point x="44.1" y="400" type="line"/>
    </contour>
    <contour>
      <point x="44.1" y="400" type="line"/>
      <point x="204.1" y="400" type="line"/>
      <point x="204.1" y="600" type="line"/>
      <point x="44.1" y="600" type="line"/>
    </contour>
    <contour>
      <point x="249.1" y="0" type="line"/>
      <point x="409.1" y="0" type="line"/>
      <point x="409.1" y="200" type="line"/>
      <point x="249.1" y="200" type="line"/>
    </contour>
    <contour>
      <point x="249.1" y="200" type="line"/>
      <point x="409.1" y="200" type="line"/>
      <point x="409.1" y="400" type="line"/>
      <point x="249.1" y="400" type="line"/>
    </contour>
    <contour>
      <point x="409.1" y="440.0" type="line"/>
      <point x="409.1" y="528.3064"/>
      <point x="337.4064" y="600.0"/>
      <point x="249.1" y="600.0" type="curve"/>
      <point x="249.1" y="440.0" type="line"/>
    </contour>
    <contour>
      <point x="249.1" y="400" type="line"/>
      <point x="409.1" y="400" type="line"/>
      <point x="409.1" y="440.0" type="line"/>
      <point x="249.1" y="440.0" type="line"/>
    </contour>
    <contour>
      <point x="226.6" y="798.8888888888889" type="line"/>
      <point x="138.2936" y="798.8888888888889"/>
      <point x="66.6" y="727.1952888888889"/>
      <point x="66.6" y="638.8888888888889" type="curve"/>
      <point x="226.6" y="638.8888888888889" type="line"/>
    </contour>
    <contour>
      <point x="226.6" y="638.8888888888889" type="line"/>
      <point x="314.90639999999996" y="638.8888888888889"/>
      <point x="386.6" y="710.582488888889"/>
      <point x="386.6" y="798.8888888888889" type="curve"/>
      <point x="226.6" y="798.8888888888889" type="line"/>
    </contour>
  </outline>
</glyph>
<glyph name="o_with_diaeresis" format="2">
  <advance width="453.2"/>
  <unicode hex="00F6"/>
  <outline>
    <contour>
      <point x="44.1" y="155.0" type="line"/>
      <point x="44.1" y="66.6936"/>
      <point x="115.7936" y="-5.0"/>
      <point x="204.1" y="-5.0" type="curve"/>
      <point x="204.1" y="155.0" type="line"/>
    </contour>
    <contour>
      <point x="44.1" y="155.0" type="line"/>
      <point x="204.1" y="155.0" type="line"/>
      <point x="204.1" y="195.0" type="line"/>
      <point x="44.1" y="195.0" type="line"/>
    </contour>
    <contour>
      <point x="44.1" y="195.0" type="line"/>
      <point x="204.1" y="195.0" type="line"/>
      <point x="204.1" y="405.0" type="line"/>
      <point x="44.1" y="405.0" type="line"/>
    </contour>
    <contour>
      <point x="204.1" y="605.0" type="line"/>
      <point x="115.7936" y="605.0"/>
      <point x="44.1" y="533.3064"/>
      <point x="44.1" y="445.0" type="curve"/>
      <point x="204.1" y="445.0" type="line"/>
    </contour>
    <contour>
      <point x="44.1" y="405.0" type="line"/>
      <point x="204.1" y="405.0" type="line"/>
      <point x="204.1" y="445.0" type="line"/>
      <point x="44.1" y="445.0" type="line"/>
    </contour>
    <contour>
      <point x="249.1" y="-5.0" type="line"/>
      <point x="337.4064" y="-5.0"/>
      <point x="409.1" y="66.6936"/>
      <point x="409.1" y="155.0" type="curve"/>
      <point x="249.1" y="155.0" type="line"/>
    </contour>
    <contour>
      <point x="249.1" y="155.0" type="line"/>
      <point x="409.1" y="155.0" type="line"/>
      <point x="409.1" y="195.0" type="line"/>
      <point x="249.1" y="195.0" type="line"/>
    </contour>
    <contour>
      <point x="249.1" y="195.0" type="line"/>
      <point x="409.1" y="195.0" type="line"/>
      <point x="409.1" y="405.0" type="line"/>
      <point x="249.1" y="405.0" type="line"/>
    </contour>
    <contour>
      <point x="409.1" y="445.0" type="line"/>
      <point x="409.1" y="533.3064"/>
      <point x="337.4064" y="605.0"/>
      <point x="249.1" y="605.0" type="curve"/>
      <point x="249.1" y="445.0" type="line"/>
    </contour>
    <contour>
      <point x="249.1" y="405.0" type="line"/>
      <point x="409.1" y="405.0" type="line"/>
      <point x="409.1" y="445.0" type="line"/>
      <point x="249.1" y="445.0" type="line"/>
    </contour>
    <contour>
      <point x="209.1" y="718.8888888888889" type="curve" smooth="yes"/>
      <point x="209.1" y="765.8016688888889"/>
      <point x="171.01278" y="803.8888888888889"/>
      <point x="124.1" y="803.8888888888889" type="curve" smooth="yes"/>
      <point x="77.18722" y="803.8888888888889"/>
      <point x="39.099999999999994" y="765.8016688888889"/>
      <point x="39.099999999999994" y="718.8888888888889" type="curve" smooth="yes"/>
      <point x="39.099999999999994" y="671.9761088888889"/>
      <point x="77.18722" y="633.8888888888889"/>
      <point x="124.1" y="633.8888888888889" type="curve" smooth="yes"/>
      <point x="171.01278" y="633.8888888888889"/>
      <point x="209.1" y="671.9761088888889"/>
    </contour>
    <contour>
      <point x="414.1" y="718.8888888888889" type="curve" smooth="yes"/>
      <point x="414.1" y="765.8016688888889"/>
      <point x="376.01278" y="803.8888888888889"/>
      <point x="329.1" y="803.8888888888889" type="curve" smooth="yes"/>
      <point x="282.18722" y="803.8888888888889"/>
      <point x="244.1" y="765.8016688888889"/>
      <point x="244.1" y="718.8888888888889" type="curve" smooth="yes"/>
      <point x="244.1" y="671.9761088888889"/>
      <point x="282.18722" y="633.8888888888889"/>
      <point x="329.1" y="633.8888888888889" type="curve" smooth="yes"/>
      <point x="376.01278" y="633.8888888888889"/>
      <point x="414.1" y="671.9761088888889"/>
    </contour>
  </outline>
</glyph>
<glyph name="divide" format="2">
  <advance width="658.2"/>
  <unicode hex="00F7"/>
  <outline>
    <contour>
      <point x="89.1" y="320.0" type="line"/>
      <point x="249.1" y="320.0" type="line"/>
      <point x="249.1" y="480.0" type="line"/>
      <point x="89.1" y="480.0" type="line"/>
    </contour>
    <contour>
      <point x="414.1" y="170.0" type="curve" smooth="yes"/>
      <point x="414.1" y="216.91278"/>
      <point x="376.01278" y="255.0"/>
      <point x="329.1" y="255.0" type="curve" smooth="yes"/>
      <point x="282.18722" y="255.0"/>
      <point x="244.1" y="216.91278"/>
      <point x="244.1" y="170.0" type="curve" smooth="yes"/>
      <point x="244.1" y="123.08722"/>
      <point x="282.18722" y="85.0"/>
      <point x="329.1" y="85.0" type="curve" smooth="yes"/>
      <point x="376.01278" y="85.0"/>
      <point x="414.1" y="123.08722"/>
    </contour>
    <contour>
      <point x="249.1" y="320.0" type="line"/>
      <point x="409.1" y="320.0" type="line"/>
      <point x="409.1" y="480.0" type="line"/>
      <point x="249.1" y="480.0" type="line"/>
    </contour>
    <contour>
      <point x="414.1" y="630.0" type="curve" smooth="yes"/>
      <point x="414.1" y="676.91278"/>
      <point x="376.01278" y="715.0"/>
      <point x="329.1" y="715.0" type="curve" smooth="yes"/>
      <point x="282.18722" y="715.0"/>
      <point x="244.1" y="676.91278"/>
      <point x="244.1" y="630.0" type="curve" smooth="yes"/>
      <point x="244.1" y="583.08722"/>
      <point x="282.18722" y="545.0"/>
      <point x="329.1" y="545.0" type="curve" smooth="yes"/>
      <point x="376.01278" y="545.0"/>
      <point x="414.1" y="583.08722"/>
    </contour>
    <contour>
      <point x="409.1" y="320.0" type="line"/>
      <point x="569.1" y="320.0" type="line"/>
      <point x="569.1" y="480.0" type="line"/>
      <point x="409.1" y="480.0" type="line"/>
    </contour>
  </outline>
</glyph>
